<svg width="45" height="45" viewBox="0 0 45 45" fill="none" xmlns="http://www.w3.org/2000/svg">
<path d="M22.2062 0.606445C28.0465 0.606445 33.6475 2.92648 37.7772 7.05616C41.9069 11.1858 44.2269 16.7869 44.2269 22.6271C44.2269 28.4674 41.9069 34.0684 37.7772 38.1981C33.6475 42.3278 28.0465 44.6478 22.2062 44.6478C16.366 44.6478 10.7649 42.3278 6.63526 38.1981C2.50558 34.0684 0.185547 28.4674 0.185547 22.6271C0.185547 16.7869 2.50558 11.1858 6.63526 7.05616C10.7649 2.92648 16.366 0.606445 22.2062 0.606445ZM22.2062 41.502C27.2122 41.502 32.0131 39.5134 35.5528 35.9737C39.0925 32.434 41.0811 27.6331 41.0811 22.6271C41.0811 17.6212 39.0925 12.8203 35.5528 9.28058C32.0131 5.74085 27.2122 3.75226 22.2062 3.75226C17.2003 3.75226 12.3994 5.74085 8.85968 9.28058C5.31996 12.8203 3.33136 17.6212 3.33136 22.6271C3.33136 27.6331 5.31996 32.434 8.85968 35.9737C12.3994 39.5134 17.2003 41.502 22.2062 41.502ZM19.8469 29.3309C19.8469 29.3309 19.8469 23.3262 19.8469 22.6271C19.8469 21.9281 21.7402 19.3648 21.7402 19.3648L19.8469 29.3309ZM20.3691 12.4882L32.6315 20.6641C32.9546 20.8796 33.2195 21.1715 33.4028 21.5139C33.586 21.8564 33.6819 22.2388 33.6819 22.6271C33.6819 23.0155 33.586 23.3979 33.4028 23.7403C33.2195 24.0828 32.9546 24.3747 32.6315 24.5901L20.3691 32.7661C20.0138 33.0029 19.6008 33.1389 19.1743 33.1595C18.7478 33.1801 18.3237 33.0846 17.9472 32.8831C17.5707 32.6816 17.2559 32.3818 17.0365 32.0154C16.817 31.6491 16.7011 31.2301 16.7011 30.8031V14.448C16.7011 14.021 16.817 13.602 17.0365 13.2357C17.2559 12.8694 17.5707 12.5695 17.9472 12.368C18.3237 12.1665 18.7478 12.071 19.1743 12.0916C19.6008 12.1122 20.0138 12.2482 20.3691 12.485V12.4882Z" fill="white"/>
</svg>
