<svg width="101" height="102" viewBox="0 0 101 102" fill="none" xmlns="http://www.w3.org/2000/svg">
<ellipse cx="97.2865" cy="25.437" rx="3.71324" ry="3.74074" fill="url(#paint0_linear_6742_10226)"/>
<ellipse cx="4.82721" cy="22.818" rx="4.82721" ry="4.86297" fill="url(#paint1_linear_6742_10226)"/>
<ellipse cx="54.5842" cy="1.87037" rx="1.85662" ry="1.87037" fill="url(#paint2_linear_6742_10226)"/>
<ellipse cx="7.79757" cy="68.4552" rx="1.11397" ry="1.12222" fill="url(#paint3_linear_6742_10226)"/>
<ellipse cx="76.864" cy="93.1437" rx="1.11397" ry="1.12222" fill="url(#paint4_linear_6742_10226)"/>
<ellipse cx="96.1725" cy="65.4632" rx="2.59927" ry="2.61852" fill="url(#paint5_linear_6742_10226)"/>
<ellipse cx="36.7614" cy="98.3812" rx="2.59927" ry="2.61852" fill="url(#paint6_linear_6742_10226)"/>
<ellipse cx="97.2865" cy="26.3081" rx="3.71324" ry="3.74074" fill="url(#paint7_linear_6742_10226)"/>
<ellipse cx="50.9355" cy="53.8606" rx="42.2285" ry="42.5413" fill="#F10027"/>
<ellipse cx="4.82721" cy="23.6891" rx="4.82721" ry="4.86297" fill="url(#paint8_linear_6742_10226)"/>
<ellipse cx="54.5842" cy="2.74147" rx="1.85662" ry="1.87037" fill="url(#paint9_linear_6742_10226)"/>
<ellipse cx="7.79757" cy="69.3263" rx="1.11397" ry="1.12222" fill="url(#paint10_linear_6742_10226)"/>
<ellipse cx="76.864" cy="94.0148" rx="1.11397" ry="1.12222" fill="url(#paint11_linear_6742_10226)"/>
<ellipse cx="96.1725" cy="66.3334" rx="2.59927" ry="2.61852" fill="url(#paint12_linear_6742_10226)"/>
<ellipse cx="36.7614" cy="99.2523" rx="2.59927" ry="2.61852" fill="url(#paint13_linear_6742_10226)"/>
<g filter="url(#filter0_d_6742_10226)">
<circle cx="50.9355" cy="53.5478" r="27.4268" fill="white"/>
<g clip-path="url(#clip0_6742_10226)">
<path d="M61.019 44.0131C61.1846 43.8442 61.3822 43.7099 61.6003 43.6183C61.8184 43.5267 62.0526 43.4795 62.2892 43.4795C62.5257 43.4795 62.7599 43.5267 62.978 43.6183C63.1961 43.7099 63.3938 43.8442 63.5594 44.0131C64.2533 44.7143 64.263 45.8474 63.5836 46.5608L49.2367 63.5208C49.0738 63.6997 48.8762 63.8435 48.6558 63.9433C48.4355 64.0432 48.197 64.097 47.9552 64.1015C47.7133 64.1061 47.473 64.0612 47.2491 63.9697C47.0251 63.8782 46.8222 63.742 46.6527 63.5694L37.9227 54.723C37.5861 54.3796 37.3975 53.9179 37.3975 53.437C37.3975 52.9561 37.5861 52.4944 37.9227 52.151C38.0883 51.9821 38.286 51.8479 38.5041 51.7562C38.7222 51.6646 38.9564 51.6174 39.1929 51.6174C39.4295 51.6174 39.6637 51.6646 39.8818 51.7562C40.0999 51.8479 40.2975 51.9821 40.4631 52.151L47.8683 59.6557L60.9705 44.0665C60.9856 44.0478 61.0018 44.0299 61.019 44.0131Z" fill="#008000"/>
</g>
</g>
<defs>
<filter id="filter0_d_6742_10226" x="8.50879" y="13.1211" width="84.8535" height="84.8535" filterUnits="userSpaceOnUse" color-interpolation-filters="sRGB">
<feFlood flood-opacity="0" result="BackgroundImageFix"/>
<feColorMatrix in="SourceAlpha" type="matrix" values="0 0 0 0 0 0 0 0 0 0 0 0 0 0 0 0 0 0 127 0" result="hardAlpha"/>
<feOffset dy="2"/>
<feGaussianBlur stdDeviation="7.5"/>
<feComposite in2="hardAlpha" operator="out"/>
<feColorMatrix type="matrix" values="0 0 0 0 0 0 0 0 0 0 0 0 0 0 0 0 0 0 0.25 0"/>
<feBlend mode="normal" in2="BackgroundImageFix" result="effect1_dropShadow_6742_10226"/>
<feBlend mode="normal" in="SourceGraphic" in2="effect1_dropShadow_6742_10226" result="shape"/>
</filter>
<linearGradient id="paint0_linear_6742_10226" x1="97.2865" y1="21.6963" x2="97.2865" y2="29.1778" gradientUnits="userSpaceOnUse">
<stop stop-color="#FF7E0E"/>
<stop offset="1" stop-color="#FF3D2D"/>
</linearGradient>
<linearGradient id="paint1_linear_6742_10226" x1="4.82721" y1="17.9551" x2="4.82721" y2="27.681" gradientUnits="userSpaceOnUse">
<stop stop-color="#F10027"/>
<stop offset="1" stop-color="#FF3D2D"/>
</linearGradient>
<linearGradient id="paint2_linear_6742_10226" x1="54.5842" y1="0" x2="54.5842" y2="3.74074" gradientUnits="userSpaceOnUse">
<stop stop-color="#F10027"/>
<stop offset="1" stop-color="#FF3D2D"/>
</linearGradient>
<linearGradient id="paint3_linear_6742_10226" x1="7.79757" y1="67.333" x2="7.79757" y2="69.5775" gradientUnits="userSpaceOnUse">
<stop stop-color="#FF7E0E"/>
<stop offset="1" stop-color="#FF3D2D"/>
</linearGradient>
<linearGradient id="paint4_linear_6742_10226" x1="76.864" y1="92.0215" x2="76.864" y2="94.2659" gradientUnits="userSpaceOnUse">
<stop stop-color="#FF7E0E"/>
<stop offset="1" stop-color="#FF3D2D"/>
</linearGradient>
<linearGradient id="paint5_linear_6742_10226" x1="96.1725" y1="62.8447" x2="96.1725" y2="68.0818" gradientUnits="userSpaceOnUse">
<stop stop-color="#FF7E0E"/>
<stop offset="1" stop-color="#FF3D2D"/>
</linearGradient>
<linearGradient id="paint6_linear_6742_10226" x1="36.7614" y1="95.7627" x2="36.7614" y2="101" gradientUnits="userSpaceOnUse">
<stop stop-color="#FF7E0E"/>
<stop offset="1" stop-color="#FF3D2D"/>
</linearGradient>
<linearGradient id="paint7_linear_6742_10226" x1="97.2865" y1="22.5674" x2="97.2865" y2="30.0489" gradientUnits="userSpaceOnUse">
<stop stop-color="#F10027"/>
<stop offset="1" stop-color="#FF3D2D"/>
</linearGradient>
<linearGradient id="paint8_linear_6742_10226" x1="4.82721" y1="18.8262" x2="4.82721" y2="28.5521" gradientUnits="userSpaceOnUse">
<stop stop-color="#F10027"/>
<stop offset="1" stop-color="#FF3D2D"/>
</linearGradient>
<linearGradient id="paint9_linear_6742_10226" x1="54.5842" y1="0.871094" x2="54.5842" y2="4.61184" gradientUnits="userSpaceOnUse">
<stop stop-color="#F10027"/>
<stop offset="1" stop-color="#FF3D2D"/>
</linearGradient>
<linearGradient id="paint10_linear_6742_10226" x1="7.79757" y1="68.2041" x2="7.79757" y2="70.4485" gradientUnits="userSpaceOnUse">
<stop stop-color="#F10027"/>
<stop offset="1" stop-color="#FF3D2D"/>
</linearGradient>
<linearGradient id="paint11_linear_6742_10226" x1="76.864" y1="92.8926" x2="76.864" y2="95.137" gradientUnits="userSpaceOnUse">
<stop stop-color="#F10027"/>
<stop offset="1" stop-color="#FF3D2D"/>
</linearGradient>
<linearGradient id="paint12_linear_6742_10226" x1="96.1725" y1="63.7148" x2="96.1725" y2="68.9519" gradientUnits="userSpaceOnUse">
<stop stop-color="#F10027"/>
<stop offset="1" stop-color="#FF3D2D"/>
</linearGradient>
<linearGradient id="paint13_linear_6742_10226" x1="36.7614" y1="96.6338" x2="36.7614" y2="101.871" gradientUnits="userSpaceOnUse">
<stop stop-color="#F10027"/>
<stop offset="1" stop-color="#FF3D2D"/>
</linearGradient>
<clipPath id="clip0_6742_10226">
<rect width="26.4315" height="20.6496" fill="white" transform="translate(37.5508 43.4668)"/>
</clipPath>
</defs>
</svg>
