<svg width="12" height="7" viewBox="0 0 12 7" fill="none" xmlns="http://www.w3.org/2000/svg">
<path d="M0.255337 6.38011C0.418879 6.54254 0.640659 6.63379 0.871907 6.63379C1.10315 6.63379 1.32493 6.54254 1.48848 6.38011L5.80534 2.09133L10.1222 6.38011C10.2867 6.53794 10.507 6.62527 10.7356 6.62329C10.9643 6.62132 11.183 6.5302 11.3447 6.36956C11.5064 6.20892 11.5981 5.99161 11.6001 5.76443C11.6021 5.53726 11.5142 5.3184 11.3553 5.15499L6.42191 0.253646C6.25837 0.091217 6.03658 -3.09944e-05 5.80534 -3.09944e-05C5.57409 -3.09944e-05 5.35231 0.091217 5.18877 0.253646L0.255337 5.15499C0.0918448 5.31747 0 5.53781 0 5.76755C0 5.9973 0.0918448 6.21763 0.255337 6.38011Z" fill="white"/>
</svg>
