<svg width="39" height="39" viewBox="0 0 39 39" fill="none" xmlns="http://www.w3.org/2000/svg">
<path d="M30.8375 38.3125C29.1981 38.3125 26.8952 37.7195 23.4468 35.7929C19.2535 33.4414 16.01 31.2704 11.8393 27.1106C7.81818 23.092 5.86134 20.4901 3.12261 15.5065C0.0286277 9.87954 0.55605 6.93001 1.14562 5.66941C1.84773 4.16273 2.8841 3.26157 4.22365 2.36714C4.9845 1.86864 5.78968 1.44131 6.62896 1.09058C6.71294 1.05446 6.79105 1.02003 6.86076 0.988957C7.27648 0.801672 7.90636 0.518645 8.70421 0.820988C9.23667 1.02087 9.71203 1.42988 10.4561 2.16474C11.9821 3.66974 14.0675 7.02156 14.8368 8.66765C15.3533 9.77708 15.6951 10.5094 15.6959 11.3308C15.6959 12.2924 15.2122 13.034 14.6251 13.8344C14.5151 13.9847 14.4059 14.1283 14.3001 14.2677C13.661 15.1076 13.5207 15.3503 13.6131 15.7836C13.8004 16.6546 15.197 19.2472 17.4923 21.5374C19.7876 23.8277 22.3055 25.1361 23.1798 25.3226C23.6316 25.4192 23.8794 25.273 24.7461 24.6112C24.8704 24.5163 24.998 24.4181 25.1316 24.3198C26.0268 23.6538 26.734 23.1827 27.6729 23.1827H27.678C28.4951 23.1827 29.1947 23.5371 30.3537 24.1216C31.8654 24.8842 35.318 26.9427 36.8323 28.4703C37.5688 29.2127 37.9795 29.6864 38.1802 30.218C38.4826 31.0184 38.1978 31.6458 38.0122 32.0657C37.9812 32.1354 37.9467 32.2118 37.9106 32.2967C37.5571 33.1344 37.1273 33.9379 36.6265 34.6969C35.7337 36.0323 34.8292 37.0661 33.3192 37.7691C32.5438 38.1358 31.6952 38.3216 30.8375 38.3125Z" fill="white"/>
</svg>
