<svg width="28" height="28" viewBox="0 0 28 28" fill="none" xmlns="http://www.w3.org/2000/svg">
<path d="M14.1975 0.0805664C6.65518 0.0805664 0.558594 6.17715 0.558594 13.7195C0.558594 21.2618 6.65518 27.3583 14.1975 27.3583C21.7398 27.3583 27.8364 21.2618 27.8364 13.7195C27.8364 6.17715 21.7398 0.0805664 14.1975 0.0805664ZM20.0622 19.5842C19.5303 20.1161 18.671 20.1161 18.1391 19.5842L14.1975 15.6425L10.2558 19.5842C9.72393 20.1161 8.86468 20.1161 8.33276 19.5842C7.80084 19.0523 7.80084 18.193 8.33276 17.6611L12.2744 13.7195L8.33276 9.77782C7.80084 9.2459 7.80084 8.38665 8.33276 7.85473C8.86468 7.32282 9.72393 7.32282 10.2558 7.85473L14.1975 11.7964L18.1391 7.85473C18.671 7.32282 19.5303 7.32282 20.0622 7.85473C20.5941 8.38665 20.5941 9.2459 20.0622 9.77782L16.1206 13.7195L20.0622 17.6611C20.5805 18.1794 20.5805 19.0523 20.0622 19.5842Z" fill="#E60023"/>
</svg>
