<svg width="16" height="13" viewBox="0 0 16 13" fill="none" xmlns="http://www.w3.org/2000/svg">
<path d="M10.3414 1.85862C9.53134 1.534 8.67154 1.36736 7.80435 1.36694C6.54752 1.39791 5.31615 1.74477 4.21376 2.37835C3.11138 3.01193 2.1702 3.91372 1.46935 5.00789C1.16301 5.50317 1 6.08083 1 6.67112C1 7.2614 1.16301 7.83906 1.46935 8.33434C1.77762 8.78298 2.12115 9.20379 2.49635 9.59237M12.8964 3.53914C13.3557 3.98371 13.7715 4.4754 14.1374 5.00685C14.4437 5.50212 14.6067 6.07978 14.6067 6.67007C14.6067 7.26035 14.4437 7.83802 14.1374 8.33329C13.4364 9.42727 12.4952 10.3289 11.3928 10.9623C10.2904 11.5956 9.0591 11.9423 7.80235 11.9732C6.84674 11.9723 5.90102 11.7702 5.02135 11.3788" stroke="#A8A1AE" stroke-linecap="round" stroke-linejoin="round"/>
<path d="M5.26558 1.85862C6.07559 1.534 6.9354 1.36736 7.80258 1.36694C9.05941 1.39791 10.2908 1.74477 11.3932 2.37835C12.4956 3.01193 13.4367 3.91372 14.1376 5.00789C14.4439 5.50317 14.6069 6.08083 14.6069 6.67112C14.6069 7.2614 14.4439 7.83906 14.1376 8.33434C13.8293 8.78298 13.4858 9.20379 13.1106 9.59237M2.71058 3.53914C2.2512 3.98371 1.83546 4.4754 1.46958 5.00685C1.16324 5.50212 1.00022 6.07978 1.00022 6.67007C1.00022 7.26035 1.16324 7.83802 1.46958 8.33329C2.17053 9.42727 3.11176 10.3289 4.21414 10.9623C5.31652 11.5956 6.54783 11.9423 7.80458 11.9732C8.7602 11.9723 9.70591 11.7702 10.5856 11.3788" stroke="#A8A1AE" stroke-linecap="round" stroke-linejoin="round"/>
<path d="M9.88941 6.67476C9.88967 6.96202 9.83589 7.24652 9.73116 7.51197C9.62642 7.77742 9.47277 8.0186 9.27902 8.22173C9.08526 8.42485 8.8552 8.58593 8.602 8.69573C8.34879 8.80553 8.07742 8.86191 7.80341 8.86164M9.26341 5.11166C8.88119 4.71957 8.37 4.49626 7.83531 4.4878C7.30062 4.47933 6.78323 4.68637 6.38989 5.06617C5.99656 5.44598 5.7573 5.96958 5.72149 6.52893C5.68567 7.08828 5.85603 7.64071 6.19741 8.07222" stroke="#A8A1AE" stroke-linecap="round" stroke-linejoin="round"/>
<path d="M5.71704 6.67476C5.71678 6.96202 5.77055 7.24652 5.87529 7.51197C5.98003 7.77742 6.13367 8.0186 6.32743 8.22173C6.52118 8.42485 6.75125 8.58593 7.00445 8.69573C7.25765 8.80553 7.52903 8.86191 7.80304 8.86164M6.34304 5.11166C6.72525 4.71957 7.23645 4.49626 7.77114 4.4878C8.30583 4.47933 8.82322 4.68637 9.21655 5.06617C9.60988 5.44598 9.84914 5.96958 9.88496 6.52893C9.92078 7.08828 9.75042 7.64071 9.40904 8.07222" stroke="#A8A1AE" stroke-linecap="round" stroke-linejoin="round"/>
</svg>
