<svg width="16" height="15" viewBox="0 0 16 15" fill="none" xmlns="http://www.w3.org/2000/svg">
<path d="M10.0977 2.96385C9.28769 2.63922 8.42789 2.47259 7.5607 2.47217C6.30387 2.50314 5.0725 2.84999 3.97011 3.48357C2.86772 4.11715 1.92655 5.01894 1.2257 6.11312C0.919362 6.60839 0.756348 7.18606 0.756348 7.77634C0.756348 8.36663 0.919362 8.94429 1.2257 9.43956C1.53397 9.8882 1.8775 10.309 2.2527 10.6976M12.6527 4.64437C13.1121 5.08894 13.5278 5.58062 13.8937 6.11207C14.2 6.60735 14.3631 7.18501 14.3631 7.77529C14.3631 8.36558 14.2 8.94324 13.8937 9.43851C13.1927 10.5325 12.2515 11.4341 11.1491 12.0675C10.0468 12.7009 8.81545 13.0476 7.5587 13.0784C6.60308 13.0775 5.65737 12.8754 4.7777 12.484" stroke="#A8A1AE" stroke-linecap="round" stroke-linejoin="round"/>
<path d="M9.64575 7.77998C9.64602 8.06725 9.59224 8.35174 9.4875 8.61719C9.38276 8.88264 9.22912 9.12383 9.03537 9.32695C8.84161 9.53008 8.61155 9.69115 8.35834 9.80096C8.10514 9.91076 7.83377 9.96714 7.55976 9.96686M9.01975 6.21688C8.63754 5.8248 8.12635 5.60149 7.59166 5.59302C7.05696 5.58456 6.53957 5.79159 6.14624 6.1714C5.75291 6.5512 5.51365 7.0748 5.47783 7.63415C5.44202 8.19351 5.61237 8.74593 5.95375 9.17745" stroke="#A8A1AE" stroke-linecap="round" stroke-linejoin="round"/>
<path d="M0.606934 14.3404L14.5139 1" stroke="#A8A1AE" stroke-linecap="round"/>
</svg>
