<svg width="30" height="28" viewBox="0 0 30 28" fill="none" xmlns="http://www.w3.org/2000/svg">
<g clip-path="url(#clip0_7_17)">
<g filter="url(#filter0_di_7_17)">
<path d="M25.7952 4.10409C25.1652 3.43703 24.4172 2.90787 23.5939 2.54685C22.7706 2.18582 21.8881 2 20.997 2C20.1058 2 19.2234 2.18582 18.4001 2.54685C17.5768 2.90787 16.8288 3.43703 16.1988 4.10409L14.8913 5.48782L13.5838 4.10409C12.3113 2.75731 10.5853 2.0007 8.78566 2.0007C6.98599 2.0007 5.26003 2.75731 3.98747 4.10409C2.71492 5.45087 2 7.27749 2 9.18213C2 11.0868 2.71492 12.9134 3.98747 14.2602L5.29495 15.6439L14.8913 25.8L24.4877 15.6439L25.7952 14.2602C26.4255 13.5934 26.9255 12.8018 27.2666 11.9305C27.6077 11.0592 27.7833 10.1253 27.7833 9.18213C27.7833 8.23899 27.6077 7.30509 27.2666 6.43378C26.9255 5.56247 26.4255 4.77083 25.7952 4.10409V4.10409Z" stroke="#B30000" stroke-width="3" stroke-linecap="round" stroke-linejoin="round" shape-rendering="crispEdges"/>
</g>
</g>
<defs>
<filter id="filter0_di_7_17" x="-3.5" y="-3.5" width="36.7833" height="34.8" filterUnits="userSpaceOnUse" color-interpolation-filters="sRGB">
<feFlood flood-opacity="0" result="BackgroundImageFix"/>
<feColorMatrix in="SourceAlpha" type="matrix" values="0 0 0 0 0 0 0 0 0 0 0 0 0 0 0 0 0 0 127 0" result="hardAlpha"/>
<feOffset/>
<feGaussianBlur stdDeviation="2"/>
<feComposite in2="hardAlpha" operator="out"/>
<feColorMatrix type="matrix" values="0 0 0 0 1 0 0 0 0 1 0 0 0 0 1 0 0 0 0.25 0"/>
<feBlend mode="normal" in2="BackgroundImageFix" result="effect1_dropShadow_7_17"/>
<feBlend mode="normal" in="SourceGraphic" in2="effect1_dropShadow_7_17" result="shape"/>
<feColorMatrix in="SourceAlpha" type="matrix" values="0 0 0 0 0 0 0 0 0 0 0 0 0 0 0 0 0 0 127 0" result="hardAlpha"/>
<feOffset dx="-4" dy="2"/>
<feGaussianBlur stdDeviation="5"/>
<feComposite in2="hardAlpha" operator="arithmetic" k2="-1" k3="1"/>
<feColorMatrix type="matrix" values="0 0 0 0 0 0 0 0 0 0 0 0 0 0 0 0 0 0 0.25 0"/>
<feBlend mode="normal" in2="shape" result="effect2_innerShadow_7_17"/>
</filter>
<clipPath id="clip0_7_17">
<rect width="29.7833" height="27.8" fill="white"/>
</clipPath>
</defs>
</svg>
