<svg width="18" height="19" viewBox="0 0 18 19" fill="none" xmlns="http://www.w3.org/2000/svg">
<g clip-path="url(#clip0_3_14)">
<path d="M11.5 9.5H0.666687M0.666687 9.5L3.58335 7M0.666687 9.5L3.58335 12" stroke="url(#paint0_linear_3_14)" stroke-linecap="round" stroke-linejoin="round"/>
<path d="M6.50165 5.33334C6.51174 3.52081 6.59211 2.53922 7.23243 1.89891C7.96469 1.16667 9.14319 1.16667 11.5002 1.16667H12.3335C14.6905 1.16667 15.8691 1.16667 16.6013 1.89891C17.3335 2.63114 17.3335 3.80965 17.3335 6.16667V12.8333C17.3335 15.1903 17.3335 16.3688 16.6013 17.1011C15.9609 17.7414 14.9794 17.8218 13.1667 17.8319M6.50165 13.6667C6.51174 15.4792 6.59211 16.4608 7.23243 17.1011C7.76686 17.6355 8.53894 17.7799 9.83336 17.8189" stroke="url(#paint1_linear_3_14)" stroke-linecap="round"/>
</g>
<defs>
<linearGradient id="paint0_linear_3_14" x1="6.08335" y1="7" x2="6.08335" y2="12" gradientUnits="userSpaceOnUse">
<stop stop-color="#F10027"/>
<stop offset="1" stop-color="#B51B09"/>
</linearGradient>
<linearGradient id="paint1_linear_3_14" x1="11.9176" y1="1.16667" x2="11.9176" y2="17.8319" gradientUnits="userSpaceOnUse">
<stop stop-color="#F10027"/>
<stop offset="1" stop-color="#B51B09"/>
</linearGradient>
<clipPath id="clip0_3_14">
<rect width="18" height="19" fill="white"/>
</clipPath>
</defs>
</svg>
