<svg width="36" height="38" viewBox="0 0 36 38" fill="none" xmlns="http://www.w3.org/2000/svg">
<path opacity="0.5" d="M8 13.5863C8 7.73964 12.701 3 18.5 3C24.299 3 29 7.73964 29 13.5863C29 19.3872 25.6487 26.1561 20.4201 28.5769C19.2012 29.1411 17.7988 29.1411 16.5799 28.5769C11.3512 26.1561 8 19.3872 8 13.5863Z" stroke="#E60023" stroke-width="3.75"/>
<path d="M21 15.5C21 17.1569 19.6569 18.5 18 18.5C16.3431 18.5 15 17.1569 15 15.5C15 13.8431 16.3431 12.5 18 12.5C19.6569 12.5 21 13.8431 21 15.5Z" stroke="#E60023" stroke-width="3.75"/>
<path d="M31.4408 25.25C32.4389 26.1538 33 27.1724 33 28.25C33 31.978 26.2842 35 18 35C9.71573 35 3 31.978 3 28.25C3 27.1724 3.56118 26.1538 4.55921 25.25" stroke="#E60023" stroke-width="3.75" stroke-linecap="round"/>
</svg>
