<svg width="21" height="21" viewBox="0 0 21 21" fill="none" xmlns="http://www.w3.org/2000/svg">
<path d="M10.5003 20.8337C7.6156 20.8337 5.1722 19.8326 3.17012 17.8305C1.16803 15.8284 0.166992 13.385 0.166992 10.5003C0.166992 7.6156 1.16803 5.1722 3.17012 3.17012C5.1722 1.16803 7.6156 0.166992 10.5003 0.166992C11.9857 0.166992 13.4066 0.473978 14.7628 1.08795C16.1191 1.70106 17.2816 2.5781 18.2503 3.71907V0.166992H20.8337V9.20866H11.792V6.62532H17.217C16.5281 5.41977 15.5865 4.47255 14.3921 3.78366C13.1969 3.09477 11.8996 2.75032 10.5003 2.75032C8.34755 2.75032 6.51769 3.5038 5.01074 5.01074C3.5038 6.51769 2.75032 8.34755 2.75032 10.5003C2.75032 12.6531 3.5038 14.483 5.01074 15.9899C6.51769 17.4968 8.34755 18.2503 10.5003 18.2503C12.158 18.2503 13.6541 17.7767 14.9889 16.8295C16.3236 15.8823 17.26 14.6337 17.7982 13.0837H20.5107C19.908 15.3656 18.6809 17.2278 16.8295 18.6701C14.9781 20.1125 12.8684 20.8337 10.5003 20.8337Z" fill="white"/>
</svg>
