<svg width="261" height="187" viewBox="0 0 261 187" fill="none" xmlns="http://www.w3.org/2000/svg">
<g clip-path="url(#clip0_482_5226)">
<path d="M168.831 70.3566V89.8415C168.86 91.5129 169.552 93.1058 170.758 94.275C171.964 95.4443 173.586 96.0957 175.273 96.0882H245.78C246.626 96.0882 247.464 95.9231 248.245 95.6024C249.027 95.2816 249.737 94.8114 250.335 94.2187C250.934 93.6259 251.408 92.9222 251.732 92.1478C252.056 91.3733 252.222 90.5432 252.222 89.705V73.2411L261 64.1023L175.293 63.8369C174.435 63.8382 173.585 64.0086 172.794 64.3381C172.003 64.6677 171.286 65.1498 170.685 65.7565C170.083 66.3632 169.61 67.0823 169.292 67.8721C168.973 68.6618 168.817 69.5063 168.831 70.3566Z" fill="#F5F5F5"/>
<path d="M241.829 75.6418L177.848 75.3488L177.854 73.4003L241.835 73.6932L241.829 75.6418Z" fill="#E0E0E0"/>
<path d="M241.829 82.0527L177.848 81.7597L177.854 79.8112L241.835 80.1041L241.829 82.0527Z" fill="#E0E0E0"/>
<path d="M216.522 86.2291L216.513 88.1777L241.828 88.3011L241.838 86.3525L216.522 86.2291Z" fill="#E0E0E0"/>
<path d="M48.6658 169.672C58.525 162.847 60.7619 150.177 60.3718 138.789C60.3069 136.888 60.5176 134.884 59.6051 133.216C58.692 131.549 56.563 130.409 54.8453 131.209C53.4206 131.874 52.7998 133.516 52.0027 134.874C50.938 136.686 49.3783 138.162 47.5035 139.133C46.2819 139.761 44.7705 140.145 43.5645 139.486C41.9097 138.581 41.7147 136.316 41.7265 134.425C41.7489 130.901 41.7712 127.377 41.7931 123.853C41.8051 121.963 41.8107 120.032 41.2173 118.238C40.624 116.444 39.3126 114.777 37.4977 114.273C35.6822 113.769 33.4379 114.806 33.0546 116.657C32.895 117.427 33.0533 118.226 33.0003 119.011C32.9474 119.796 32.5783 120.664 31.8261 120.883C31.0645 121.105 30.301 120.568 29.7307 120.015C27.7612 118.106 26.425 115.647 25.176 113.201C23.927 110.756 22.7148 108.252 20.9279 106.17C19.141 104.088 16.6693 102.438 13.9368 102.284C11.2039 102.131 8.29272 103.802 7.60215 106.46C6.9097 109.126 8.47902 111.83 10.1868 113.988C12.7199 117.189 15.7067 120.01 19.0544 122.364C19.6559 122.787 20.3078 123.244 20.5377 123.944C20.9522 125.205 19.7469 126.457 18.491 126.871C17.0688 127.34 15.5255 127.194 14.0379 127.367C12.5502 127.541 10.9384 128.191 10.3756 129.585C9.5941 131.517 11.2251 133.543 12.83 134.869C16.045 137.527 19.6976 139.616 23.6278 141.046C25.0314 141.555 26.5085 142.001 27.6404 142.978C28.7722 143.956 29.4553 145.655 28.7716 146.986C28.0872 148.32 26.3321 148.746 24.8619 148.475C23.3922 148.206 22.076 147.414 20.6749 146.891C18.0528 145.91 14.6667 146.089 12.9871 148.335C11.8833 149.811 11.786 151.866 12.3444 153.625C12.9023 155.385 14.0347 156.9 15.237 158.298C19.4396 163.184 24.8195 167.117 30.9025 169.207C36.9847 171.297 42.6208 171.863 48.6658 169.672Z" fill="#F5F5F5"/>
<path d="M48.8167 178.115C48.2827 172.834 47.2387 167.616 45.6992 162.533C43.7914 156.329 41.5254 150.239 38.9126 144.293C38.2283 142.71 37.5527 141.146 36.8858 139.603C36.217 138.065 35.5539 136.539 34.8123 135.087C33.3831 132.302 31.7992 129.597 30.068 126.985C28.4332 124.48 26.7897 122.162 25.2372 120.006C23.6791 117.853 22.1889 115.872 20.7529 114.125C18.5008 111.355 16.0302 108.768 13.3643 106.386C12.4232 105.543 11.6715 104.914 11.156 104.493C10.908 104.294 10.7136 104.137 10.5671 104.019C10.5024 103.962 10.4328 103.911 10.3589 103.867C10.4146 103.933 10.4766 103.993 10.544 104.047C10.6849 104.171 10.8725 104.337 11.1105 104.547C11.6104 104.985 12.3471 105.631 13.2732 106.488C15.8956 108.902 18.3316 111.507 20.561 114.282C21.9808 116.035 23.456 118.019 25.001 120.177C26.5423 122.339 28.1746 124.659 29.7982 127.162C31.5145 129.769 33.086 132.467 34.5056 135.243C35.2411 136.688 35.8968 138.201 36.5661 139.743C37.2317 141.284 37.9065 142.847 38.5904 144.431C41.1974 150.366 43.4675 156.44 45.3901 162.626C46.9379 167.687 48.0026 172.881 48.57 178.139" fill="#E0E0E0"/>
<path d="M34.7115 135.074C34.8028 134.812 34.8653 134.542 34.8979 134.267C34.9982 133.745 35.1179 132.984 35.2519 132.043C35.5217 130.16 35.8047 127.548 36.1058 124.667C36.4068 121.784 36.7265 119.183 37.0244 117.31C37.1709 116.373 37.2968 115.616 37.3909 115.093C37.4566 114.825 37.4923 114.549 37.4974 114.273C37.3884 114.527 37.3079 114.793 37.2575 115.065C37.1222 115.58 36.9583 116.333 36.7808 117.267C36.4187 119.137 36.0584 121.744 35.7574 124.629C35.4675 127.473 35.2058 130.046 35.0057 132.012C34.9098 132.899 34.8281 133.647 34.7626 134.247C34.7151 134.52 34.698 134.797 34.7115 135.074Z" fill="#E0E0E0"/>
<path d="M10.1807 130.531C10.5025 130.599 10.8301 130.638 11.1592 130.647C11.7886 130.702 12.6999 130.778 13.8223 130.907C16.0691 131.147 19.1611 131.587 22.551 132.22C25.9408 132.859 28.9835 133.567 31.1693 134.142C32.265 134.422 33.145 134.672 33.7546 134.841C34.0656 134.948 34.3861 135.026 34.7119 135.074C34.4185 134.924 34.1115 134.802 33.795 134.71C33.1967 134.501 32.3249 134.213 31.2348 133.901C29.0596 133.264 26.015 132.515 22.6152 131.873C19.7149 131.321 16.788 130.915 13.846 130.659C12.7167 130.562 11.7998 130.523 11.166 130.51C10.8377 130.486 10.5077 130.493 10.1807 130.531Z" fill="#E0E0E0"/>
<path d="M45.3975 162.086C45.467 161.995 45.5236 161.895 45.5657 161.789C45.6791 161.552 45.8175 161.261 45.9852 160.91C46.346 160.145 46.8391 159.024 47.4298 157.631C48.6133 154.846 50.126 150.949 51.7365 146.626C53.3483 142.301 54.8222 138.395 55.9453 135.589C56.4957 134.226 56.9488 133.104 57.2853 132.271C57.4293 131.909 57.5478 131.61 57.645 131.365C57.6943 131.262 57.7291 131.152 57.7484 131.04C57.6792 131.131 57.6226 131.231 57.5801 131.337C57.4667 131.574 57.3284 131.864 57.1607 132.216C56.7998 132.981 56.3068 134.102 55.716 135.494C54.5324 138.279 53.0198 142.177 51.4087 146.502C49.7976 150.825 48.3236 154.731 47.2005 157.537C46.6496 158.9 46.1971 160.022 45.8605 160.855C45.7165 161.217 45.5981 161.516 45.5009 161.76C45.4517 161.864 45.4169 161.973 45.3975 162.086Z" fill="#E0E0E0"/>
<path d="M12.7993 151.675C12.9007 151.733 13.0095 151.778 13.1228 151.807C13.3777 151.892 13.6906 151.996 14.0696 152.122C14.944 152.403 16.1244 152.782 17.5604 153.243C20.5077 154.19 24.5632 155.544 29.0425 157.047C33.5232 158.551 37.5954 159.869 40.5634 160.756C42.0473 161.2 43.2515 161.547 44.0885 161.77C44.4756 161.871 44.7946 161.954 45.054 162.022C45.1649 162.058 45.2805 162.08 45.3974 162.086C45.2959 162.028 45.1871 161.983 45.0739 161.953C44.8196 161.869 44.5067 161.765 44.1271 161.639C43.2527 161.358 42.0729 160.98 40.637 160.518C37.6895 159.572 33.6334 158.217 29.1529 156.713C24.6735 155.21 20.6019 153.892 17.6339 153.005C16.15 152.561 14.9458 152.214 14.1082 151.991C13.7211 151.89 13.4026 151.807 13.1427 151.739C13.0318 151.702 12.9162 151.681 12.7993 151.675Z" fill="#E0E0E0"/>
<path d="M71.4154 50.1982V65.2957C71.4154 65.9452 71.2863 66.5883 71.0355 67.1884C70.7846 67.7885 70.417 68.3337 69.9535 68.793C69.49 69.2523 68.9397 69.6166 68.3342 69.8652C67.7286 70.1137 67.0795 70.2416 66.424 70.2416H11.793C11.1375 70.2417 10.4885 70.1137 9.88286 69.8652C9.27726 69.6166 8.727 69.2523 8.26348 68.793C7.79997 68.3338 7.43228 67.7885 7.18142 67.1884C6.93056 66.5884 6.80144 65.9452 6.80142 65.2957V52.5393L0 45.4582L66.4084 45.2525C67.0652 45.2504 67.7159 45.3768 68.3233 45.6245C68.9307 45.8721 69.4828 46.236 69.9479 46.6955C70.413 47.155 70.7821 47.7009 71.0339 48.3019C71.2857 48.903 71.4154 49.5474 71.4154 50.1982Z" fill="#E0E0E0"/>
<path d="M14.8545 54.3993L64.4287 54.1722L64.4238 52.6624L14.8496 52.8895L14.8545 54.3993Z" fill="#FAFAFA"/>
<path d="M14.8545 59.3666L64.4287 59.1394L64.4238 57.6296L14.8496 57.8567L14.8545 59.3666Z" fill="#FAFAFA"/>
<path d="M34.4627 62.6027L14.8477 62.6984L14.8552 64.2081L34.4702 64.1125L34.4627 62.6027Z" fill="#FAFAFA"/>
<path d="M44.645 181.897L44.645 78.0586C44.645 76.7052 45.1876 75.4073 46.1533 74.4503C47.1191 73.4933 48.429 72.9557 49.7947 72.9557L204.66 72.9557C206.026 72.9557 207.336 73.4933 208.301 74.4503C209.267 75.4073 209.81 76.7052 209.81 78.0586V181.897C209.81 183.25 209.267 184.548 208.301 185.505C207.336 186.462 206.026 187 204.66 187H49.7952C49.1188 187 48.4491 186.868 47.8243 186.612C47.1994 186.355 46.6317 185.979 46.1535 185.505C45.6752 185.031 45.2959 184.469 45.037 183.85C44.7782 183.23 44.645 182.567 44.645 181.897Z" fill="#5A504E"/>
<path d="M55.9448 76.5521L55.9448 183.404H193.877V76.5521L55.9448 76.5521Z" fill="white"/>
<path d="M205.809 130.979C206.367 128.626 204.894 126.271 202.52 125.718C200.146 125.165 197.769 126.624 197.211 128.977C196.653 131.329 198.125 133.685 200.5 134.238C202.874 134.791 205.251 133.332 205.809 130.979Z" fill="#455A64"/>
<path d="M49.4019 113.341V146.615C49.4019 146.912 49.6445 147.152 49.9438 147.152H50.6844C50.9837 147.152 51.2263 146.912 51.2263 146.615V113.341C51.2263 113.044 50.9837 112.804 50.6844 112.804H49.9438C49.6445 112.804 49.4019 113.044 49.4019 113.341Z" fill="#455A64"/>
<path d="M95.0699 139.26C98.4536 134.166 97.0293 127.319 91.8887 123.966C86.748 120.613 79.8376 122.024 76.4539 127.118C73.0702 132.212 74.4945 139.06 79.6352 142.413C84.7759 145.766 91.6862 144.354 95.0699 139.26Z" fill="#F10027"/>
<path opacity="0.3" d="M95.0699 139.26C98.4536 134.166 97.0293 127.319 91.8887 123.966C86.748 120.613 79.8376 122.024 76.4539 127.118C73.0702 132.212 74.4945 139.06 79.6352 142.413C84.7759 145.766 91.6862 144.354 95.0699 139.26Z" fill="white"/>
<path d="M81.9174 130.407C82.3396 130.373 82.7227 130.834 82.7731 131.438C82.8231 132.042 82.5217 132.56 82.0995 132.595C81.6769 132.629 81.2939 132.167 81.2438 131.563C81.1934 130.959 81.4951 130.442 81.9174 130.407Z" fill="#5A504E"/>
<path d="M89.0024 130.263C88.579 130.245 88.2157 130.722 88.1903 131.328C88.1653 131.933 88.4882 132.438 88.9117 132.455C89.3351 132.473 89.6987 131.995 89.7238 131.39C89.7488 130.785 89.4258 130.279 89.0024 130.263Z" fill="#5A504E"/>
<path d="M90.2173 135.376C90.2173 135.506 88.1401 135.612 85.5783 135.612C83.0157 135.612 80.939 135.506 80.939 135.376C80.939 135.246 83.0157 135.141 85.5783 135.141C88.1401 135.141 90.2173 135.246 90.2173 135.376Z" fill="#5A504E"/>
<path d="M82.7692 129.138C82.7419 129.27 82.2135 129.265 81.5936 129.365C80.9721 129.457 80.4706 129.622 80.4041 129.505C80.3358 129.398 80.8019 129.009 81.5202 128.9C82.2376 128.787 82.8015 129.017 82.7692 129.138Z" fill="#5A504E"/>
<path d="M91.0134 129.674C90.9293 129.779 90.4481 129.529 89.8293 129.346C89.2131 129.154 88.6734 129.093 88.6634 128.959C88.6465 128.834 89.2541 128.676 89.9688 128.896C90.6846 129.111 91.098 129.58 91.0134 129.674Z" fill="#5A504E"/>
<path d="M177.838 134.073C178.842 127.831 174.548 121.964 168.248 120.97C161.949 119.976 156.028 124.231 155.025 130.473C154.022 136.716 158.315 142.582 164.615 143.576C170.915 144.57 176.835 140.316 177.838 134.073Z" fill="#F10027"/>
<path opacity="0.3" d="M177.838 134.073C178.842 127.831 174.548 121.964 168.248 120.97C161.949 119.976 156.028 124.231 155.025 130.473C154.022 136.716 158.315 142.582 164.615 143.576C170.915 144.57 176.835 140.316 177.838 134.073Z" fill="black"/>
<path d="M162.447 129.39C162.885 129.354 163.282 129.832 163.334 130.458C163.386 131.085 163.073 131.621 162.636 131.657C162.198 131.693 161.801 131.214 161.749 130.588C161.697 129.962 162.009 129.425 162.447 129.39Z" fill="#5A504E"/>
<path d="M169.79 129.24C169.352 129.222 168.975 129.716 168.949 130.344C168.923 130.971 169.257 131.495 169.696 131.513C170.135 131.53 170.512 131.036 170.538 130.408C170.564 129.781 170.229 129.257 169.79 129.24Z" fill="#5A504E"/>
<path d="M171.05 134.54C171.002 134.602 170.523 134.265 169.697 133.845C168.636 133.296 167.456 133.007 166.259 133.003C165.059 133.056 163.885 133.358 162.811 133.89C161.974 134.293 161.477 134.602 161.433 134.54C161.401 134.497 161.83 134.089 162.653 133.596C163.742 132.945 164.98 132.579 166.251 132.532C167.528 132.528 168.78 132.882 169.861 133.554C170.676 134.067 171.083 134.5 171.05 134.54Z" fill="#5A504E"/>
<path d="M163.33 128.075C163.369 128.123 163.293 128.266 163.102 128.433C162.843 128.649 162.531 128.794 162.198 128.852C161.86 128.915 161.512 128.876 161.196 128.742C160.961 128.634 160.852 128.51 160.878 128.454C160.939 128.329 161.482 128.509 162.115 128.389C162.75 128.277 163.242 127.965 163.33 128.075Z" fill="#5A504E"/>
<path d="M171.875 128.629C171.894 128.687 171.768 128.799 171.512 128.879C171.171 128.973 170.808 128.96 170.474 128.842C170.147 128.73 169.855 128.536 169.625 128.279C169.455 128.085 169.394 127.933 169.439 127.889C169.54 127.786 170.004 128.18 170.629 128.397C171.251 128.622 171.83 128.497 171.875 128.629Z" fill="#5A504E"/>
<path d="M144.298 164.042L146.974 162.728L149.583 164.167L149.149 161.239L151.337 159.224L148.392 158.729L147.134 156.045L145.749 158.667L142.784 159.022L144.873 161.138L144.298 164.042Z" fill="#E0E0E0"/>
<path d="M133.382 164.042L136.057 162.728L138.667 164.167L138.233 161.239L140.42 159.224L137.476 158.729L136.218 156.045L134.833 158.667L131.868 159.022L133.957 161.138L133.382 164.042Z" fill="#F10027"/>
<path d="M122.466 164.042L125.142 162.728L127.752 164.167L127.317 161.239L129.505 159.224L126.56 158.729L125.302 156.045L123.917 158.667L120.953 159.022L123.041 161.138L122.466 164.042Z" fill="#F10027"/>
<path d="M111.55 164.042L114.226 162.728L116.835 164.167L116.401 161.239L118.589 159.224L115.644 158.729L114.386 156.045L113.001 158.667L110.037 159.022L112.125 161.138L111.55 164.042Z" fill="#F10027"/>
<path d="M100.634 164.042L103.31 162.728L105.919 164.167L105.485 161.239L107.673 159.224L104.728 158.729L103.47 156.045L102.085 158.667L99.1201 159.022L101.209 161.138L100.634 164.042Z" fill="#F10027"/>
<path d="M151.459 98.9348C151.459 98.9998 139.484 99.0525 124.714 99.0525C109.94 99.0525 97.9673 98.9998 97.9673 98.9348C97.9673 98.8697 109.94 98.817 124.714 98.817C139.484 98.817 151.459 98.8697 151.459 98.9348Z" fill="#5A504E"/>
<path d="M138.31 95.7512C138.31 95.8162 132.395 95.869 125.1 95.869C117.802 95.869 111.889 95.8162 111.889 95.7512C111.889 95.6862 117.802 95.6334 125.1 95.6334C132.395 95.6334 138.31 95.6862 138.31 95.7512Z" fill="#5A504E"/>
<path d="M141.478 134.26C144.055 126.334 139.66 117.839 131.661 115.286C123.663 112.733 115.09 117.088 112.513 125.014C109.937 132.94 114.332 141.435 122.331 143.988C130.329 146.541 138.902 142.186 141.478 134.26Z" fill="#F10027"/>
<path d="M121.747 125.838C122.323 125.791 122.846 126.422 122.915 127.247C122.983 128.071 122.572 128.778 121.995 128.825C121.418 128.872 120.895 128.242 120.827 127.417C120.758 126.592 121.17 125.885 121.747 125.838Z" fill="#5A504E"/>
<path d="M131.42 125.641C130.842 125.618 130.346 126.269 130.311 127.095C130.277 127.922 130.718 128.612 131.296 128.635C131.874 128.659 132.371 128.007 132.405 127.18C132.439 126.354 131.998 125.664 131.42 125.641Z" fill="#5A504E"/>
<path d="M133.08 130.589C133.103 130.612 132.98 130.768 132.734 131.031C132.385 131.403 132.004 131.744 131.594 132.049C130.978 132.506 130.301 132.874 129.581 133.142C128.69 133.469 127.742 133.616 126.792 133.575C125.848 133.524 124.92 133.312 124.048 132.948C123.342 132.664 122.666 132.313 122.028 131.899C120.951 131.185 120.379 130.629 120.411 130.589C120.459 130.527 121.104 130.987 122.202 131.615C122.845 131.975 123.515 132.286 124.206 132.543C125.04 132.866 125.921 133.055 126.815 133.104C127.704 133.142 128.592 133.016 129.435 132.733C130.128 132.495 130.788 132.173 131.402 131.776C131.92 131.423 132.338 131.125 132.609 130.896C132.889 130.678 133.056 130.566 133.08 130.589Z" fill="#5A504E"/>
<path d="M122.434 122.447C122.408 122.58 121.68 122.532 120.815 122.671C119.949 122.8 119.271 123.065 119.205 122.947C119.136 122.842 119.779 122.352 120.742 122.206C121.704 122.054 122.467 122.326 122.434 122.447Z" fill="#5A504E"/>
<path d="M134.684 123.151C134.6 123.259 133.955 122.878 133.092 122.621C132.233 122.354 131.484 122.311 131.475 122.175C131.457 122.052 132.274 121.876 133.232 122.171C134.191 122.46 134.768 123.06 134.684 123.151Z" fill="#5A504E"/>
<path d="M120.659 129.505C120.718 129.494 120.815 129.65 120.83 129.935C120.833 130.308 120.718 130.673 120.5 130.977C120.282 131.281 119.973 131.51 119.616 131.63C119.339 131.71 119.159 131.671 119.15 131.612C119.127 131.481 119.711 131.287 120.112 130.704C120.535 130.137 120.527 129.527 120.659 129.505Z" fill="#5A504E"/>
<path d="M134.365 130.891C134.377 130.95 134.252 131.041 134.014 131.062C133.703 131.072 133.398 130.977 133.148 130.793C132.898 130.609 132.718 130.347 132.637 130.049C132.588 129.818 132.64 129.673 132.701 129.666C132.834 129.656 132.984 130.102 133.431 130.415C133.863 130.748 134.337 130.761 134.365 130.891Z" fill="#5A504E"/>
<path d="M145.601 129.505C145.601 129.505 145.587 129.402 145.573 129.202L145.516 128.313C145.504 128.117 145.491 127.898 145.477 127.658C145.452 127.418 145.4 127.158 145.358 126.876C145.312 126.593 145.264 126.289 145.212 125.964C145.147 125.62 145.065 125.279 144.965 124.943C144.525 123.191 143.819 121.516 142.872 119.974C141.634 117.922 140.008 116.126 138.084 114.683C137.816 114.485 137.545 114.285 137.271 114.082C136.985 113.897 136.684 113.727 136.386 113.545C136.082 113.374 135.795 113.166 135.469 113.019C135.146 112.866 134.821 112.712 134.492 112.555C134.327 112.478 134.162 112.4 133.995 112.322C133.822 112.26 133.648 112.197 133.474 112.134C133.124 112.008 132.771 111.88 132.415 111.752C132.056 111.634 131.679 111.558 131.307 111.458C130.934 111.35 130.553 111.265 130.169 111.203C129.384 111.058 128.59 110.967 127.792 110.93C127.387 110.916 126.978 110.877 126.567 110.884C126.155 110.905 125.74 110.926 125.323 110.947C125.114 110.962 124.903 110.96 124.695 110.988L124.068 111.083C123.649 111.152 123.224 111.2 122.803 111.287C121.953 111.475 121.116 111.718 120.298 112.015C119.457 112.315 118.638 112.672 117.847 113.083C117.45 113.296 117.07 113.544 116.677 113.775C116.485 113.897 116.279 114.001 116.096 114.139L115.543 114.549C114.794 115.1 114.082 115.7 113.412 116.344C113.095 116.69 112.777 117.037 112.457 117.386L112.217 117.648L112.001 117.931L111.571 118.502L111.139 119.075L110.761 119.687L110.383 120.304L110.193 120.613L110.033 120.938C109.821 121.374 109.609 121.812 109.395 122.251C109.226 122.709 109.056 123.168 108.885 123.63C107.593 127.441 107.593 131.565 108.884 135.377C109.055 135.838 109.224 136.298 109.394 136.756C109.607 137.195 109.82 137.633 110.032 138.069L110.192 138.395L110.382 138.704L110.759 139.32L111.138 139.933L111.57 140.506L112 141.077L112.216 141.36L112.456 141.622C112.776 141.971 113.094 142.318 113.411 142.664C114.081 143.309 114.793 143.909 115.542 144.46L116.096 144.87C116.279 145.008 116.484 145.112 116.676 145.234C117.069 145.465 117.45 145.713 117.847 145.927C118.638 146.338 119.457 146.694 120.298 146.994C121.116 147.291 121.953 147.535 122.804 147.723C123.224 147.809 123.65 147.858 124.068 147.927L124.695 148.022C124.904 148.049 125.115 148.048 125.323 148.063C125.741 148.084 126.156 148.105 126.567 148.126C126.979 148.132 127.387 148.093 127.793 148.079C128.591 148.042 129.385 147.951 130.17 147.807C130.555 147.745 130.935 147.659 131.308 147.551C131.681 147.451 132.057 147.375 132.416 147.257C132.772 147.129 133.125 147.002 133.475 146.875C133.65 146.812 133.823 146.75 133.997 146.687C134.163 146.609 134.328 146.531 134.493 146.454C134.822 146.297 135.148 146.143 135.47 145.99C135.796 145.843 136.084 145.635 136.387 145.464C136.685 145.282 136.986 145.112 137.272 144.926C137.546 144.724 137.817 144.524 138.085 144.326C140.009 142.883 141.635 141.087 142.873 139.035C143.819 137.493 144.525 135.818 144.965 134.066C145.065 133.73 145.147 133.389 145.212 133.045C145.264 132.72 145.312 132.417 145.358 132.134C145.4 131.851 145.452 131.591 145.477 131.351C145.491 131.111 145.504 130.893 145.516 130.697C145.541 130.312 145.56 130.016 145.573 129.808C145.587 129.608 145.601 129.505 145.601 129.505C145.601 129.505 145.604 129.608 145.598 129.808C145.59 130.017 145.579 130.314 145.564 130.7C145.556 130.897 145.546 131.116 145.536 131.357C145.514 131.598 145.466 131.859 145.428 132.143C145.385 132.428 145.34 132.733 145.292 133.06C145.231 133.407 145.152 133.75 145.055 134.089C144.628 135.855 143.931 137.546 142.987 139.102C141.751 141.178 140.121 142.997 138.187 144.458C137.918 144.659 137.645 144.862 137.369 145.067C137.081 145.256 136.778 145.429 136.478 145.613C136.172 145.787 135.882 145.998 135.554 146.147C135.229 146.303 134.901 146.46 134.569 146.619C134.403 146.698 134.236 146.777 134.068 146.856C133.894 146.92 133.718 146.984 133.542 147.048C133.19 147.177 132.834 147.306 132.474 147.437C132.111 147.558 131.732 147.635 131.356 147.738C130.978 147.848 130.595 147.935 130.207 147.999C129.413 148.147 128.611 148.241 127.805 148.28C127.395 148.296 126.982 148.336 126.566 148.331C126.15 148.31 125.731 148.29 125.308 148.269C125.097 148.255 124.884 148.256 124.673 148.229L124.039 148.134C123.616 148.066 123.185 148.017 122.76 147.931C121.899 147.742 121.051 147.497 120.223 147.198C119.372 146.896 118.543 146.536 117.741 146.122C117.339 145.907 116.954 145.656 116.556 145.423C116.361 145.299 116.153 145.194 115.968 145.055L115.407 144.641C114.648 144.084 113.926 143.477 113.248 142.826C112.927 142.476 112.604 142.125 112.28 141.771L112.037 141.506L111.818 141.22L111.382 140.643L110.944 140.063L110.561 139.443L110.178 138.819L109.986 138.506L109.823 138.176C109.609 137.735 109.393 137.292 109.177 136.847C109.005 136.383 108.833 135.918 108.66 135.45C107.351 131.592 107.351 127.414 108.661 123.556L109.178 122.16C109.394 121.715 109.61 121.272 109.824 120.831L109.987 120.502L110.179 120.189L110.562 119.565L110.946 118.945L111.383 118.365L111.819 117.788L112.038 117.502L112.281 117.237C112.605 116.884 112.928 116.533 113.249 116.183C113.927 115.531 114.649 114.925 115.408 114.369L115.968 113.954C116.154 113.815 116.362 113.71 116.556 113.587C116.954 113.353 117.34 113.103 117.742 112.888C118.543 112.473 119.372 112.113 120.223 111.811C121.051 111.512 121.898 111.268 122.759 111.079C123.185 110.992 123.615 110.944 124.038 110.875L124.672 110.78C124.883 110.753 125.097 110.755 125.307 110.741C125.73 110.72 126.149 110.7 126.565 110.679C126.981 110.674 127.394 110.714 127.804 110.729C128.61 110.768 129.412 110.863 130.205 111.011C130.593 111.074 130.977 111.162 131.355 111.272C131.73 111.374 132.11 111.452 132.473 111.572C132.832 111.703 133.188 111.833 133.541 111.961C133.717 112.025 133.893 112.089 134.067 112.153C134.235 112.232 134.402 112.311 134.568 112.39C134.9 112.549 135.228 112.706 135.552 112.862C135.881 113.011 136.171 113.222 136.477 113.396C136.777 113.58 137.08 113.753 137.368 113.942C137.644 114.147 137.916 114.35 138.186 114.551C140.12 116.012 141.75 117.831 142.986 119.906C143.93 121.463 144.628 123.154 145.054 124.92C145.152 125.259 145.231 125.602 145.292 125.949C145.34 126.276 145.385 126.581 145.427 126.866C145.466 127.15 145.514 127.411 145.536 127.652C145.546 127.893 145.556 128.113 145.564 128.31C145.578 128.696 145.59 128.992 145.598 129.201C145.604 129.402 145.601 129.505 145.601 129.505Z" fill="#F10027"/>
<path d="M193.877 76.5521H55.9448V83.3714H193.877V76.5521Z" fill="#E0E0E0"/>
<path d="M60.3953 79.7734C60.3953 79.956 60.3407 80.1345 60.2383 80.2864C60.1359 80.4382 59.9904 80.5566 59.8201 80.6264C59.6499 80.6963 59.4625 80.7146 59.2818 80.679C59.101 80.6434 58.935 80.5554 58.8047 80.4263C58.6744 80.2972 58.5856 80.1327 58.5496 79.9536C58.5137 79.7745 58.5321 79.5888 58.6027 79.4201C58.6732 79.2514 58.7926 79.1072 58.9458 79.0057C59.0991 78.9043 59.2792 78.8501 59.4635 78.8501C59.7106 78.8501 59.9476 78.9474 60.1224 79.1205C60.2971 79.2937 60.3953 79.5285 60.3953 79.7734Z" fill="white"/>
<path d="M63.4915 79.7734C63.4915 79.956 63.4369 80.1345 63.3345 80.2864C63.2321 80.4382 63.0866 80.5566 62.9163 80.6264C62.7461 80.6963 62.5587 80.7146 62.378 80.679C62.1972 80.6434 62.0312 80.5554 61.9009 80.4263C61.7705 80.2972 61.6818 80.1327 61.6458 79.9536C61.6099 79.7745 61.6283 79.5888 61.6988 79.4201C61.7694 79.2514 61.8888 79.1072 62.042 79.0057C62.1953 78.9043 62.3754 78.8501 62.5597 78.8501C62.8068 78.8501 63.0438 78.9474 63.2186 79.1205C63.3933 79.2937 63.4915 79.5285 63.4915 79.7734Z" fill="white"/>
<path d="M66.5873 79.7734C66.5873 79.956 66.5326 80.1345 66.4302 80.2864C66.3279 80.4382 66.1823 80.5566 66.0121 80.6265C65.8418 80.6964 65.6544 80.7147 65.4737 80.679C65.2929 80.6434 65.1269 80.5555 64.9966 80.4264C64.8662 80.2972 64.7775 80.1327 64.7415 79.9536C64.7056 79.7745 64.724 79.5888 64.7946 79.4201C64.8651 79.2514 64.9845 79.1072 65.1378 79.0057C65.291 78.9043 65.4712 78.8501 65.6554 78.8501C65.9026 78.8501 66.1396 78.9474 66.3143 79.1205C66.4891 79.2937 66.5872 79.5285 66.5873 79.7734Z" fill="white"/>
<path d="M178.68 104.312C178.68 104.377 154.747 104.43 125.231 104.43C95.7048 104.43 71.7769 104.377 71.7769 104.312C71.7769 104.247 95.7048 104.194 125.231 104.194C154.747 104.194 178.68 104.247 178.68 104.312Z" fill="#E0E0E0"/>
<path d="M178.68 106.938C178.68 107.003 154.747 107.055 125.231 107.055C95.7048 107.055 71.7769 107.003 71.7769 106.938C71.7769 106.873 95.7048 106.82 125.231 106.82C154.747 106.82 178.68 106.873 178.68 106.938Z" fill="#E0E0E0"/>
<path d="M108.522 73.6765C108.522 73.6765 107.579 71.5612 107.404 71.0956C106.924 69.8266 103.838 61.3303 104.578 60.0439C108 54.0949 110.651 49.8654 117.4 49.8654L129.317 49.7865C129.317 49.7865 140.611 47.5078 148.569 72.9557L108.522 73.6765Z" fill="#455A64"/>
<path d="M83.38 75.808L98.9844 72.4751L117.331 62.9123L117.4 49.8654C114.647 49.1127 109.381 51.005 99.897 55.7922L85.8097 62.9986C84.6828 63.5751 83.7034 64.3986 82.946 65.4066C82.1887 66.4146 81.6732 67.5804 81.4389 68.8155C81.2047 70.0506 81.2577 71.3223 81.5941 72.534C81.9304 73.7457 82.5412 74.8654 83.38 75.808Z" fill="#455A64"/>
<path d="M118.501 101.063C118.276 100.329 118.429 99.858 119.508 100.217C121.89 101.008 124.016 100.751 124.536 100.293C125.056 99.8349 124.578 98.9588 123.805 99.0337C122.957 99.0319 122.113 98.9162 121.297 98.6897C120.634 98.5337 120.002 98.2691 119.427 97.9068C118.93 97.592 118.501 97.2992 118.12 97.0287C118.12 97.0287 115.925 95.4573 115.237 94.1929L107.707 97.3941L108.919 101.132C109.06 101.789 109.368 102.4 109.814 102.907C110.26 103.414 110.829 103.799 111.467 104.027C113.619 104.722 117.043 104.461 117.043 104.461C117.671 104.053 120.094 107.527 120.827 108.753C121.55 109.964 122.435 110.131 122.718 109.382C122.912 108.871 120.759 105.065 120.006 103.869C119.403 102.991 118.898 102.05 118.501 101.063Z" fill="#B77153"/>
<path d="M113.399 104.471C113.393 104.498 113.213 104.49 112.956 104.365C112.625 104.191 112.352 103.926 112.169 103.602C111.987 103.278 111.902 102.909 111.925 102.539C111.952 102.256 112.04 102.101 112.066 102.109C112.032 102.589 112.14 103.068 112.377 103.487C112.614 103.907 112.969 104.249 113.399 104.471Z" fill="#995037"/>
<path d="M115.781 104.561C115.773 104.588 115.602 104.572 115.361 104.444C115.051 104.266 114.797 104.007 114.626 103.695C114.456 103.383 114.376 103.03 114.396 102.676C114.419 102.406 114.499 102.256 114.526 102.263C114.507 102.723 114.614 103.179 114.835 103.583C115.056 103.987 115.383 104.325 115.781 104.561Z" fill="#995037"/>
<path d="M82.937 75.3018C82.937 75.3018 106.844 102.528 106.816 102.079C106.788 101.63 117.532 93.669 117.532 93.669L94.0919 66.0032L82.937 75.3018Z" fill="#455A64"/>
<path d="M97.437 69.9514C97.4433 69.9461 97.5009 70.0018 97.6048 70.1125C97.725 70.2451 97.8723 70.4076 98.0508 70.6045C98.4537 71.0655 98.9968 71.6868 99.6573 72.4424C101.006 74.001 102.856 76.1645 104.889 78.5636C106.922 80.9634 108.753 83.1443 110.069 84.7307C110.706 85.5065 111.229 86.1443 111.618 86.6174C111.783 86.8259 111.919 86.9978 112.03 87.1382C112.082 87.1962 112.127 87.2608 112.162 87.3304C112.155 87.3357 112.098 87.2801 111.994 87.1695C111.874 87.0369 111.727 86.8746 111.548 86.6777C111.145 86.2169 110.602 85.5956 109.942 84.8401C108.593 83.2815 106.743 81.1175 104.709 78.7174C102.676 76.3181 100.846 74.137 99.5296 72.5506C98.8926 71.775 98.3689 71.1372 97.9804 70.664C97.8154 70.4556 97.6794 70.2837 97.5684 70.1433C97.5161 70.0855 97.4719 70.0209 97.437 69.9514Z" fill="#5A504E"/>
<path d="M139.73 73.089C139.889 72.5196 139.985 71.9346 140.016 71.3445C140.03 70.6361 139.899 69.9323 139.631 69.2757C139.362 68.6191 138.961 68.0235 138.453 67.5251C137.874 66.9208 137.25 66.3998 136.748 65.8516C136.287 65.3732 135.924 64.8115 135.677 64.197C135.51 63.7804 135.443 63.331 135.483 62.8845C135.49 62.7209 135.532 62.5607 135.607 62.4146C135.525 62.998 135.603 63.5924 135.833 64.1356C136.093 64.7184 136.457 65.2497 136.908 65.7038C137.407 66.2315 138.032 66.7447 138.626 67.3634C139.204 67.939 139.644 68.6358 139.914 69.4026C140.127 70.029 140.219 70.6899 140.184 71.3501C140.162 71.7925 140.078 72.2298 139.933 72.6488C139.891 72.8058 139.822 72.9545 139.73 73.089Z" fill="#5A504E"/>
<path d="M107.485 52.1382C107.596 52.0743 107.712 52.0197 107.832 51.9749C108.063 51.8763 108.41 51.7438 108.867 51.6004C109.425 51.4303 109.998 51.3146 110.579 51.2549C111.355 51.1736 112.139 51.246 112.886 51.468C113.794 51.7523 114.608 52.2715 115.246 52.9719C115.962 53.7879 116.45 54.7751 116.663 55.8356C116.931 56.9898 117.008 58.1795 116.89 59.358C116.757 60.6325 116.302 61.8534 115.568 62.9083C114.79 63.923 113.818 64.7767 112.708 65.4213C111.662 66.0746 110.608 66.6091 109.61 67.1305C107.615 68.1678 105.818 69.1028 104.3 69.8923C102.8 70.6627 101.58 71.2898 100.712 71.7358C100.301 71.9412 99.9738 72.1047 99.7306 72.2263C99.6188 72.288 99.502 72.3405 99.3813 72.383C99.4848 72.3078 99.5944 72.2412 99.709 72.184C99.9473 72.0525 100.267 71.8759 100.669 71.6542C101.529 71.1923 102.737 70.5428 104.222 69.745C105.732 68.9432 107.52 67.9937 109.504 66.9403C110.499 66.4144 111.553 65.8739 112.584 65.2262C113.666 64.595 114.614 63.7614 115.374 62.7718C116.085 61.749 116.527 60.5663 116.659 59.3313C116.776 58.1783 116.706 57.014 116.45 55.8833C116.25 54.8561 115.784 53.8979 115.099 53.1025C114.489 52.4212 113.708 51.9119 112.835 51.6267C112.11 51.4019 111.347 51.3202 110.59 51.3861C110.016 51.435 109.448 51.5363 108.893 51.6885C108.435 51.8172 108.085 51.9351 107.849 52.0191C107.731 52.0687 107.609 52.1085 107.485 52.1382Z" fill="#5A504E"/>
<path d="M100.065 72.4468C99.5588 70.1835 98.2471 68.1764 96.3701 66.7925C96.6926 66.92 96.9903 67.1021 97.2499 67.3306C98.574 68.3682 99.5159 69.8094 99.9298 71.4311C100.034 71.7594 100.08 72.103 100.065 72.4468Z" fill="#5A504E"/>
<path d="M135.206 69.4897C135.041 69.5499 134.871 69.5952 134.698 69.6251C134.201 69.7203 133.693 69.7419 133.191 69.6893C132.39 69.6094 131.617 69.3577 130.924 68.9514C130 68.4086 129.269 67.5949 128.832 66.6225C128.29 65.4425 128.188 64.1105 128.544 62.8629C128.742 62.1547 129.189 61.5403 129.805 61.1303C130.141 60.9111 130.549 60.8285 130.944 60.8997C131.345 60.9887 131.699 61.2216 131.938 61.5536C132.378 62.2493 132.654 63.0341 132.747 63.85C132.839 64.6659 132.744 65.4918 132.471 66.2667C132.198 67.0919 131.735 67.8429 131.119 68.4604C130.474 69.0893 129.672 69.5383 128.795 69.762C127.937 69.9992 127.032 70.0186 126.164 69.8184C125.296 69.6182 124.493 69.2048 123.828 68.6163C123.237 68.0399 122.793 67.332 122.534 66.5514C122.275 65.7709 122.208 64.9403 122.338 64.1287C122.455 63.3695 122.768 62.6532 123.247 62.0496C123.482 61.7535 123.788 61.5212 124.137 61.3744C124.49 61.2346 124.883 61.2389 125.232 61.3862C125.549 61.5322 125.823 61.7566 126.027 62.0378C126.231 62.3189 126.359 62.6475 126.398 62.9917C126.448 63.6151 126.323 64.24 126.036 64.7972C125.564 65.7409 124.92 66.5907 124.139 67.3047C123.553 67.8436 122.898 68.3032 122.19 68.6714C121.744 68.9044 121.279 69.0972 120.798 69.2474C120.635 69.3012 120.506 69.3283 120.421 69.3514C120.378 69.3653 120.334 69.3741 120.29 69.3775C120.329 69.3563 120.371 69.3398 120.414 69.3283C120.496 69.2977 120.623 69.2632 120.783 69.2024C121.253 69.0346 121.709 68.83 122.146 68.5907C122.837 68.2128 123.476 67.7483 124.048 67.2088C124.805 66.498 125.427 65.6574 125.884 64.7274C126.151 64.1973 126.266 63.6043 126.216 63.0137C126.178 62.703 126.062 62.407 125.876 62.1537C125.691 61.9004 125.443 61.6983 125.157 61.5665C125.007 61.5041 124.847 61.4716 124.685 61.4708C124.522 61.4701 124.362 61.501 124.212 61.562C123.895 61.6981 123.619 61.9112 123.408 62.1816C122.957 62.7582 122.662 63.4405 122.554 64.1626C122.433 64.9386 122.5 65.7319 122.749 66.4772C122.998 67.2225 123.423 67.8982 123.988 68.4487C124.624 69.0086 125.393 69.4014 126.222 69.591C127.051 69.7807 127.915 69.7611 128.735 69.5342C129.571 69.321 130.336 68.8933 130.953 68.2941C131.543 67.7029 131.987 66.9841 132.25 66.1942C132.503 65.4308 132.593 64.6233 132.513 63.8236C132.476 63.4371 132.394 63.0561 132.267 62.6887C132.159 62.3284 131.989 61.9892 131.765 61.6861C131.559 61.3941 131.251 61.188 130.901 61.1077C130.559 61.0455 130.205 61.1169 129.914 61.3071C129.34 61.6887 128.921 62.2597 128.733 62.9186C128.383 64.1224 128.472 65.4099 128.985 66.5547C129.402 67.5025 130.103 68.3001 130.993 68.8386C131.666 69.245 132.419 69.504 133.201 69.5981C133.871 69.6706 134.548 69.634 135.206 69.4897Z" fill="#FAFAFA"/>
<path d="M137.006 42.9787C136.499 42.3658 136.135 41.649 135.941 40.8799C135.861 40.6317 135.851 40.3665 135.912 40.1131C135.946 39.9876 136.021 39.8767 136.125 39.7975C136.229 39.7184 136.356 39.6754 136.488 39.6753C136.755 39.7003 136.937 39.9475 137.08 40.1727C137.518 40.8221 137.887 41.5148 138.18 42.2399C138.266 42.4381 138.31 42.6518 138.309 42.8676C138.307 42.9755 138.277 43.0811 138.223 43.1747C138.169 43.2682 138.092 43.3466 137.999 43.4025C137.889 43.4489 137.769 43.4651 137.651 43.4494C137.533 43.4336 137.421 43.3866 137.328 43.3132C137.143 43.164 136.988 42.9826 136.87 42.7778" fill="#995037"/>
<path d="M138.153 42.4847C137.76 41.6694 137.367 40.8541 136.973 40.0387C136.84 39.8045 136.757 39.5453 136.73 39.2776C136.707 39.1511 136.727 39.0208 136.787 38.9067C136.846 38.7926 136.942 38.7008 137.059 38.6456C137.176 38.5904 137.308 38.5747 137.435 38.6009C137.562 38.627 137.676 38.6937 137.761 38.7907C137.927 38.958 138.061 39.1537 138.156 39.3683C138.342 39.7257 138.527 40.0831 138.713 40.4405C138.879 40.7256 139.002 41.0326 139.08 41.3524C139.118 41.5127 139.121 41.6791 139.089 41.8407C139.057 42.0023 138.991 42.1553 138.895 42.2897C138.795 42.4207 138.651 42.5131 138.49 42.5511C138.328 42.5891 138.158 42.5703 138.009 42.498" fill="#995037"/>
<path d="M132.913 50.057C132.913 50.057 131.272 47.948 131.124 46.8365C130.977 45.7251 132.352 43.7531 135.3 43.3101C136.375 43.1963 137.41 42.8447 138.33 42.2814C138.511 42.1597 138.644 41.9799 138.707 41.7722C138.77 41.5646 138.759 41.3418 138.675 41.1415C138.288 40.21 137.59 38.482 137.643 38.2503C137.78 37.6539 138.172 37.6658 139.193 39.1431C140.213 40.6203 141.387 42.1205 141.161 42.8009C140.934 43.4814 137.341 45.5889 137.341 45.5889L138.323 47.1581L132.913 50.057Z" fill="#B77153"/>
<path d="M142.661 71.7221L131.348 49.7607L138.632 45.7156L153.935 69.755C153.935 69.755 154.743 71.2907 155.87 73.089H143.042" fill="#455A64"/>
<path d="M138.514 45.7156C138.477 45.7505 138.435 45.7801 138.389 45.8036C138.287 45.865 138.161 45.9406 138.007 46.0332L136.542 46.8788C135.25 47.6079 133.443 48.6282 131.281 49.849L131.322 49.7154C132.422 51.9393 133.852 54.51 135.294 57.3044C137.44 61.438 139.295 65.2236 140.599 67.9809C141.253 69.3589 141.769 70.48 142.121 71.2571C142.286 71.6305 142.418 71.9291 142.518 72.1552C142.569 72.2579 142.61 72.3649 142.642 72.4751C142.577 72.3804 142.521 72.28 142.474 72.1752C142.364 71.9539 142.218 71.6607 142.037 71.2959C141.65 70.5071 141.11 69.4049 140.448 68.0527C139.105 65.3149 137.227 61.5433 135.082 57.4121C133.643 54.6214 132.222 52.0427 131.139 49.806L131.097 49.7181L131.181 49.6723C133.36 48.4817 135.182 47.4867 136.484 46.7757C137.11 46.4414 137.61 46.1744 137.976 45.9789C138.136 45.897 138.267 45.8301 138.373 45.7759C138.417 45.7495 138.465 45.7292 138.514 45.7156Z" fill="#5A504E"/>
<path d="M108.522 73.6765C107.543 72.1023 106.901 70.3453 106.636 68.5148C106.704 68.4995 107.013 69.6908 107.535 71.1117C108.052 72.534 108.585 73.6449 108.522 73.6765Z" fill="#5A504E"/>
<path d="M133.437 41.2974C134.336 41.6471 135.324 41.6998 136.255 41.4475C137.185 41.1953 138.009 40.6516 138.602 39.8976C139.196 39.1435 139.527 38.2196 139.547 37.2636C139.567 36.3077 139.275 35.3708 138.714 34.5929C141.269 33.9523 142.862 31.0324 142.344 28.4721C141.827 25.9118 139.519 23.9129 136.943 23.3601C135.958 23.1237 134.928 23.1496 133.956 23.4354C133.473 23.5814 133.025 23.8252 132.642 24.1513C132.258 24.4774 131.947 24.8787 131.728 25.3299" fill="#5A504E"/>
<path d="M133.08 35.5721C133.088 35.5992 132.746 35.6583 132.208 35.9381C131.45 36.3396 130.849 36.9807 130.501 37.7595C130.245 38.3295 130.137 38.954 130.187 39.576C130.237 40.198 130.443 40.7977 130.787 41.3204C131.192 41.9364 131.772 42.4203 132.453 42.7113C133.184 43.0261 133.998 43.101 134.775 42.9251C135.552 42.7492 136.252 42.3317 136.773 41.7335C137.26 41.1781 137.57 40.4927 137.665 39.7632C137.745 39.1444 137.668 38.5153 137.44 37.9335C137.213 37.3517 136.842 36.8357 136.361 36.4325C135.706 35.8809 134.884 35.562 134.026 35.5264C133.418 35.5063 133.084 35.6 133.08 35.5721C133.156 35.5401 133.237 35.518 133.319 35.5063C133.552 35.4554 133.789 35.4314 134.028 35.4348C134.918 35.436 135.781 35.7434 136.469 36.3046C136.946 36.6898 137.325 37.1817 137.574 37.7398C137.86 38.3835 137.966 39.0916 137.882 39.79C137.788 40.5643 137.463 41.2933 136.949 41.8843C136.398 42.5223 135.654 42.9677 134.828 43.1547C134.002 43.3417 133.137 43.2605 132.361 42.923C131.639 42.6116 131.027 42.0947 130.603 41.438C130.221 40.8453 130.006 40.1618 129.982 39.4589C129.962 38.849 130.087 38.2431 130.348 37.6906C130.722 36.8891 131.364 36.2408 132.166 35.8564C132.379 35.7508 132.604 35.67 132.836 35.6157C132.915 35.5909 132.997 35.5762 133.08 35.5721Z" fill="#F10027"/>
<path d="M135.012 28.6086C135.942 28.5568 136.832 28.2123 137.552 27.6253C138.271 27.0382 138.783 26.239 139.013 25.3439C139.243 24.4488 139.179 23.5043 138.831 22.6477C138.482 21.791 137.867 21.0668 137.075 20.5802C137.458 19.5141 137.493 18.3556 137.175 17.2686C136.858 16.1815 136.203 15.2209 135.305 14.5226C134.406 13.8243 133.308 13.4236 132.167 13.3772C131.026 13.3308 129.899 13.641 128.946 14.264C128.217 12.9985 127.117 11.9833 125.791 11.3539C124.465 10.7244 122.977 10.5107 121.525 10.7412C120.073 10.9717 118.727 11.6355 117.666 12.644C116.605 13.6524 115.879 14.9576 115.586 16.3853C114.28 15.8509 112.841 15.7217 111.459 16.0148C110.077 16.3078 108.818 17.0094 107.847 18.0268C106.876 19.0442 106.239 20.3296 106.021 21.7131C105.802 23.0966 106.013 24.5132 106.624 25.7757C105.195 25.8979 103.874 26.5768 102.951 27.6635C102.027 28.7501 101.577 30.1556 101.698 31.5712C101.82 32.9868 102.503 34.2967 103.599 35.2133C104.694 36.1298 106.112 36.5781 107.541 36.4595C107.25 37.3949 107.26 38.3964 107.569 39.326C107.877 40.2556 108.469 41.0676 109.262 41.65C110.056 42.2325 111.012 42.5567 112 42.578C112.987 42.5994 113.957 42.3168 114.775 41.7693C115.297 42.6042 116.047 43.2749 116.939 43.703C117.831 44.1311 118.827 44.2989 119.811 44.1868C120.796 44.0747 121.728 43.6874 122.499 43.0701C123.269 42.4527 123.847 41.6309 124.163 40.7005" fill="#5A504E"/>
<path d="M129.645 49.3377C129.738 47.1861 129.855 45.2387 129.855 45.2387C129.855 45.2387 134.708 44.6319 134.917 39.7235C135.127 34.8145 134.634 23.5117 134.634 23.5117L125.701 19.2611L116.09 26.9331L117.598 49.4769C117.702 51.0384 118.42 52.4971 119.598 53.5398C120.775 54.5824 122.319 55.126 123.896 55.0537C125.402 54.9846 126.827 54.3596 127.891 53.3018C128.955 52.2439 129.58 50.8298 129.645 49.3377Z" fill="#B77153"/>
<path d="M134.396 31.9192C134.318 32.0017 133.855 31.6154 133.19 31.5907C132.526 31.5559 132.032 31.8995 131.961 31.8101C131.926 31.7705 132.007 31.6193 132.222 31.4635C132.511 31.2652 132.857 31.1664 133.208 31.182C133.559 31.1977 133.896 31.3271 134.165 31.5504C134.367 31.725 134.434 31.8825 134.396 31.9192Z" fill="#5A504E"/>
<path d="M127.031 31.9192C126.953 32.0017 126.49 31.6154 125.825 31.5907C125.161 31.5559 124.666 31.8995 124.596 31.8101C124.561 31.7704 124.641 31.6193 124.857 31.4635C125.146 31.2652 125.492 31.1664 125.843 31.182C126.194 31.1977 126.53 31.3271 126.8 31.5504C127.002 31.7251 127.069 31.8825 127.031 31.9192Z" fill="#5A504E"/>
<path d="M129.527 36.8689C129.88 36.7665 130.244 36.7114 130.611 36.7053C130.781 36.6934 130.943 36.664 130.973 36.5422C130.99 36.3564 130.954 36.1696 130.868 36.0035C130.716 35.561 130.555 35.0969 130.388 34.6112C129.721 32.6296 129.241 31.0029 129.316 30.9768C129.391 30.9506 129.992 32.5356 130.659 34.5172C130.819 35.0057 130.972 35.4723 131.118 35.9169C131.222 36.1391 131.249 36.3888 131.195 36.6278C131.171 36.6889 131.133 36.7435 131.084 36.7873C131.035 36.8312 130.976 36.8629 130.912 36.88C130.817 36.9033 130.72 36.9137 130.623 36.911C130.257 36.9461 129.889 36.9319 129.527 36.8689Z" fill="#5A504E"/>
<path d="M129.855 45.2386C127.554 45.1787 125.32 44.4542 123.429 43.1539C123.429 43.1539 124.939 46.7294 129.771 46.4434L129.855 45.2386Z" fill="#995037"/>
<path d="M122.961 19.5362C122.189 20.6413 121.783 21.9571 121.799 23.3012C121.815 24.6453 122.253 25.9512 123.051 27.0379C123.771 27.9773 124.861 28.7406 126.05 28.6977C127.24 28.655 128.392 27.5373 128.139 26.3844C128.023 26.7467 127.993 27.131 128.053 27.5067C128.113 27.8823 128.26 28.2389 128.484 28.548C128.708 28.8571 129.001 29.1101 129.341 29.2868C129.681 29.4635 130.058 29.5591 130.441 29.5659C130.825 29.5726 131.205 29.4904 131.551 29.3258C131.897 29.1612 132.199 28.9187 132.434 28.6177C132.669 28.3167 132.829 27.9656 132.902 27.5923C132.976 27.2189 132.96 26.8338 132.856 26.4676C132.947 26.9991 133.135 27.5096 133.411 27.9735C133.553 28.2038 133.755 28.3917 133.996 28.5173C134.237 28.6428 134.507 28.7014 134.779 28.6868C135.526 28.5891 135.96 27.7948 136.131 27.0677C136.358 25.971 136.302 24.8353 135.969 23.7656C135.635 22.696 135.035 21.7271 134.223 20.9485C133.398 20.1842 132.422 19.5982 131.357 19.2279C130.291 18.8576 129.16 18.7111 128.034 18.7978C125.771 18.9921 123.635 19.9178 121.955 21.4324" fill="#5A504E"/>
<path d="M123.59 21.267C124.214 22.6548 124.553 24.1519 124.587 25.6709C124.613 27.2031 124.038 28.6854 122.982 29.805C122.447 30.3497 121.767 30.7329 121.021 30.9102C120.275 31.0876 119.494 31.0517 118.768 30.8069C118.964 31.4645 119.01 32.1568 118.904 32.8343C118.798 33.5118 118.542 34.1576 118.154 34.7256C117.323 35.8168 115.692 36.3392 114.481 35.6821C113.387 35.088 112.914 33.773 112.764 32.5455C112.581 31.0547 112.737 29.5423 113.223 28.1195C113.708 26.6967 114.508 25.3999 115.566 24.3244C116.624 23.2489 117.912 22.4222 119.335 21.9051C120.757 21.388 122.279 21.1936 123.788 21.3364" fill="#5A504E"/>
<path d="M117.464 32.9626C116.803 32.5586 115.901 32.8909 115.377 33.458C114.961 33.9079 114.703 34.4793 114.643 35.0866C114.582 35.6939 114.722 36.3042 115.041 36.8261C115.36 37.3479 115.842 37.7531 116.413 37.9809C116.984 38.2086 117.615 38.2467 118.21 38.0893" fill="#B77153"/>
<path d="M117.311 36.6188C117.311 36.6466 117.091 36.6778 116.75 36.5821C116.52 36.5231 116.307 36.4103 116.13 36.2534C115.953 36.0964 115.816 35.8997 115.731 35.6798C115.64 35.4244 115.65 35.1446 115.758 34.8959C115.847 34.7003 115.99 34.5331 116.17 34.4132C116.475 34.2133 116.709 34.221 116.711 34.2461C116.722 34.2831 116.513 34.3372 116.272 34.545C116.117 34.6687 116.003 34.8364 115.947 35.0258C115.891 35.2152 115.894 35.4172 115.956 35.6047C116.033 35.7924 116.148 35.9623 116.294 36.1036C116.441 36.2449 116.615 36.3545 116.806 36.4254C117.106 36.5525 117.315 36.5824 117.311 36.6188Z" fill="#995037"/>
<path d="M127.44 29.8697C127.378 30.0606 126.653 29.9907 125.792 30.0285C124.929 30.0545 124.212 30.1776 124.136 29.9918C124.056 29.8197 124.76 29.357 125.765 29.3224C126.77 29.2827 127.507 29.6921 127.44 29.8697Z" fill="#5A504E"/>
<path d="M134.379 29.7335C134.304 29.8013 134.155 29.757 133.982 29.7136C133.784 29.6631 133.579 29.6502 133.377 29.6754C133.124 29.7103 132.87 29.7325 132.615 29.742C132.397 29.7399 132.245 29.6932 132.218 29.5995C132.19 29.5059 132.287 29.3846 132.472 29.263C132.725 29.1014 133.013 29.0015 133.313 28.9717C133.488 28.9482 133.665 28.9661 133.832 29.0238C133.998 29.0815 134.149 29.1774 134.27 29.3037C134.44 29.505 134.449 29.6727 134.379 29.7335Z" fill="#5A504E"/>
<path d="M128.374 38.1262C128.557 38.008 128.764 37.931 128.98 37.9006C129.196 37.8703 129.417 37.8873 129.626 37.9505C129.832 38.0211 130.007 38.1609 130.121 38.3458C130.234 38.5307 130.279 38.7491 130.247 38.9632C130.184 39.1924 130.042 39.3925 129.845 39.5284C129.701 39.6396 129.534 39.7194 129.356 39.7626C129.178 39.8058 128.993 39.8113 128.813 39.779C128.633 39.743 128.467 39.6593 128.332 39.5368C128.196 39.4142 128.097 39.2575 128.045 39.0834C128 38.9075 128.015 38.7217 128.088 38.5551C128.161 38.3885 128.287 38.2507 128.448 38.1633" fill="#995037"/>
<path d="M130.806 38.649C130.818 38.6751 130.648 38.7881 130.328 38.8561C129.907 38.9407 129.469 38.8983 129.072 38.7344C128.675 38.5705 128.337 38.2926 128.101 37.9365C127.925 37.664 127.886 37.4649 127.913 37.4547C127.946 37.44 128.039 37.6095 128.236 37.8369C128.485 38.1348 128.803 38.3682 129.164 38.517C129.524 38.6658 129.916 38.7256 130.305 38.6912C130.606 38.6694 130.793 38.6152 130.806 38.649Z" fill="#5A504E"/>
<path d="M120.751 40.9907C120.723 40.9926 120.741 40.6493 120.585 40.0667C120.359 39.2451 119.862 38.5221 119.174 38.0125C118.67 37.6381 118.08 37.3947 117.456 37.3043C116.833 37.214 116.197 37.2797 115.607 37.4955C114.91 37.7496 114.305 38.2017 113.867 38.7951C113.394 39.4313 113.14 40.2006 113.14 40.9905C113.139 41.7805 113.394 42.5498 113.867 43.186C114.305 43.7796 114.91 44.2318 115.607 44.486C116.197 44.7018 116.834 44.7675 117.457 44.6772C118.08 44.5868 118.67 44.3433 119.174 43.9688C119.862 43.4592 120.359 42.7362 120.585 41.9146C120.741 41.3321 120.723 40.9889 120.751 40.9907C120.766 41.0718 120.769 41.1543 120.763 41.2363C120.761 41.4724 120.732 41.7075 120.675 41.937C120.476 42.7971 119.981 43.5621 119.276 44.1012C118.79 44.4767 118.222 44.7329 117.618 44.8489C116.921 44.982 116.2 44.9271 115.532 44.69C114.791 44.4264 114.146 43.9504 113.679 43.3227C113.174 42.648 112.902 41.8304 112.902 40.9905C112.902 40.1506 113.175 39.333 113.679 38.6584C114.146 38.0309 114.791 37.555 115.532 37.2915C116.2 37.0544 116.92 36.9995 117.617 37.1325C118.222 37.2485 118.79 37.5047 119.275 37.8801C119.981 38.4192 120.475 39.1842 120.675 40.0444C120.732 40.2738 120.761 40.509 120.763 40.7451C120.769 40.8271 120.766 40.9097 120.751 40.9907Z" fill="#F10027"/>
<path d="M134.376 19.025C134.378 19.0192 134.42 19.0292 134.5 19.055C134.616 19.1009 134.721 19.1683 134.811 19.2535C134.979 19.4192 135.104 19.6235 135.173 19.8482C135.243 20.0728 135.255 20.311 135.21 20.5417C135.116 20.8932 134.92 21.2094 134.645 21.4505C134.37 21.6916 134.03 21.8468 133.666 21.8965C132.749 22.0061 131.822 21.7865 131.053 21.2773L130.133 20.751L131.143 21.0797C131.312 21.1428 131.463 21.2467 131.582 21.3819C131.701 21.5172 131.784 21.6796 131.824 21.8546C131.872 22.0313 131.884 22.2156 131.86 22.3969C131.836 22.5782 131.776 22.753 131.684 22.9114C131.475 23.2314 131.15 23.4594 130.777 23.5479C130.405 23.641 130.014 23.6324 129.646 23.5232C128.827 23.2044 128.142 22.6182 127.705 21.8614L127.059 20.9254L127.88 21.7141C128.091 21.9319 128.243 22.1998 128.32 22.4922C128.397 22.7846 128.398 23.0918 128.321 23.3844C128.261 23.6522 128.14 23.9031 127.968 24.1185C127.797 24.3339 127.578 24.5082 127.329 24.6286C126.92 24.8196 126.465 24.8922 126.016 24.8379C125.567 24.7837 125.143 24.6049 124.792 24.322C124.339 23.952 124.005 23.4593 123.831 22.9041C123.783 22.7583 123.748 22.6088 123.724 22.4572C123.712 22.4051 123.709 22.3513 123.715 22.2981C123.735 22.2944 123.763 22.5112 123.906 22.8778C124.103 23.4011 124.441 23.8608 124.883 24.2065C125.214 24.4603 125.61 24.6177 126.026 24.6611C126.442 24.7044 126.862 24.632 127.239 24.4519C127.459 24.3424 127.651 24.1853 127.802 23.9921C127.952 23.799 128.057 23.5748 128.108 23.3361C128.174 23.0807 128.172 22.8131 128.104 22.5584C128.037 22.3037 127.905 22.0703 127.721 21.88L127.896 21.7328C128.307 22.4413 128.947 22.9922 129.713 23.2971C130.024 23.4097 130.363 23.4215 130.681 23.3308C131 23.2402 131.281 23.0516 131.484 22.7925C131.808 22.2712 131.615 21.4642 131.073 21.2859L131.162 21.0884C131.885 21.5797 132.76 21.8025 133.632 21.7173C133.965 21.6785 134.279 21.5442 134.536 21.3307C134.794 21.1173 134.982 20.834 135.079 20.5158C135.126 20.3032 135.122 20.0825 135.067 19.8717C135.012 19.661 134.907 19.4662 134.761 19.3034C134.647 19.1928 134.517 19.0991 134.376 19.025Z" fill="#455A64"/>
<path d="M122.497 26.9182C122.501 26.9216 122.481 26.9505 122.438 27.004C122.374 27.0826 122.305 27.1562 122.229 27.224C121.857 27.5595 121.404 27.7929 120.913 27.9011C120.422 28.0093 119.911 27.9886 119.43 27.8409C119.047 27.7187 118.693 27.5214 118.389 27.2607C118.085 27.0001 117.837 26.6815 117.66 26.3238L117.847 26.2978C117.774 26.7446 117.594 27.1678 117.324 27.5325C117.053 27.8972 116.699 28.193 116.291 28.3956C115.883 28.5982 115.431 28.7018 114.975 28.6978C114.518 28.6938 114.069 28.5824 113.664 28.3727C113.259 28.163 112.91 27.8611 112.646 27.4917C112.382 27.1224 112.211 26.6961 112.145 26.2482C112.08 25.8002 112.123 25.3433 112.271 24.915C112.419 24.4868 112.667 24.0994 112.996 23.7849L113.15 23.9522C112.623 24.3843 111.96 24.6219 111.275 24.6249C110.654 24.6378 110.043 24.4727 109.514 24.1494C109.042 23.8592 108.674 23.4303 108.46 22.9225C108.247 22.3991 108.182 21.828 108.272 21.2707C108.363 20.7134 108.605 20.1911 108.972 19.7601C109.124 19.5789 109.309 19.4272 109.516 19.3127C109.531 19.331 109.315 19.4625 109.032 19.8097C108.637 20.3131 108.41 20.9268 108.385 21.5644C108.364 22.0066 108.445 22.4476 108.62 22.8549C108.827 23.3245 109.175 23.7189 109.618 23.9836C110.116 24.2797 110.69 24.4281 111.271 24.4111C111.903 24.4037 112.514 24.1811 113.001 23.7805L113.155 23.9478C112.776 24.3323 112.519 24.8195 112.418 25.3481C112.317 25.8766 112.376 26.423 112.588 26.9184C112.846 27.4605 113.278 27.902 113.818 28.1735C114.357 28.4451 114.972 28.5311 115.566 28.4181C116.086 28.2971 116.56 28.0296 116.93 27.6478C117.3 27.266 117.551 26.7862 117.652 26.2664L117.703 25.9554L117.839 26.2403C118.002 26.5778 118.231 26.8798 118.513 27.1287C118.795 27.3776 119.124 27.5684 119.481 27.69C120.037 27.8761 120.639 27.8809 121.198 27.7037C121.559 27.5929 121.896 27.4149 122.19 27.1793C122.394 27.0152 122.487 26.9092 122.497 26.9182Z" fill="#455A64"/>
<path d="M113.652 34.7779C113.54 34.8782 113.409 34.9556 113.266 35.0054C112.877 35.1675 112.453 35.2331 112.032 35.1962C111.38 35.1466 110.771 34.8522 110.33 34.373C110.054 34.0692 109.851 33.7078 109.735 33.3155C109.619 32.9233 109.593 32.5102 109.66 32.1068L109.864 32.1964C109.424 32.7747 108.849 33.2394 108.189 33.5511C107.682 33.7897 107.125 33.9073 106.564 33.8943C106.04 33.8776 105.528 33.7382 105.07 33.4876C104.675 33.2859 104.337 32.9884 104.089 32.6229C103.841 32.2574 103.689 31.8356 103.649 31.3968C103.598 30.8076 103.761 30.2196 104.108 29.7388C104.205 29.6132 104.317 29.4999 104.441 29.4014C104.529 29.3378 104.577 29.3081 104.582 29.3146C104.598 29.3328 104.408 29.4632 104.184 29.7914C103.999 30.0814 103.877 30.4068 103.827 30.7464C103.777 31.0859 103.799 31.4322 103.892 31.7627C103.986 32.0932 104.148 32.4005 104.369 32.6649C104.59 32.9292 104.864 33.1446 105.175 33.2971C105.623 33.5304 106.121 33.6557 106.627 33.6627C107.133 33.6697 107.634 33.5583 108.089 33.3375C108.714 33.0416 109.26 32.6034 109.682 32.0586L109.97 31.689L109.885 32.1482C109.822 32.5191 109.842 32.8993 109.945 33.2616C110.047 33.6238 110.229 33.9591 110.478 34.2434C110.881 34.6973 111.44 34.986 112.047 35.0531C112.448 35.101 112.855 35.06 113.238 34.933C113.507 34.8424 113.643 34.7625 113.652 34.7779Z" fill="#455A64"/>
<path d="M138.904 25.2056C139.014 25.4631 139.048 25.7461 139.003 26.0219C138.952 26.7018 138.665 27.3431 138.189 27.8358C137.714 28.3285 137.08 28.6419 136.397 28.7221C136.121 28.7794 135.834 28.7583 135.569 28.6612C135.573 28.6218 135.887 28.6551 136.37 28.5578C136.999 28.4408 137.575 28.1314 138.017 27.6731C138.46 27.2147 138.746 26.6305 138.836 26.0026C138.912 25.5203 138.865 25.2107 138.904 25.2056Z" fill="#455A64"/>
<path d="M141.633 29.8318C141.697 29.9326 141.736 30.0478 141.744 30.1669C141.799 30.4923 141.767 30.8262 141.652 31.1358C141.571 31.3767 141.429 31.5933 141.24 31.7652C141.051 31.9371 140.822 32.0588 140.573 32.119C140.271 32.1829 139.956 32.156 139.67 32.0419C139.511 31.9821 139.366 31.8908 139.243 31.7734C139.121 31.6559 139.025 31.515 138.96 31.3591L139.184 31.2845C139.224 31.4257 139.242 31.5719 139.24 31.7185C139.228 32.0602 139.116 32.3911 138.917 32.6707C138.719 32.9503 138.442 33.1665 138.122 33.2929C137.837 33.3944 137.527 33.4071 137.235 33.3292C136.987 33.2589 136.758 33.134 136.565 32.964C136.283 32.7255 136.092 32.3983 136.025 32.0372C135.991 31.9082 135.996 31.7725 136.037 31.6458C136.059 31.6464 136.051 31.7858 136.115 32.0171C136.21 32.3413 136.405 32.6278 136.673 32.8366C136.859 32.9951 137.083 33.102 137.324 33.1465C137.565 33.191 137.813 33.1715 138.044 33.09C138.319 32.9743 138.555 32.7836 138.724 32.54C138.894 32.2965 138.99 32.0103 139.002 31.7146C139.004 31.5915 138.989 31.4688 138.957 31.35L139.181 31.2753C139.301 31.5162 139.499 31.7102 139.744 31.8257C139.989 31.9413 140.266 31.9717 140.53 31.9121C140.749 31.8627 140.952 31.7607 141.122 31.615C141.291 31.4693 141.422 31.2844 141.502 31.0768C141.622 30.7921 141.675 30.4843 141.657 30.1765C141.639 30.0624 141.631 29.9472 141.633 29.8318Z" fill="#455A64"/>
<path d="M128.034 36.397C128.064 36.4013 128.084 36.4977 128.044 36.6473C127.985 36.8408 127.869 37.0127 127.712 37.1417C127.555 37.2707 127.363 37.3512 127.16 37.3731C127.004 37.3836 126.912 37.3464 126.914 37.3165C126.915 37.2496 127.258 37.2173 127.56 36.9603C127.872 36.7135 127.967 36.3863 128.034 36.397Z" fill="#5A504E"/>
<path d="M234.316 163.125C233.203 164.7 231.04 164.179 230.036 163.217C229.033 162.256 228.609 160.862 228.223 159.533C227.341 156.496 226.452 153.31 227.108 150.218C227.266 149.28 227.681 148.404 228.309 147.685C228.626 147.331 229.032 147.066 229.486 146.916C229.94 146.767 230.426 146.738 230.894 146.833C231.985 147.118 232.663 148.177 233.153 149.184C234.597 152.158 235.353 155.413 235.367 158.713C235.373 160.248 235.19 161.858 234.316 163.125Z" fill="#F10027"/>
<g opacity="0.2">
<path d="M234.316 163.125C233.203 164.7 231.04 164.179 230.036 163.217C229.033 162.256 228.609 160.862 228.223 159.533C227.341 156.496 226.452 153.31 227.108 150.218C227.266 149.28 227.681 148.404 228.309 147.685C228.626 147.331 229.032 147.066 229.486 146.916C229.94 146.767 230.426 146.738 230.894 146.833C231.985 147.118 232.663 148.177 233.153 149.184C234.597 152.158 235.353 155.413 235.367 158.713C235.373 160.248 235.19 161.858 234.316 163.125Z" fill="black"/>
</g>
<path d="M230.145 171.103C228.325 170.173 226.181 170.052 224.16 170.383C223.074 170.56 221.942 170.882 221.203 171.691C220.465 172.499 220.325 173.921 221.173 174.615C221.72 174.982 222.38 175.148 223.037 175.084C224.619 175.066 226.375 174.79 227.639 175.733C228.36 176.271 228.84 177.166 229.702 177.431C230.134 177.53 230.586 177.487 230.991 177.308C231.395 177.13 231.73 176.826 231.945 176.442C232.356 175.656 232.447 174.744 232.199 173.894C232.097 173.304 231.858 172.745 231.502 172.261C231.146 171.776 230.681 171.38 230.145 171.103Z" fill="#F10027"/>
<path d="M237.373 165.386C236.164 163.964 235.935 161.891 236.473 160.11C237.083 158.341 238.175 156.772 239.626 155.578C241.274 154.124 243.192 153.003 245.273 152.276C246.078 151.954 246.944 151.808 247.812 151.849C248.245 151.874 248.666 152.003 249.037 152.226C249.409 152.449 249.72 152.758 249.943 153.127C250.537 154.25 249.968 155.612 249.351 156.723C248.265 158.682 247.025 160.553 245.643 162.319C244.531 163.739 243.258 165.14 241.564 165.782C239.87 166.424 238.11 166.348 237.212 165.184" fill="#F10027"/>
<path d="M234.392 186.891C234.333 186.656 234.299 186.416 234.291 186.175C234.24 185.654 234.176 184.999 234.099 184.221C234.001 183.259 233.853 182.302 233.656 181.355C233.397 180.202 233.046 179.071 232.605 177.973C232.172 176.877 231.585 175.846 230.862 174.913C230.272 174.153 229.52 173.533 228.658 173.097C228.074 172.811 227.448 172.617 226.802 172.525C226.56 172.515 226.318 172.481 226.083 172.422C226.326 172.392 226.571 172.388 226.815 172.41C227.485 172.461 228.14 172.63 228.75 172.909C229.657 173.334 230.453 173.961 231.075 174.74C231.829 175.687 232.438 176.739 232.881 177.862C233.329 178.976 233.678 180.126 233.925 181.3C234.112 182.259 234.24 183.228 234.309 184.202C234.372 185.032 234.396 185.703 234.407 186.168C234.428 186.409 234.423 186.651 234.392 186.891Z" fill="#5A504E"/>
<path d="M234.256 185.387C234.236 185.278 234.23 185.166 234.237 185.055C234.237 184.806 234.238 184.491 234.239 184.105C234.241 183.281 234.241 182.088 234.196 180.615C234.123 177.669 233.867 173.601 233.372 169.131C232.874 164.659 232.214 160.637 231.612 157.751C231.47 157.027 231.327 156.376 231.192 155.807C231.063 155.235 230.954 154.743 230.848 154.344C230.757 153.969 230.683 153.663 230.624 153.421C230.591 153.314 230.571 153.204 230.565 153.093C230.616 153.192 230.655 153.296 230.681 153.405C230.755 153.644 230.847 153.945 230.96 154.315C231.083 154.71 231.21 155.199 231.354 155.768C231.505 156.336 231.663 156.985 231.818 157.707C232.64 161.469 233.258 165.271 233.669 169.099C234.164 173.578 234.387 177.657 234.407 180.611C234.425 182.088 234.393 183.283 234.355 184.108C234.331 184.494 234.312 184.808 234.297 185.057C234.296 185.169 234.283 185.279 234.256 185.387Z" fill="#5A504E"/>
<path d="M234.236 177.52C234.212 177.19 234.215 176.858 234.243 176.528C234.28 175.89 234.368 174.969 234.55 173.84C234.769 172.518 235.064 171.211 235.432 169.923C235.872 168.341 236.424 166.792 237.085 165.288C238.232 162.52 239.877 159.983 241.939 157.798C242.297 157.424 242.679 157.072 243.081 156.746C243.257 156.599 243.411 156.453 243.569 156.337C243.728 156.229 243.875 156.128 244.012 156.034C244.279 155.834 244.56 155.656 244.855 155.5C243.884 156.256 242.961 157.072 242.092 157.942C240.097 160.145 238.497 162.669 237.359 165.405C236.703 166.898 236.148 168.432 235.696 169.997C235.318 171.274 235.005 172.568 234.757 173.875C234.551 174.993 234.431 175.905 234.359 176.537C234.344 176.868 234.303 177.196 234.236 177.52Z" fill="#5A504E"/>
<path d="M77.6198 0.00652792C77.5177 0.0274798 77.4141 0.0402176 77.31 0.044616C77.0891 0.0628646 76.7879 0.0882258 76.4014 0.120393C75.9092 0.155378 75.4202 0.22573 74.9382 0.330893C74.6526 0.391604 74.3361 0.418158 74.014 0.516471C73.6902 0.609613 73.3462 0.708279 72.9821 0.812468C71.2251 1.37008 69.5711 2.20646 68.0844 3.28901C66.1253 4.73721 64.495 6.57703 63.2992 8.68931C62.5991 9.90948 62.0438 11.2058 61.6444 12.5524C61.0225 14.7948 60.8133 17.1298 61.027 19.4457C61.0532 19.8517 61.1461 20.2534 61.2031 20.6623C61.2559 21.0753 61.3388 21.484 61.4514 21.8851C61.8484 23.5658 62.4973 25.1781 63.3766 26.6682C65.2466 29.9036 68.1333 32.4441 71.5964 33.9021C73.4206 34.6578 75.3713 35.0688 77.348 35.114C79.3826 35.1987 81.4141 34.8856 83.3265 34.1924L83.9115 33.9722L83.9888 33.9432L84.0593 33.9777C86.9502 35.3912 89.7851 36.7773 92.5323 38.1206L92.2843 38.3351C91.353 35.5788 90.4502 32.9062 89.584 30.3422L89.5507 30.2432L89.6241 30.1687C91.6466 28.1059 93.1354 25.5887 93.9635 22.8321C94.7071 20.313 94.8955 17.6649 94.5159 15.0672C93.9095 10.7399 91.7232 6.78302 88.3708 3.94548C87.1022 2.91182 85.7004 2.05 84.2024 1.38268C83.0718 0.915592 81.8964 0.563126 80.6942 0.330672C80.2014 0.253171 79.7637 0.184418 79.3812 0.124414C79.0025 0.10241 78.6801 0.0837198 78.4138 0.0683433C78.165 0.0520831 77.9691 0.039446 77.821 0.0298136C77.7533 0.0286513 77.6859 0.0208514 77.6198 0.00652792C77.6866 -0.00203882 77.754 -0.00421475 77.8212 3.18594e-05C77.9697 0.00259461 78.1661 0.00586549 78.416 0.0101957C78.6842 0.0178397 79.0088 0.0272064 79.3897 0.0382969C79.7752 0.0907892 80.2168 0.150896 80.7145 0.218617C81.9312 0.432469 83.1221 0.771556 84.2678 1.23037C85.7906 1.88826 87.2169 2.74662 88.5082 3.78226C90.0744 5.08663 91.4068 6.64408 92.4489 8.38871C93.6632 10.428 94.4639 12.6827 94.8061 15.0261C95.203 17.6656 95.0211 20.3588 94.2727 22.9223C93.4376 25.7333 91.9269 28.3017 89.8702 30.4071L89.9103 30.2337C90.7803 32.7965 91.6871 35.4674 92.6225 38.2227L92.7593 38.6255L92.3745 38.4375C89.6264 37.0958 86.7908 35.7114 83.8993 34.2994L84.0468 34.3048L83.4492 34.5301C81.4939 35.2384 79.417 35.558 77.3371 35.4707C75.3168 35.4229 73.3234 35.0008 71.4599 34.2262C68.893 33.1213 66.6228 31.4363 64.831 29.3059C63.0393 27.1756 61.7758 24.6592 61.1416 21.9581C61.0289 21.5496 60.946 21.1336 60.8935 20.7133C60.8369 20.2973 60.7441 19.8884 60.7188 19.4757C60.5103 17.122 60.7331 14.7504 61.3764 12.4752C61.7883 11.1105 62.359 9.79776 63.0769 8.56355C64.3011 6.43028 65.9669 4.57771 67.9648 3.12747C69.4762 2.04586 71.1574 1.21867 72.9405 0.679206C73.3088 0.5797 73.6571 0.485586 73.9853 0.396861C74.311 0.303056 74.6308 0.281317 74.9192 0.225997C75.4058 0.129073 75.8992 0.0697153 76.395 0.048459C76.7836 0.0310942 77.0869 0.0180156 77.3088 0.00802974C77.4123 -0.000595504 77.5163 -0.00109735 77.6198 0.00652792Z" fill="#5A504E"/>
<path d="M81.6061 15.4175L80.3717 15.4315L77.6351 11.7416L77.607 9.29998C77.607 9.29998 75.6977 9.20516 75.9588 12.3998C76.2202 15.5946 75.9678 14.7832 75.9678 14.7832C75.9678 14.7832 71.9167 14.8443 71.5841 15.1969C71.3421 15.453 71.2771 19.442 71.2596 21.6053C71.2391 22.1275 71.3954 22.6415 71.7037 23.0655C72.0121 23.4895 72.4547 23.7991 72.9611 23.945C73.1039 23.9807 73.2506 23.9986 73.3978 23.9982C74.4082 23.9868 79.5618 23.1146 79.5618 23.1146L81.6941 23.0906L81.6061 15.4175Z" fill="#F10027"/>
<path d="M85.1319 14.7075L84.4689 23.0824L82.3548 23.1063L82.2607 14.9081L85.1319 14.7075Z" fill="#F10027"/>
</g>
<defs>
<clipPath id="clip0_482_5226">
<rect width="261" height="187" fill="white"/>
</clipPath>
</defs>
</svg>
