<svg width="17" height="17" viewBox="0 0 17 17" fill="none" xmlns="http://www.w3.org/2000/svg">
<path d="M13.2742 12.1548L16.6649 15.5447L15.5447 16.6649L12.1548 13.2742C10.8935 14.2853 9.32459 14.8353 7.70801 14.833C3.77501 14.833 0.583008 11.641 0.583008 7.70801C0.583008 3.77501 3.77501 0.583008 7.70801 0.583008C11.641 0.583008 14.833 3.77501 14.833 7.70801C14.8353 9.32459 14.2853 10.8935 13.2742 12.1548ZM11.6861 11.5674C12.6908 10.5342 13.2519 9.14918 13.2497 7.70801C13.2497 4.64584 10.7694 2.16634 7.70801 2.16634C4.64584 2.16634 2.16634 4.64584 2.16634 7.70801C2.16634 10.7694 4.64584 13.2497 7.70801 13.2497C9.14918 13.2519 10.5342 12.6908 11.5674 11.6861L11.6861 11.5674Z" fill="black"/>
</svg>
