<svg width="22" height="23" viewBox="0 0 22 23" fill="none" xmlns="http://www.w3.org/2000/svg">
<g clip-path="url(#clip0_8456_17760)">
<path d="M4.29852 11.1055C4.29819 12.2818 4.60794 13.4304 5.19692 14.4427L4.24219 17.9016L7.80956 16.9734C8.79625 17.5064 9.90176 17.7857 11.0252 17.7858H11.0281C14.7368 17.7858 17.7557 14.7913 17.7573 11.1108C17.758 9.32733 17.0586 7.65026 15.788 6.38852C14.5176 5.12689 12.8281 4.43172 11.0279 4.43091C7.3188 4.43091 4.3001 7.42517 4.29857 11.1055" fill="url(#paint0_linear_8456_17760)"/>
<path d="M4.05852 11.1033C4.05813 12.3219 4.37898 13.5115 4.98897 14.5601L4 18.1429L7.69529 17.1815C8.71346 17.7324 9.85982 18.0228 11.0263 18.0232H11.0293C14.871 18.0232 17.9984 14.9211 18 11.1088C18.0007 9.26122 17.2762 7.52387 15.9602 6.21693C14.644 4.91015 12.894 4.18997 11.0293 4.18921C7.18697 4.18921 4.0601 7.29091 4.05857 11.1033H4.05852ZM6.25914 14.3795L6.12116 14.1621C5.54115 13.247 5.23501 12.1896 5.23545 11.1037C5.2367 7.93497 7.83567 5.35696 11.0315 5.35696C12.5792 5.35761 14.0336 5.95625 15.1276 7.04239C16.2215 8.12863 16.8235 9.57259 16.8231 11.1084C16.8216 14.2771 14.2226 16.8554 11.0293 16.8554H11.027C9.98724 16.8549 8.96748 16.5778 8.07816 16.0542L7.86652 15.9297L5.67366 16.5001L6.25914 14.3794V14.3795Z" fill="url(#paint1_linear_8456_17760)"/>
<path d="M9.28707 8.21279C9.15659 7.92503 9.01927 7.91922 8.89518 7.91418C8.79357 7.90984 8.67741 7.91016 8.56137 7.91016C8.44521 7.91016 8.25648 7.95352 8.09696 8.12635C7.93727 8.29934 7.4873 8.71739 7.4873 9.56764C7.4873 10.418 8.11145 11.2397 8.19846 11.3551C8.28558 11.4703 9.40339 13.271 11.1737 13.9637C12.645 14.5394 12.9445 14.4249 13.2638 14.396C13.5832 14.3673 14.2943 13.9781 14.4394 13.5745C14.5846 13.171 14.5846 12.8251 14.5411 12.7529C14.4975 12.6809 14.3814 12.6376 14.2072 12.5512C14.033 12.4648 13.1767 12.0467 13.017 11.989C12.8573 11.9314 12.7412 11.9026 12.6251 12.0757C12.5089 12.2484 12.1754 12.6376 12.0737 12.7529C11.9722 12.8684 11.8705 12.8828 11.6964 12.7963C11.5221 12.7096 10.9612 12.5273 10.2957 11.9386C9.77789 11.4805 9.42833 10.9148 9.32672 10.7418C9.22511 10.569 9.31584 10.4754 9.40317 10.3892C9.48143 10.3118 9.57741 10.1874 9.66458 10.0866C9.75142 9.98564 9.78041 9.91363 9.83848 9.79837C9.89662 9.68301 9.86752 9.58208 9.82405 9.49564C9.78041 9.40919 9.44195 8.55454 9.28707 8.21284" fill="white"/>
</g>
<defs>
<linearGradient id="paint0_linear_8456_17760" x1="10.9997" y1="17.9016" x2="10.9997" y2="4.43091" gradientUnits="userSpaceOnUse">
<stop stop-color="#1FAF38"/>
<stop offset="1" stop-color="#60D669"/>
</linearGradient>
<linearGradient id="paint1_linear_8456_17760" x1="11" y1="18.1429" x2="11" y2="4.18921" gradientUnits="userSpaceOnUse">
<stop stop-color="#F9F9F9"/>
<stop offset="1" stop-color="white"/>
</linearGradient>
<clipPath id="clip0_8456_17760">
<rect width="14" height="14" fill="white" transform="translate(4 4.18921)"/>
</clipPath>
</defs>
</svg>
