<svg width="21" height="21" viewBox="0 0 21 21" fill="none" xmlns="http://www.w3.org/2000/svg">
<g id="web-svgrepo-com 1" clip-path="url(#clip0_9479_12642)">
<g id="Clip path group">
<mask id="mask0_9479_12642" style="mask-type:luminance" maskUnits="userSpaceOnUse" x="0" y="0" width="21" height="21">
<g id="clip0_1_1825">
<path id="Vector" d="M21 0H0V21H21V0Z" fill="white"/>
</g>
</mask>
<g mask="url(#mask0_9479_12642)">
<g id="style=linear">
<g id="web">
<path id="vector" d="M18.4023 7.27869C18.8076 8.27176 19.0312 9.35891 19.0312 10.5H20.3438C20.3438 9.18601 20.0859 7.93058 19.6175 6.78277L18.4023 7.27869ZM19.0312 10.5C19.0312 11.1061 18.9682 11.6968 18.8484 12.2661L20.1327 12.5364C20.2711 11.8787 20.3438 11.1975 20.3438 10.5H19.0312ZM18.8484 12.2661C18.1553 15.5599 15.5599 18.1553 12.2661 18.8484L12.5364 20.1327C16.3393 19.3325 19.3325 16.3393 20.1327 12.5364L18.8484 12.2661ZM12.2661 18.8484C11.6968 18.9682 11.1061 19.0312 10.5 19.0312V20.3438C11.1975 20.3438 11.8787 20.2711 12.5364 20.1327L12.2661 18.8484ZM10.5 19.0312C9.8938 19.0312 9.30317 18.9682 8.73386 18.8484L8.4636 20.1327C9.12118 20.2711 9.80245 20.3438 10.5 20.3438V19.0312ZM1.96875 10.5C1.96875 9.35804 2.19276 8.27005 2.59863 7.27636L1.38357 6.78009C0.914463 7.92861 0.65625 9.18496 0.65625 10.5H1.96875ZM8.73386 18.8484C5.44008 18.1553 2.84473 15.5599 2.15165 12.2661L0.867276 12.5364C1.6675 16.3393 4.66066 19.3325 8.4636 20.1327L8.73386 18.8484ZM2.15165 12.2661C2.03186 11.6968 1.96875 11.1061 1.96875 10.5H0.65625C0.65625 11.1975 0.728901 11.8787 0.867276 12.5364L2.15165 12.2661ZM2.59863 7.27636C3.65494 4.69014 5.94458 2.73857 8.73386 2.15165L8.4636 0.867276C5.24153 1.54527 2.60198 3.79698 1.38357 6.78009L2.59863 7.27636ZM8.73386 2.15165C9.30317 2.03186 9.8938 1.96875 10.5 1.96875V0.65625C9.80245 0.65625 9.12118 0.728901 8.4636 0.867276L8.73386 2.15165ZM10.5 1.96875C11.1061 1.96875 11.6968 2.03186 12.2661 2.15165L12.5364 0.867277C11.8787 0.728902 11.1975 0.65625 10.5 0.65625V1.96875ZM12.2661 2.15165C15.0562 2.73875 17.3464 4.69131 18.4023 7.27869L19.6175 6.78277C18.3996 3.79834 15.7594 1.54547 12.5364 0.867277L12.2661 2.15165ZM11.7761 1.70895C12.0297 2.50372 12.9688 5.56168 13.3538 8.37218L14.6542 8.19403C14.2529 5.26456 13.2836 2.11606 13.0265 1.30998L11.7761 1.70895ZM13.3538 8.37218C13.4571 9.12555 13.5188 9.8497 13.5188 10.5H14.8313C14.8313 9.77209 14.7626 8.98537 14.6542 8.19403L13.3538 8.37218ZM18.7444 6.43337C17.7355 6.73936 15.8404 7.27685 13.8849 7.63775L14.1231 8.9285C16.1478 8.55479 18.0958 8.00164 19.1254 7.68937L18.7444 6.43337ZM13.8849 7.63775C12.6988 7.85666 11.5132 8.00625 10.5 8.00625V9.31875C11.6265 9.31875 12.9001 9.15416 14.1231 8.9285L13.8849 7.63775ZM13.5188 10.5C13.5188 11.4633 13.3835 12.5832 13.1816 13.7121L14.4736 13.9431C14.6822 12.7767 14.8313 11.5721 14.8313 10.5H13.5188ZM13.1816 13.7121C12.7392 16.1868 11.996 18.6019 11.7761 19.291L13.0265 19.69C13.2519 18.9837 14.0158 16.5036 14.4736 13.9431L13.1816 13.7121ZM19.291 11.7761C18.6019 11.996 16.1868 12.7392 13.7121 13.1816L13.9431 14.4736C16.5036 14.0158 18.9837 13.2519 19.69 13.0265L19.291 11.7761ZM13.7121 13.1816C12.5832 13.3835 11.4633 13.5188 10.5 13.5188V14.8313C11.5721 14.8313 12.7767 14.6822 13.9431 14.4736L13.7121 13.1816ZM10.5 13.5188C9.53671 13.5188 8.41683 13.3835 7.28785 13.1816L7.05684 14.4736C8.22331 14.6822 9.42795 14.8313 10.5 14.8313V13.5188ZM7.28785 13.1816C4.81316 12.7392 2.39808 11.996 1.70895 11.7761L1.30998 13.0265C2.01632 13.2519 4.49639 14.0158 7.05684 14.4736L7.28785 13.1816ZM6.16875 10.5C6.16875 11.5721 6.31778 12.7767 6.52634 13.9431L7.81835 13.7121C7.61649 12.5832 7.48125 11.4633 7.48125 10.5H6.16875ZM6.52634 13.9431C6.98415 16.5036 7.74816 18.9837 7.97353 19.69L9.2239 19.291C9.00401 18.6019 8.26082 16.1868 7.81835 13.7121L6.52634 13.9431ZM7.97353 1.30998C7.71634 2.11606 6.74712 5.26456 6.34581 8.19403L7.64615 8.37218C8.03118 5.56168 8.97033 2.50372 9.2239 1.70895L7.97353 1.30998ZM6.34581 8.19403C6.2374 8.98537 6.16875 9.77209 6.16875 10.5H7.48125C7.48125 9.8497 7.54295 9.12555 7.64615 8.37218L6.34581 8.19403ZM10.5 8.00625C9.48684 8.00625 8.30121 7.85666 7.11508 7.63775L6.87688 8.9285C8.09985 9.15416 9.37352 9.31875 10.5 9.31875V8.00625ZM7.11508 7.63775C5.15888 7.27672 3.26306 6.73897 2.2545 6.43304L1.87352 7.68904C2.90281 8.00125 4.8515 8.55466 6.87688 8.9285L7.11508 7.63775ZM18.7075 6.44831C18.7179 6.44289 18.7307 6.43754 18.7444 6.43337L19.1254 7.68937C19.1914 7.66936 19.2534 7.64373 19.3123 7.61315L18.7075 6.44831ZM1.64872 7.58808C1.71782 7.63033 1.79277 7.66455 1.87352 7.68904L2.2545 6.43304C2.2836 6.44187 2.31042 6.45426 2.33348 6.46837L1.64872 7.58808Z" fill="#F10027"/>
</g>
</g>
</g>
</g>
</g>
<defs>
<clipPath id="clip0_9479_12642">
<rect width="21" height="21" fill="white"/>
</clipPath>
</defs>
</svg>
