<svg width="19" height="14" viewBox="0 0 19 14" fill="none" xmlns="http://www.w3.org/2000/svg">
<path d="M8.63636 14H4.75C3.44015 14 2.32117 13.5406 1.39305 12.6219C0.464348 11.7031 0 10.5802 0 9.25313C0 8.11562 0.338258 7.10208 1.01477 6.2125C1.69129 5.32292 2.57652 4.75417 3.67045 4.50625C4.0303 3.16458 4.75 2.07813 5.82955 1.24688C6.90909 0.415625 8.13258 0 9.5 0C11.1841 0 12.6125 0.594125 13.7854 1.78238C14.9588 2.97121 15.5455 4.41875 15.5455 6.125C16.5386 6.24167 17.3628 6.67538 18.018 7.42613C18.6727 8.17746 19 9.05625 19 10.0625C19 11.1562 18.6223 12.0861 17.8669 12.852C17.1109 13.6173 16.1932 14 15.1136 14H10.3636V7.74375L11.7455 9.1L12.9545 7.875L9.5 4.375L6.04545 7.875L7.25455 9.1L8.63636 7.74375V14Z" fill="white"/>
</svg>
