<svg width="120" height="92" viewBox="0 0 120 92" fill="none" xmlns="http://www.w3.org/2000/svg">
<g clip-path="url(#clip0_6348_8070)">
<path fill-rule="evenodd" clip-rule="evenodd" d="M8.08896 0H110.189C114.127 0 117.341 3.21439 117.341 7.15259V45.45C115.796 43.9415 114.1 42.5963 112.279 41.4355V35.2681H5.99845V74.7912C5.99845 76.4469 7.36514 77.8136 9.01859 77.8136H65.9826C66.5839 79.5757 67.34 81.2685 68.2327 82.8757H8.08896C4.15075 82.8757 0.924805 79.6636 0.924805 75.7231V7.16415C0.924805 3.21439 4.13919 0 8.08896 0ZM18.9809 67.1876C17.3344 67.1876 16 65.851 16 64.2045C16 62.5603 17.3344 61.2237 18.9809 61.2237H46.102C47.7485 61.2237 49.0828 62.5603 49.0828 64.2045C49.0828 65.851 47.7485 67.1876 46.102 67.1876H18.9809ZM18.9809 52.8778C17.3344 52.8778 16 51.5435 16 49.897C16 48.2505 17.3344 46.9162 18.9809 46.9162H27.0932C28.7397 46.9162 30.074 48.2505 30.074 49.897C30.074 51.5435 28.7397 52.8778 27.0932 52.8778H18.9809ZM36.1166 52.8778C34.4701 52.8778 33.1357 51.5435 33.1357 49.897C33.1357 48.2505 34.4701 46.9162 36.1166 46.9162H42.025C43.6715 46.9162 45.0058 48.2505 45.0058 49.897C45.0058 51.5435 43.6715 52.8778 42.025 52.8778H36.1166ZM51.541 52.8778C49.8945 52.8778 48.5602 51.5435 48.5602 49.897C48.5602 48.2505 49.8945 46.9162 51.541 46.9162H57.4194C59.0636 46.9162 60.4002 48.2505 60.4002 49.897C60.4002 51.5435 59.0636 52.8778 57.4194 52.8778H51.541ZM95.555 44.0117C108.678 44.0117 119.325 54.6584 119.325 67.7819C119.325 80.91 108.678 91.5568 95.555 91.5568C82.4269 91.5568 71.7801 80.91 71.7801 67.7819C71.7801 54.6584 82.4269 44.0117 95.555 44.0117ZM97.0997 55.454C98.1057 55.454 98.9012 55.7453 99.4747 56.3211C100.046 56.8923 100.335 57.6855 100.335 58.6961C100.335 59.7252 99.8424 60.6409 98.8572 61.4457C97.8629 62.2458 96.7089 62.6505 95.3954 62.6505C94.4103 62.6505 93.624 62.373 93.0251 61.818C92.4215 61.2584 92.1232 60.5345 92.1232 59.635C92.1232 58.4972 92.6135 57.519 93.587 56.6888C94.5652 55.8656 95.7354 55.454 97.0997 55.454ZM90.5507 76.5417H91.8434V67.7403H89.4014C89.4014 64.4172 95.511 66.5748 100.004 65.4394V76.5417H101.706V79.4115H90.5507V76.5417ZM5.99845 15.991H112.267V8.09378C112.267 6.44034 110.901 5.07364 109.247 5.07364H9.01859C7.36514 5.07364 5.99845 6.44034 5.99845 8.09378V15.991Z" fill="#E60023"/>
</g>
<defs>
<clipPath id="clip0_6348_8070">
<rect width="118.4" height="91.5753" fill="white" transform="translate(0.924805)"/>
</clipPath>
</defs>
</svg>
