<svg width="20" height="19" viewBox="0 0 20 19" fill="none" xmlns="http://www.w3.org/2000/svg">
<g clip-path="url(#clip0_7523_8678)">
<mask id="path-1-inside-1_7523_8678" fill="white">
<path d="M8.75782 12.3351L4.66182 8.30205C4.39483 8.03595 4.03983 7.88939 3.66229 7.88939C3.40292 7.88939 3.15422 7.95853 2.93738 8.08812V3.23304C2.93738 2.98521 2.8726 2.75225 2.75944 2.54974C2.83395 2.52449 2.91255 2.51059 2.99314 2.51059C3.39285 2.51059 3.71801 2.8347 3.71801 3.23308V6.80149C3.71801 6.99102 3.87218 7.14468 4.06234 7.14468C4.2525 7.14468 4.40667 6.99102 4.40667 6.80149V3.23308C4.40667 2.45623 3.77258 1.82422 2.99314 1.82422C2.73069 1.82422 2.47786 1.89609 2.25828 2.02967C2.04409 1.89941 1.79265 1.82422 1.52393 1.82422C0.74448 1.82422 0.110352 2.45623 0.110352 3.23338L0.116336 10.0005C0.116631 10.3037 0.229245 10.7317 0.378316 10.9961C0.380718 11.0003 0.383163 11.0045 0.385818 11.0086L4.62697 17.8316C4.7164 17.9939 4.79707 18.3031 4.79707 18.4853V19.7786C4.79707 19.9682 4.95124 20.1218 5.1414 20.1218C5.33156 20.1218 5.48573 19.9682 5.48573 19.7786V18.4853C5.48573 18.182 5.37325 17.7539 5.22413 17.4895C5.22173 17.4853 5.21929 17.4811 5.21667 17.477L0.975398 10.654C0.885964 10.4915 0.80517 10.1822 0.80496 9.99992L0.798975 3.23304C0.798975 2.83466 1.12413 2.51055 1.52384 2.51055C1.92356 2.51055 2.24871 2.83466 2.24871 3.23304V9.2983C2.24871 9.30687 2.24939 9.31523 2.25002 9.32359C2.2563 9.67589 2.39365 10.0263 2.66275 10.2945L5.95263 13.5734C6.08712 13.7074 6.30514 13.7074 6.43958 13.5734C6.57407 13.4394 6.57407 13.2221 6.43958 13.0881L3.14975 9.80913C3.01286 9.67269 2.93742 9.49123 2.93742 9.29822C2.93742 9.10524 3.01286 8.92382 3.14975 8.78734C3.28664 8.65087 3.46871 8.57572 3.66233 8.57572C3.85595 8.57572 4.03798 8.65091 4.17634 8.78882L8.27234 12.8218C8.72786 13.2758 9.11265 14.2018 9.11265 14.8438V19.7846C9.11265 19.9742 9.26682 20.1278 9.45698 20.1278C9.64715 20.1278 9.80131 19.9742 9.80131 19.7846V14.8438C9.80131 14.0203 9.34361 12.9189 8.75782 12.3351Z"/>
</mask>
<path d="M8.75782 12.3351L4.66182 8.30205C4.39483 8.03595 4.03983 7.88939 3.66229 7.88939C3.40292 7.88939 3.15422 7.95853 2.93738 8.08812V3.23304C2.93738 2.98521 2.8726 2.75225 2.75944 2.54974C2.83395 2.52449 2.91255 2.51059 2.99314 2.51059C3.39285 2.51059 3.71801 2.8347 3.71801 3.23308V6.80149C3.71801 6.99102 3.87218 7.14468 4.06234 7.14468C4.2525 7.14468 4.40667 6.99102 4.40667 6.80149V3.23308C4.40667 2.45623 3.77258 1.82422 2.99314 1.82422C2.73069 1.82422 2.47786 1.89609 2.25828 2.02967C2.04409 1.89941 1.79265 1.82422 1.52393 1.82422C0.74448 1.82422 0.110352 2.45623 0.110352 3.23338L0.116336 10.0005C0.116631 10.3037 0.229245 10.7317 0.378316 10.9961C0.380718 11.0003 0.383163 11.0045 0.385818 11.0086L4.62697 17.8316C4.7164 17.9939 4.79707 18.3031 4.79707 18.4853V19.7786C4.79707 19.9682 4.95124 20.1218 5.1414 20.1218C5.33156 20.1218 5.48573 19.9682 5.48573 19.7786V18.4853C5.48573 18.182 5.37325 17.7539 5.22413 17.4895C5.22173 17.4853 5.21929 17.4811 5.21667 17.477L0.975398 10.654C0.885964 10.4915 0.80517 10.1822 0.80496 9.99992L0.798975 3.23304C0.798975 2.83466 1.12413 2.51055 1.52384 2.51055C1.92356 2.51055 2.24871 2.83466 2.24871 3.23304V9.2983C2.24871 9.30687 2.24939 9.31523 2.25002 9.32359C2.2563 9.67589 2.39365 10.0263 2.66275 10.2945L5.95263 13.5734C6.08712 13.7074 6.30514 13.7074 6.43958 13.5734C6.57407 13.4394 6.57407 13.2221 6.43958 13.0881L3.14975 9.80913C3.01286 9.67269 2.93742 9.49123 2.93742 9.29822C2.93742 9.10524 3.01286 8.92382 3.14975 8.78734C3.28664 8.65087 3.46871 8.57572 3.66233 8.57572C3.85595 8.57572 4.03798 8.65091 4.17634 8.78882L8.27234 12.8218C8.72786 13.2758 9.11265 14.2018 9.11265 14.8438V19.7846C9.11265 19.9742 9.26682 20.1278 9.45698 20.1278C9.64715 20.1278 9.80131 19.9742 9.80131 19.7846V14.8438C9.80131 14.0203 9.34361 12.9189 8.75782 12.3351Z" fill="white"/>
<path d="M8.75782 12.3351L10.8756 10.2102L10.8691 10.2038L10.8626 10.1974L8.75782 12.3351ZM4.66182 8.30205L2.54405 10.4269L2.5505 10.4333L2.557 10.4397L4.66182 8.30205ZM2.93738 8.08812H-0.062622V13.3759L4.47634 10.6633L2.93738 8.08812ZM2.75944 2.54974L1.79679 -0.291619L-1.61837 0.865433L0.140582 4.01316L2.75944 2.54974ZM2.25828 2.02967L0.699443 4.59287L2.2585 5.54103L3.81744 4.59268L2.25828 2.02967ZM0.110352 3.23338H-2.88965L-2.88965 3.23603L0.110352 3.23338ZM0.116336 10.0005L-2.88366 10.0032L-2.88366 10.0035L0.116336 10.0005ZM0.378316 10.9961L-2.23481 12.4697L-2.23222 12.4743L0.378316 10.9961ZM0.385818 11.0086L2.9337 9.42483L2.92047 9.40355L2.90688 9.38249L0.385818 11.0086ZM4.62697 17.8316L7.25465 16.384L7.21655 16.3149L7.17485 16.2478L4.62697 17.8316ZM5.22413 17.4895L7.83729 16.0159L7.83467 16.0113L5.22413 17.4895ZM5.21667 17.477L2.66881 19.0608L2.67628 19.0728L2.68386 19.0847L5.21667 17.477ZM0.975398 10.654L-1.65276 12.1006L-1.61443 12.1703L-1.57247 12.2378L0.975398 10.654ZM0.80496 9.99992L-2.19504 10.0026L-2.19504 10.0034L0.80496 9.99992ZM0.798975 3.23304H-2.20103L-2.20102 3.23569L0.798975 3.23304ZM2.25002 9.32359L5.24954 9.27012L5.248 9.18362L5.24148 9.09735L2.25002 9.32359ZM2.66275 10.2945L0.544812 12.4192L0.544978 12.4194L2.66275 10.2945ZM5.95263 13.5734L3.83485 15.6983H3.83485L5.95263 13.5734ZM6.43958 13.5734L4.32181 11.4486L4.32147 11.4489L6.43958 13.5734ZM6.43958 13.0881L4.32178 15.2129L4.32214 15.2133L6.43958 13.0881ZM3.14975 9.80913L5.26755 7.6843L5.26753 7.68427L3.14975 9.80913ZM4.17634 8.78882L2.05857 10.9137L2.06502 10.9201L2.07152 10.9265L4.17634 8.78882ZM8.27234 12.8218L10.3901 10.697L10.3837 10.6906L10.3772 10.6842L8.27234 12.8218ZM9.80131 14.8438H6.80131H9.80131ZM10.8626 10.1974L6.76665 6.16437L2.557 10.4397L6.653 14.4728L10.8626 10.1974ZM6.7796 6.1772C5.94928 5.34964 4.83232 4.88939 3.66229 4.88939V10.8894C3.24734 10.8894 2.84038 10.7223 2.54405 10.4269L6.7796 6.1772ZM3.66229 4.88939C2.86449 4.88939 2.08346 5.10354 1.39841 5.51293L4.47634 10.6633C4.22498 10.8135 3.94135 10.8894 3.66229 10.8894V4.88939ZM5.93738 8.08812V3.23304H-0.062622V8.08812H5.93738ZM5.93738 3.23304C5.93738 2.45578 5.73292 1.72094 5.37829 1.08632L0.140582 4.01316C0.012281 3.78356 -0.062622 3.51463 -0.062622 3.23304H5.93738ZM3.72209 5.39109C3.50577 5.46438 3.25967 5.51059 2.99314 5.51059V-0.489412C2.56544 -0.489412 2.16213 -0.415396 1.79679 -0.291619L3.72209 5.39109ZM2.99314 5.51059C1.74522 5.51059 0.718006 4.50077 0.718006 3.23308H6.71801C6.71801 1.16864 5.04048 -0.489412 2.99314 -0.489412V5.51059ZM0.718006 3.23308V6.80149H6.71801V3.23308H0.718006ZM0.718006 6.80149C0.718006 8.65731 2.22477 10.1447 4.06234 10.1447V4.14468C5.51958 4.14468 6.71801 5.32473 6.71801 6.80149H0.718006ZM4.06234 10.1447C5.8999 10.1447 7.40667 8.65732 7.40667 6.80149H1.40667C1.40667 5.32473 2.6051 4.14468 4.06234 4.14468V10.1447ZM7.40667 6.80149V3.23308H1.40667V6.80149H7.40667ZM7.40667 3.23308C7.40667 0.790058 5.4201 -1.17578 2.99314 -1.17578V4.82422C2.12507 4.82422 1.40667 4.12241 1.40667 3.23308H7.40667ZM2.99314 -1.17578C2.17881 -1.17578 1.38688 -0.95173 0.699122 -0.533344L3.81744 4.59268C3.56884 4.74391 3.28258 4.82422 2.99314 4.82422V-1.17578ZM3.81712 -0.533539C3.14799 -0.940474 2.35957 -1.17578 1.52393 -1.17578V4.82422C1.22573 4.82422 0.940197 4.73929 0.699443 4.59287L3.81712 -0.533539ZM1.52393 -1.17578C-0.90333 -1.17578 -2.88965 0.79035 -2.88965 3.23338H3.11035C3.11035 4.12212 2.39229 4.82422 1.52393 4.82422V-1.17578ZM-2.88965 3.23603L-2.88366 10.0032L3.11634 9.99789L3.11035 3.23072L-2.88965 3.23603ZM-2.88366 10.0035C-2.88287 10.8223 -2.63684 11.7568 -2.23481 12.4697L2.99144 9.52245C3.04089 9.61014 3.06573 9.6717 3.07487 9.6955C3.08541 9.72291 3.0903 9.74007 3.09277 9.74944C3.09523 9.75881 3.09943 9.7762 3.10377 9.80534C3.10753 9.83064 3.11624 9.89666 3.11633 9.99763L-2.88366 10.0035ZM-2.23222 12.4743C-2.21507 12.5046 -2.18122 12.5634 -2.13525 12.6347L2.90688 9.38249C2.94755 9.44553 2.97651 9.49607 2.98886 9.51788L-2.23222 12.4743ZM-2.16206 12.5924L2.07909 19.4153L7.17485 16.2478L2.9337 9.42483L-2.16206 12.5924ZM1.99928 19.2791C1.92766 19.149 1.89026 19.0517 1.87624 19.0137C1.85913 18.9672 1.84896 18.9323 1.84238 18.907C1.83584 18.8819 1.82732 18.8451 1.81927 18.7938C1.81275 18.7522 1.79707 18.6425 1.79707 18.4853H7.79707C7.79707 18.0381 7.71263 17.6403 7.64873 17.395C7.58396 17.1462 7.46509 16.7661 7.25465 16.384L1.99928 19.2791ZM1.79707 18.4853V19.7786H7.79707V18.4853H1.79707ZM1.79707 19.7786C1.79707 21.6345 3.30384 23.1218 5.1414 23.1218V17.1218C6.59864 17.1218 7.79707 18.3019 7.79707 19.7786H1.79707ZM5.1414 23.1218C6.97896 23.1218 8.48573 21.6345 8.48573 19.7786H2.48573C2.48573 18.3019 3.68417 17.1218 5.1414 17.1218V23.1218ZM8.48573 19.7786V18.4853H2.48573V19.7786H8.48573ZM8.48573 18.4853C8.48573 17.665 8.23964 16.7294 7.83728 16.0159L2.61099 18.9631C2.56145 18.8752 2.53655 18.8135 2.52735 18.7896C2.51676 18.762 2.51182 18.7447 2.50931 18.7351C2.5068 18.7256 2.50257 18.708 2.49821 18.6786C2.49443 18.653 2.48573 18.5867 2.48573 18.4853H8.48573ZM7.83467 16.0113C7.81722 15.9805 7.78796 15.9298 7.74949 15.8692L2.68386 19.0847C2.65062 19.0324 2.62624 18.99 2.6136 18.9677L7.83467 16.0113ZM7.76454 15.8932L3.52326 9.07019L-1.57247 12.2378L2.66881 19.0608L7.76454 15.8932ZM3.60356 9.20734C3.67486 9.33688 3.7121 9.43378 3.72602 9.47156C3.74302 9.51768 3.75312 9.55236 3.75963 9.57734C3.76611 9.60218 3.77458 9.63864 3.7826 9.68958C3.78909 9.73086 3.80478 9.83993 3.80496 9.99645L-2.19504 10.0034C-2.19452 10.4495 -2.11011 10.8463 -2.04619 11.0914C-1.98141 11.3398 -1.86265 11.7193 -1.65276 12.1006L3.60356 9.20734ZM3.80496 9.99726L3.79897 3.23039L-2.20102 3.23569L-2.19504 10.0026L3.80496 9.99726ZM3.79897 3.23304C3.79897 4.50073 2.77176 5.51055 1.52384 5.51055V-0.489454C-0.523498 -0.489454 -2.20103 1.1686 -2.20103 3.23304H3.79897ZM1.52384 5.51055C0.275926 5.51055 -0.751288 4.50072 -0.751288 3.23304H5.24871C5.24871 1.1686 3.57119 -0.489454 1.52384 -0.489454V5.51055ZM-0.751288 3.23304V9.2983H5.24871V3.23304H-0.751288ZM-0.751288 9.2983C-0.751288 9.37996 -0.748092 9.44646 -0.745685 9.48736C-0.743598 9.5228 -0.740851 9.55759 -0.741438 9.54983L5.24148 9.09735C5.24026 9.08123 5.24235 9.10766 5.24394 9.13469C5.24585 9.16717 5.24871 9.22521 5.24871 9.2983H-0.751288ZM-0.749504 9.37705C-0.729959 10.4736 -0.299767 11.5773 0.544812 12.4192L4.7807 8.16981C5.08707 8.47521 5.24256 8.87818 5.24954 9.27012L-0.749504 9.37705ZM0.544978 12.4194L3.83485 15.6983L8.0704 11.4486L4.78053 8.16964L0.544978 12.4194ZM3.83485 15.6983C5.13991 16.999 7.25223 16.9995 8.55769 15.6979L4.32147 11.4489C5.35805 10.4154 7.03432 10.4159 8.0704 11.4486L3.83485 15.6983ZM8.55736 15.6983C9.86796 14.392 9.86844 12.2695 8.55703 10.9629L4.32214 15.2133C3.2797 14.1746 3.28018 12.4867 4.32181 11.4486L8.55736 15.6983ZM8.55739 10.9632L5.26755 7.6843L1.03195 11.934L4.32178 15.2129L8.55739 10.9632ZM5.26753 7.68427C5.69427 8.10959 5.93742 8.69223 5.93742 9.29822H-0.0625799C-0.0625799 10.2902 0.331455 11.2358 1.03198 11.934L5.26753 7.68427ZM5.93742 9.29822C5.93742 9.9046 5.69403 10.487 5.26785 10.9119L1.03165 6.66281C0.331695 7.36065 -0.0625799 8.30588 -0.0625799 9.29822H5.93742ZM5.26785 10.9119C4.8411 11.3373 4.26095 11.5757 3.66233 11.5757V5.57572C2.67647 5.57572 1.73218 5.9644 1.03165 6.66281L5.26785 10.9119ZM3.66233 11.5757C3.05856 11.5757 2.48005 11.3338 2.05857 10.9137L6.29412 6.66396C5.5959 5.96807 4.65334 5.57572 3.66233 5.57572V11.5757ZM2.07152 10.9265L6.16752 14.9595L10.3772 10.6842L6.28117 6.65113L2.07152 10.9265ZM6.15457 14.9467C6.10741 14.8997 6.07867 14.8643 6.06552 14.8473C6.05182 14.8295 6.04724 14.8217 6.04972 14.8257C6.05196 14.8293 6.05807 14.8395 6.0666 14.8562C6.07505 14.8727 6.08414 14.8922 6.09302 14.9136C6.10189 14.935 6.10928 14.9551 6.11502 14.9727C6.12081 14.9904 6.12372 15.0018 6.12464 15.0058C6.12567 15.0102 6.12327 15.0011 6.12033 14.9785C6.11751 14.9569 6.11265 14.911 6.11265 14.8438H12.1126C12.1126 14.0028 11.8817 13.2081 11.6336 12.611C11.3854 12.0137 10.9851 11.29 10.3901 10.697L6.15457 14.9467ZM6.11265 14.8438V19.7846H12.1126V14.8438H6.11265ZM6.11265 19.7846C6.11265 21.6405 7.61943 23.1278 9.45698 23.1278V17.1278C10.9142 17.1278 12.1126 18.3079 12.1126 19.7846H6.11265ZM9.45698 23.1278C11.2945 23.1278 12.8013 21.6405 12.8013 19.7846H6.80131C6.80131 18.3079 7.99974 17.1278 9.45698 17.1278V23.1278ZM12.8013 19.7846V14.8438H6.80131V19.7846H12.8013ZM12.8013 14.8438C12.8013 13.933 12.5631 13.0543 12.2693 12.3477C11.9753 11.6406 11.5202 10.8527 10.8756 10.2102L6.64005 14.4599C6.59786 14.4179 6.60108 14.4114 6.63207 14.4604C6.66055 14.5055 6.69594 14.5715 6.72919 14.6514C6.76245 14.7314 6.78414 14.8027 6.79581 14.8538C6.80855 14.9097 6.80131 14.9057 6.80131 14.8438H12.8013Z" fill="white" mask="url(#path-1-inside-1_7523_8678)"/>
<mask id="path-3-inside-2_7523_8678" fill="white">
<path d="M18.4642 1.82422C18.2203 1.82422 17.992 1.89941 17.7976 2.02967C17.5982 1.89609 17.3686 1.82422 17.1304 1.82422C16.4227 1.82422 15.847 2.45623 15.847 3.23308V6.80149C15.847 6.99102 15.987 7.14468 16.1596 7.14468C16.3323 7.14468 16.4722 6.99102 16.4722 6.80149V3.23308C16.4722 2.8347 16.7675 2.51059 17.1303 2.51059C17.2035 2.51059 17.2749 2.52449 17.3425 2.54974C17.2397 2.75229 17.1809 2.98521 17.1809 3.23304V8.08812C16.9841 7.95858 16.7583 7.88939 16.5228 7.88939C16.18 7.88939 15.8577 8.03595 15.6167 8.30058L11.8953 12.3366C11.3648 12.9189 10.9492 14.0203 10.9492 14.8438V19.7847C10.9492 19.9742 11.0892 20.1279 11.2618 20.1279C11.4345 20.1279 11.5745 19.9742 11.5745 19.7847V14.8439C11.5745 14.2019 11.9238 13.276 12.336 12.8234L16.0574 8.78747C16.1817 8.65104 16.347 8.57585 16.5228 8.57585C16.6986 8.57585 16.8638 8.65104 16.9882 8.78747C17.1124 8.9239 17.1809 9.10537 17.1809 9.29834C17.1809 9.49136 17.1124 9.67278 16.9882 9.80925L14.0013 13.0882C13.8792 13.2222 13.8792 13.4395 14.0013 13.5735C14.1234 13.7075 14.3213 13.7075 14.4434 13.5735L17.4303 10.2946C17.6746 10.0263 17.7993 9.67597 17.805 9.32367C17.8055 9.31531 17.8062 9.30687 17.8062 9.29838V3.23313C17.8062 2.83474 18.1014 2.51063 18.4643 2.51063C18.8272 2.51063 19.1224 2.83475 19.1224 3.23279L19.117 10C19.1169 10.1823 19.0434 10.4916 18.9622 10.6541L15.1117 17.477C15.1094 17.4811 15.1071 17.4853 15.1049 17.4895C14.9695 17.7539 14.8674 18.182 14.8674 18.4854V19.7787C14.8674 19.9682 15.0074 20.1219 15.18 20.1219C15.3527 20.1219 15.4926 19.9682 15.4926 19.7787V18.4854C15.4926 18.3031 15.5659 17.9939 15.647 17.8316L19.4976 11.0086C19.4999 11.0045 19.5021 11.0003 19.5044 10.9961C19.6397 10.7317 19.742 10.3037 19.7422 10.0006L19.7476 3.23308C19.7476 2.45628 19.1719 1.82422 18.4642 1.82422Z"/>
</mask>
<path d="M18.4642 1.82422C18.2203 1.82422 17.992 1.89941 17.7976 2.02967C17.5982 1.89609 17.3686 1.82422 17.1304 1.82422C16.4227 1.82422 15.847 2.45623 15.847 3.23308V6.80149C15.847 6.99102 15.987 7.14468 16.1596 7.14468C16.3323 7.14468 16.4722 6.99102 16.4722 6.80149V3.23308C16.4722 2.8347 16.7675 2.51059 17.1303 2.51059C17.2035 2.51059 17.2749 2.52449 17.3425 2.54974C17.2397 2.75229 17.1809 2.98521 17.1809 3.23304V8.08812C16.9841 7.95858 16.7583 7.88939 16.5228 7.88939C16.18 7.88939 15.8577 8.03595 15.6167 8.30058L11.8953 12.3366C11.3648 12.9189 10.9492 14.0203 10.9492 14.8438V19.7847C10.9492 19.9742 11.0892 20.1279 11.2618 20.1279C11.4345 20.1279 11.5745 19.9742 11.5745 19.7847V14.8439C11.5745 14.2019 11.9238 13.276 12.336 12.8234L16.0574 8.78747C16.1817 8.65104 16.347 8.57585 16.5228 8.57585C16.6986 8.57585 16.8638 8.65104 16.9882 8.78747C17.1124 8.9239 17.1809 9.10537 17.1809 9.29834C17.1809 9.49136 17.1124 9.67278 16.9882 9.80925L14.0013 13.0882C13.8792 13.2222 13.8792 13.4395 14.0013 13.5735C14.1234 13.7075 14.3213 13.7075 14.4434 13.5735L17.4303 10.2946C17.6746 10.0263 17.7993 9.67597 17.805 9.32367C17.8055 9.31531 17.8062 9.30687 17.8062 9.29838V3.23313C17.8062 2.83474 18.1014 2.51063 18.4643 2.51063C18.8272 2.51063 19.1224 2.83475 19.1224 3.23279L19.117 10C19.1169 10.1823 19.0434 10.4916 18.9622 10.6541L15.1117 17.477C15.1094 17.4811 15.1071 17.4853 15.1049 17.4895C14.9695 17.7539 14.8674 18.182 14.8674 18.4854V19.7787C14.8674 19.9682 15.0074 20.1219 15.18 20.1219C15.3527 20.1219 15.4926 19.9682 15.4926 19.7787V18.4854C15.4926 18.3031 15.5659 17.9939 15.647 17.8316L19.4976 11.0086C19.4999 11.0045 19.5021 11.0003 19.5044 10.9961C19.6397 10.7317 19.742 10.3037 19.7422 10.0006L19.7476 3.23308C19.7476 2.45628 19.1719 1.82422 18.4642 1.82422Z" fill="white"/>
<path d="M17.7976 2.02967L15.5713 5.35287L17.7977 6.84438L20.024 5.35276L17.7976 2.02967ZM17.3425 2.54974L20.9095 4.35972L22.9349 0.368129L18.7417 -1.19757L17.3425 2.54974ZM17.1809 8.08812L14.9822 11.4296L21.1809 15.5086V8.08812H17.1809ZM15.6167 8.30058L18.5574 11.0121L18.5657 11.0031L18.5739 10.994L15.6167 8.30058ZM11.8953 12.3366L8.95455 9.62505L8.94635 9.63395L8.9382 9.64289L11.8953 12.3366ZM12.336 12.8234L9.39532 10.1119L9.38711 10.1208L9.37897 10.1298L12.336 12.8234ZM16.0574 8.78747L18.9981 11.499L19.0063 11.4901L19.0145 11.4811L16.0574 8.78747ZM16.9882 8.78747L19.9452 6.0938L19.9448 6.09335L16.9882 8.78747ZM16.9882 9.80925L19.9452 12.5029L19.9456 12.5025L16.9882 9.80925ZM14.0013 13.0882L11.0443 10.3945L11.0443 10.3945L14.0013 13.0882ZM14.0013 13.5735L16.9584 10.8798L16.9579 10.8794L14.0013 13.5735ZM14.4434 13.5735L11.4864 10.8798L11.4859 10.8803L14.4434 13.5735ZM17.4303 10.2946L14.4732 7.60092L14.4732 7.60092L17.4303 10.2946ZM17.805 9.32367L13.8132 9.06785L13.8071 9.16331L13.8055 9.25895L17.805 9.32367ZM19.1224 3.23279L23.1224 3.236V3.23279H19.1224ZM19.117 10L15.117 9.99683L15.117 9.99752L19.117 10ZM18.9622 10.6541L22.4457 12.62L22.4951 12.5327L22.5399 12.4429L18.9622 10.6541ZM15.1117 17.477L18.5913 19.45L18.5952 19.443L15.1117 17.477ZM15.1049 17.4895L11.5549 15.6463L11.5498 15.6561L11.5448 15.666L15.1049 17.4895ZM15.647 17.8316L12.1635 15.8657L12.1141 15.9532L12.0692 16.043L15.647 17.8316ZM19.4976 11.0086L16.018 9.03569L16.014 9.04271L19.4976 11.0086ZM19.5044 10.9961L23.0411 12.8647L23.0531 12.842L23.0647 12.8192L19.5044 10.9961ZM19.7422 10.0006L15.7422 9.99738L15.7422 9.99756L19.7422 10.0006ZM19.7476 3.23308L23.7476 3.2363V3.23269L19.7476 3.23308ZM18.4642 -2.17578C17.3795 -2.17578 16.3833 -1.83755 15.5711 -1.29343L20.024 5.35276C19.6007 5.63637 19.061 5.82422 18.4642 5.82422V-2.17578ZM20.0238 -1.29354C19.1882 -1.85335 18.1879 -2.17578 17.1304 -2.17578V5.82422C16.5493 5.82422 16.0081 5.64553 15.5713 5.35287L20.0238 -1.29354ZM17.1304 -2.17578C13.8706 -2.17578 11.847 0.606464 11.847 3.23308H19.847C19.847 4.306 18.9749 5.82422 17.1304 5.82422V-2.17578ZM11.847 3.23308V6.80149H19.847V3.23308H11.847ZM11.847 6.80149C11.847 8.84078 13.4348 11.1447 16.1596 11.1447V3.14468C18.5391 3.14468 19.847 5.14126 19.847 6.80149H11.847ZM16.1596 11.1447C18.8844 11.1447 20.4722 8.8408 20.4722 6.80149H12.4722C12.4722 5.14124 13.7801 3.14468 16.1596 3.14468V11.1447ZM20.4722 6.80149V3.23308H12.4722V6.80149H20.4722ZM20.4722 3.23308C20.4722 4.68432 19.3198 6.51059 17.1303 6.51059V-1.48941C14.2152 -1.48941 12.4722 0.985084 12.4722 3.23308H20.4722ZM17.1303 6.51059C16.6921 6.51059 16.2906 6.42671 15.9433 6.29704L18.7417 -1.19757C18.2591 -1.37773 17.7149 -1.48941 17.1303 -1.48941V6.51059ZM13.7754 0.739755C13.391 1.49729 13.1809 2.34963 13.1809 3.23304H21.1809C21.1809 3.62079 21.0884 4.00729 20.9095 4.35972L13.7754 0.739755ZM13.1809 3.23304V8.08812H21.1809V3.23304H13.1809ZM19.3797 4.74666C18.5454 4.19763 17.558 3.88939 16.5228 3.88939V11.8894C15.9585 11.8894 15.4228 11.7195 14.9822 11.4296L19.3797 4.74666ZM16.5228 3.88939C14.9956 3.88939 13.618 4.55465 12.6594 5.60715L18.5739 10.994C18.0974 11.5172 17.3643 11.8894 16.5228 11.8894V3.88939ZM12.676 5.58908L8.95455 9.62505L14.836 15.0481L18.5574 11.0121L12.676 5.58908ZM8.9382 9.64289C8.23418 10.4158 7.76946 11.3227 7.48084 12.0876C7.18885 12.8615 6.94922 13.8291 6.94922 14.8438H14.9492C14.9492 14.9071 14.9453 14.9502 14.943 14.9713C14.9405 14.993 14.9385 15.0016 14.9393 14.9976C14.9417 14.9864 14.9498 14.9541 14.9658 14.9118C14.9819 14.8691 14.9946 14.8462 14.9935 14.8481C14.9921 14.8506 14.9828 14.8667 14.9632 14.8943C14.944 14.9213 14.9082 14.9689 14.8523 15.0302L8.9382 9.64289ZM6.94922 14.8438V19.7847H14.9492V14.8438H6.94922ZM6.94922 19.7847C6.94922 21.824 8.53703 24.1279 11.2618 24.1279V16.1279C13.6414 16.1279 14.9492 18.1245 14.9492 19.7847H6.94922ZM11.2618 24.1279C13.9866 24.1279 15.5745 21.824 15.5745 19.7847H7.57445C7.57445 18.1245 8.88234 16.1279 11.2618 16.1279V24.1279ZM15.5745 19.7847V14.8439H7.57445V19.7847H15.5745ZM15.5745 14.8439C15.5745 15.0277 15.5518 15.1352 15.5479 15.1536C15.542 15.1811 15.5395 15.1844 15.5435 15.1738C15.5476 15.1628 15.5451 15.173 15.5252 15.2083C15.5112 15.233 15.4426 15.353 15.2931 15.5171L9.37897 10.1298C8.71548 10.8581 8.30166 11.7048 8.05786 12.3514C7.8097 13.0096 7.57445 13.8943 7.57445 14.8439H15.5745ZM15.2767 15.5349L18.9981 11.499L13.1167 6.07596L9.39532 10.1119L15.2767 15.5349ZM19.0145 11.4811C18.4238 12.1295 17.535 12.5758 16.5228 12.5758V4.57585C15.159 4.57585 13.9396 5.17253 13.1004 6.0938L19.0145 11.4811ZM16.5228 12.5758C15.5103 12.5758 14.6217 12.1293 14.0315 11.4816L19.9448 6.09335C19.106 5.17278 17.8869 4.57585 16.5228 4.57585V12.5758ZM14.0311 11.4811C13.4517 10.8451 13.1809 10.0523 13.1809 9.29834H21.1809C21.1809 8.15844 20.7731 7.00269 19.9452 6.0938L14.0311 11.4811ZM13.1809 9.29834C13.1809 8.54418 13.4519 7.75164 14.0307 7.11604L19.9456 12.5025C20.773 11.5939 21.1809 10.4385 21.1809 9.29834H13.1809ZM14.0311 7.11559L11.0443 10.3945L16.9584 15.7818L19.9452 12.5029L14.0311 7.11559ZM11.0443 10.3945C9.53178 12.0549 9.5312 14.6067 11.0447 16.2676L16.9579 10.8794C18.2272 12.2723 18.2266 14.3895 16.9584 15.7818L11.0443 10.3945ZM11.0443 16.2672C12.7527 18.1427 15.6919 18.1434 17.4009 16.2667L11.4859 10.8803C12.9508 9.27166 15.4941 9.27236 16.9584 10.8798L11.0443 16.2672ZM17.4005 16.2672L20.3873 12.9882L14.4732 7.60092L11.4864 10.8798L17.4005 16.2672ZM20.3873 12.9882C21.3483 11.9333 21.7845 10.6207 21.8045 9.38839L13.8055 9.25895C13.814 8.73122 14.0009 8.1194 14.4732 7.60092L20.3873 12.9882ZM21.7968 9.57949C21.7966 9.58242 21.7965 9.58455 21.7965 9.5837C21.7965 9.58342 21.7965 9.58349 21.7966 9.58298C21.7966 9.58263 21.7966 9.58213 21.7967 9.58155C21.7967 9.58041 21.7969 9.57866 21.797 9.57658C21.7975 9.56907 21.7986 9.55108 21.7999 9.52862C21.8022 9.48471 21.8062 9.40189 21.8062 9.29838H13.8062C13.8062 9.20336 13.8098 9.129 13.8117 9.09353C13.8127 9.07528 13.8136 9.0615 13.8138 9.05819C13.8139 9.0567 13.814 9.05509 13.8139 9.05737C13.8138 9.0586 13.8135 9.06283 13.8132 9.06785L21.7968 9.57949ZM21.8062 9.29838V3.23313H13.8062V9.29838H21.8062ZM21.8062 3.23313C21.8062 4.68436 20.6537 6.51063 18.4643 6.51063V-1.48937C15.5491 -1.48937 13.8062 0.985126 13.8062 3.23313H21.8062ZM18.4643 6.51063C16.2762 6.51063 15.1224 4.68577 15.1224 3.23279H23.1224C23.1224 0.983717 21.3782 -1.48937 18.4643 -1.48937V6.51063ZM15.1224 3.22958L15.117 9.99683L23.117 10.0033L23.1224 3.236L15.1224 3.22958ZM15.117 9.99752C15.1171 9.79782 15.1354 9.65365 15.1444 9.59048C15.1551 9.51563 15.1671 9.45716 15.1777 9.41248C15.1883 9.36779 15.2037 9.31041 15.2275 9.2392C15.2476 9.17917 15.2956 9.04297 15.3845 8.86533L22.5399 12.4429C22.7722 11.9784 22.8971 11.5319 22.9623 11.2565C23.0275 10.9815 23.1166 10.5245 23.117 10.0026L15.117 9.99752ZM15.4787 8.68817L11.6281 15.5111L18.5952 19.443L22.4457 12.62L15.4787 8.68817ZM11.6321 15.5041C11.6003 15.5602 11.5743 15.609 11.5549 15.6463L18.6549 19.3328C18.6399 19.3617 18.6184 19.402 18.5913 19.45L11.6321 15.5041ZM11.5448 15.666C11.1139 16.5072 10.8674 17.562 10.8674 18.4854H18.8674C18.8674 18.6238 18.8565 18.7219 18.8498 18.772C18.8425 18.8266 18.834 18.8684 18.8263 18.9008C18.8186 18.9331 18.8069 18.9759 18.7876 19.0311C18.7701 19.0814 18.7329 19.1807 18.6651 19.313L11.5448 15.666ZM10.8674 18.4854V19.7787H18.8674V18.4854H10.8674ZM10.8674 19.7787C10.8674 21.818 12.4553 24.1219 15.18 24.1219V16.1219C17.5595 16.1219 18.8674 18.1184 18.8674 19.7787H10.8674ZM15.18 24.1219C17.9048 24.1219 19.4926 21.818 19.4926 19.7787H11.4926C11.4926 18.1184 12.8005 16.1219 15.18 16.1219V24.1219ZM19.4926 19.7787V18.4854H11.4926V19.7787H19.4926ZM19.4926 18.4854C19.4926 18.6852 19.4745 18.8295 19.4655 18.8928C19.4548 18.9678 19.4427 19.0264 19.4321 19.0712C19.4215 19.1161 19.4061 19.1737 19.3822 19.2451C19.3621 19.3054 19.314 19.442 19.2249 19.6201L12.0692 16.043C11.8367 16.5082 11.7118 16.9554 11.6467 17.2308C11.5816 17.5061 11.4926 17.9632 11.4926 18.4854H19.4926ZM19.1306 19.7975L22.9811 12.9746L16.014 9.04271L12.1635 15.8657L19.1306 19.7975ZM22.9771 12.9816C23.0079 12.9273 23.0313 12.8832 23.0411 12.8647L15.9676 9.12753C15.973 9.11742 15.9918 9.08177 16.018 9.03569L22.9771 12.9816ZM23.0647 12.8192C23.4948 11.9794 23.7415 10.926 23.7422 10.0036L15.7422 9.99756C15.7423 9.8593 15.7532 9.76139 15.76 9.71158C15.7673 9.65713 15.7758 9.61562 15.7835 9.58343C15.7911 9.55136 15.8027 9.50884 15.8219 9.45386C15.8393 9.40391 15.8764 9.30491 15.944 9.17301L23.0647 12.8192ZM23.7422 10.0038L23.7476 3.2363L15.7476 3.22987L15.7422 9.99738L23.7422 10.0038ZM23.7476 3.23269C23.7474 0.606712 21.7243 -2.17578 18.4642 -2.17578V5.82422C16.6195 5.82422 15.7478 4.30584 15.7476 3.23348L23.7476 3.23269Z" fill="white" mask="url(#path-3-inside-2_7523_8678)"/>
<mask id="path-5-inside-3_7523_8678" fill="white">
<path d="M15.3102 1.13785C15.5003 1.13785 15.6545 0.984197 15.6545 0.794668V-1.03572C15.6545 -1.22525 15.5003 -1.37891 15.3102 -1.37891H5.43906C5.2489 -1.37891 5.09473 -1.22525 5.09473 -1.03572V0.794626C5.09473 0.984155 5.2489 1.13781 5.43906 1.13781H5.55382V1.82418H5.43906C5.2489 1.82418 5.09473 1.97784 5.09473 2.16737V3.9978C5.09473 4.18733 5.2489 4.34098 5.43906 4.34098H5.55382V5.02735H5.43906C5.2489 5.02735 5.09473 5.18101 5.09473 5.37054V7.20089C5.09473 7.39041 5.2489 7.54407 5.43906 7.54407H15.3102C15.5004 7.54407 15.6545 7.39041 15.6545 7.20089V5.37054C15.6545 5.18101 15.5004 5.02735 15.3102 5.02735H15.1954V4.34098H15.3102C15.5004 4.34098 15.6545 4.18733 15.6545 3.9978V2.16745C15.6545 1.97792 15.5004 1.82427 15.3102 1.82427H15.1954V1.1379L15.3102 1.13785ZM14.9658 6.85774H5.78339V5.71376H14.9658V6.85774ZM14.9658 3.65461H13.4737C13.2835 3.65461 13.1294 3.80827 13.1294 3.9978C13.1294 4.18733 13.2835 4.34098 13.4737 4.34098H14.5067V5.02735H6.24249V4.34098H12.0963C12.2865 4.34098 12.4406 4.18733 12.4406 3.9978C12.4406 3.80827 12.2865 3.65461 12.0963 3.65461H5.78339V2.51064H14.9658V3.65461ZM6.24249 1.82422V1.13785H14.5067V1.82422H6.24249ZM14.9658 0.451442H5.78339V-0.692536H14.9658V0.451442Z"/>
</mask>
<path d="M15.3102 1.13785C15.5003 1.13785 15.6545 0.984197 15.6545 0.794668V-1.03572C15.6545 -1.22525 15.5003 -1.37891 15.3102 -1.37891H5.43906C5.2489 -1.37891 5.09473 -1.22525 5.09473 -1.03572V0.794626C5.09473 0.984155 5.2489 1.13781 5.43906 1.13781H5.55382V1.82418H5.43906C5.2489 1.82418 5.09473 1.97784 5.09473 2.16737V3.9978C5.09473 4.18733 5.2489 4.34098 5.43906 4.34098H5.55382V5.02735H5.43906C5.2489 5.02735 5.09473 5.18101 5.09473 5.37054V7.20089C5.09473 7.39041 5.2489 7.54407 5.43906 7.54407H15.3102C15.5004 7.54407 15.6545 7.39041 15.6545 7.20089V5.37054C15.6545 5.18101 15.5004 5.02735 15.3102 5.02735H15.1954V4.34098H15.3102C15.5004 4.34098 15.6545 4.18733 15.6545 3.9978V2.16745C15.6545 1.97792 15.5004 1.82427 15.3102 1.82427H15.1954V1.1379L15.3102 1.13785ZM14.9658 6.85774H5.78339V5.71376H14.9658V6.85774ZM14.9658 3.65461H13.4737C13.2835 3.65461 13.1294 3.80827 13.1294 3.9978C13.1294 4.18733 13.2835 4.34098 13.4737 4.34098H14.5067V5.02735H6.24249V4.34098H12.0963C12.2865 4.34098 12.4406 4.18733 12.4406 3.9978C12.4406 3.80827 12.2865 3.65461 12.0963 3.65461H5.78339V2.51064H14.9658V3.65461ZM6.24249 1.82422V1.13785H14.5067V1.82422H6.24249ZM14.9658 0.451442H5.78339V-0.692536H14.9658V0.451442Z" fill="white"/>
<path d="M15.3102 1.13785V-1.86215L15.3091 -1.86215L15.3102 1.13785ZM5.55382 1.13781H8.55382V-1.86219H5.55382V1.13781ZM5.55382 1.82418V4.82418H8.55382V1.82418H5.55382ZM5.55382 4.34098H8.55382V1.34098H5.55382V4.34098ZM5.55382 5.02735V8.02735H8.55382V5.02735H5.55382ZM15.1954 5.02735H12.1954V8.02735H15.1954V5.02735ZM15.1954 4.34098V1.34098H12.1954V4.34098H15.1954ZM15.1954 1.82427H12.1954V4.82427H15.1954V1.82427ZM15.1954 1.1379L15.1943 -1.8621L12.1954 -1.86101V1.1379H15.1954ZM14.9658 6.85774V9.85774H17.9658V6.85774H14.9658ZM5.78339 6.85774H2.78339V9.85774H5.78339V6.85774ZM5.78339 5.71376V2.71376H2.78339V5.71376H5.78339ZM14.9658 5.71376H17.9658V2.71376H14.9658V5.71376ZM14.9658 3.65461V6.65461H17.9658V3.65461H14.9658ZM14.5067 4.34098H17.5067V1.34098H14.5067V4.34098ZM14.5067 5.02735V8.02735H17.5067V5.02735H14.5067ZM6.24249 5.02735H3.24249V8.02735H6.24249V5.02735ZM6.24249 4.34098V1.34098H3.24249V4.34098H6.24249ZM5.78339 3.65461H2.78339V6.65461H5.78339V3.65461ZM5.78339 2.51064V-0.489365H2.78339V2.51064H5.78339ZM14.9658 2.51064H17.9658V-0.489365H14.9658V2.51064ZM6.24249 1.82422H3.24249V4.82422H6.24249V1.82422ZM6.24249 1.13785V-1.86215H3.24249V1.13785H6.24249ZM14.5067 1.13785H17.5067V-1.86215H14.5067V1.13785ZM14.5067 1.82422V4.82422H17.5067V1.82422H14.5067ZM14.9658 0.451442V3.45144H17.9658V0.451442H14.9658ZM5.78339 0.451442H2.78339V3.45144H5.78339V0.451442ZM5.78339 -0.692536V-3.69254H2.78339V-0.692536H5.78339ZM14.9658 -0.692536H17.9658V-3.69254H14.9658V-0.692536ZM15.3102 4.13785C17.1477 4.13785 18.6545 2.65049 18.6545 0.794668H12.6545C12.6545 -0.682098 13.8529 -1.86215 15.3102 -1.86215V4.13785ZM18.6545 0.794668V-1.03572H12.6545V0.794668H18.6545ZM18.6545 -1.03572C18.6545 -2.89155 17.1477 -4.37891 15.3102 -4.37891V1.62109C13.8529 1.62109 12.6545 0.441046 12.6545 -1.03572H18.6545ZM15.3102 -4.37891H5.43906V1.62109H15.3102V-4.37891ZM5.43906 -4.37891C3.60149 -4.37891 2.09473 -2.89154 2.09473 -1.03572H8.09473C8.09473 0.441038 6.8963 1.62109 5.43906 1.62109V-4.37891ZM2.09473 -1.03572V0.794626H8.09473V-1.03572H2.09473ZM2.09473 0.794626C2.09473 2.65044 3.60149 4.13781 5.43906 4.13781V-1.86219C6.8963 -1.86219 8.09473 -0.682132 8.09473 0.794626H2.09473ZM5.43906 4.13781H5.55382V-1.86219H5.43906V4.13781ZM2.55382 1.13781V1.82418H8.55382V1.13781H2.55382ZM5.55382 -1.17582H5.43906V4.82418H5.55382V-1.17582ZM5.43906 -1.17582C3.60149 -1.17582 2.09473 0.311552 2.09473 2.16737H8.09473C8.09473 3.64412 6.8963 4.82418 5.43906 4.82418V-1.17582ZM2.09473 2.16737V3.9978H8.09473V2.16737H2.09473ZM2.09473 3.9978C2.09473 5.85362 3.60149 7.34098 5.43906 7.34098V1.34098C6.8963 1.34098 8.09473 2.52104 8.09473 3.9978H2.09473ZM5.43906 7.34098H5.55382V1.34098H5.43906V7.34098ZM2.55382 4.34098V5.02735H8.55382V4.34098H2.55382ZM5.55382 2.02735H5.43906V8.02735H5.55382V2.02735ZM5.43906 2.02735C3.60149 2.02735 2.09473 3.51472 2.09473 5.37054H8.09473C8.09473 6.8473 6.8963 8.02735 5.43906 8.02735V2.02735ZM2.09473 5.37054V7.20089H8.09473V5.37054H2.09473ZM2.09473 7.20089C2.09473 9.0567 3.60149 10.5441 5.43906 10.5441V4.54407C6.8963 4.54407 8.09473 5.72412 8.09473 7.20089H2.09473ZM5.43906 10.5441H15.3102V4.54407H5.43906V10.5441ZM15.3102 10.5441C17.1478 10.5441 18.6545 9.05671 18.6545 7.20089H12.6545C12.6545 5.72412 13.853 4.54407 15.3102 4.54407V10.5441ZM18.6545 7.20089V5.37054H12.6545V7.20089H18.6545ZM18.6545 5.37054C18.6545 3.51471 17.1478 2.02735 15.3102 2.02735V8.02735C13.853 8.02735 12.6545 6.84731 12.6545 5.37054H18.6545ZM15.3102 2.02735H15.1954V8.02735H15.3102V2.02735ZM18.1954 5.02735V4.34098H12.1954V5.02735H18.1954ZM15.1954 7.34098H15.3102V1.34098H15.1954V7.34098ZM15.3102 7.34098C17.1478 7.34098 18.6545 5.85362 18.6545 3.9978H12.6545C12.6545 2.52103 13.853 1.34098 15.3102 1.34098V7.34098ZM18.6545 3.9978V2.16745H12.6545V3.9978H18.6545ZM18.6545 2.16745C18.6545 0.311628 17.1478 -1.17573 15.3102 -1.17573V4.82427C13.853 4.82427 12.6545 3.64421 12.6545 2.16745H18.6545ZM15.3102 -1.17573H15.1954V4.82427H15.3102V-1.17573ZM18.1954 1.82427V1.1379H12.1954V1.82427H18.1954ZM15.1965 4.1379L15.3113 4.13785L15.3091 -1.86215L15.1943 -1.8621L15.1965 4.1379ZM14.9658 3.85774H5.78339V9.85774H14.9658V3.85774ZM8.78339 6.85774V5.71376H2.78339V6.85774H8.78339ZM5.78339 8.71376H14.9658V2.71376H5.78339V8.71376ZM11.9658 5.71376V6.85774H17.9658V5.71376H11.9658ZM14.9658 0.654613H13.4737V6.65461H14.9658V0.654613ZM13.4737 0.654613C11.6361 0.654613 10.1294 2.14197 10.1294 3.9978H16.1294C16.1294 5.47457 14.9309 6.65461 13.4737 6.65461V0.654613ZM10.1294 3.9978C10.1294 5.85362 11.6361 7.34098 13.4737 7.34098V1.34098C14.9309 1.34098 16.1294 2.52103 16.1294 3.9978H10.1294ZM13.4737 7.34098H14.5067V1.34098H13.4737V7.34098ZM11.5067 4.34098V5.02735H17.5067V4.34098H11.5067ZM14.5067 2.02735H6.24249V8.02735H14.5067V2.02735ZM9.24249 5.02735V4.34098H3.24249V5.02735H9.24249ZM6.24249 7.34098H12.0963V1.34098H6.24249V7.34098ZM12.0963 7.34098C13.9339 7.34098 15.4406 5.85361 15.4406 3.9978H9.44064C9.44064 2.52104 10.6391 1.34098 12.0963 1.34098V7.34098ZM15.4406 3.9978C15.4406 2.14199 13.9339 0.654613 12.0963 0.654613V6.65461C10.6391 6.65461 9.44064 5.47455 9.44064 3.9978H15.4406ZM12.0963 0.654613H5.78339V6.65461H12.0963V0.654613ZM8.78339 3.65461V2.51064H2.78339V3.65461H8.78339ZM5.78339 5.51064H14.9658V-0.489365H5.78339V5.51064ZM11.9658 2.51064V3.65461H17.9658V2.51064H11.9658ZM9.24249 1.82422V1.13785H3.24249V1.82422H9.24249ZM6.24249 4.13785H14.5067V-1.86215H6.24249V4.13785ZM11.5067 1.13785V1.82422H17.5067V1.13785H11.5067ZM14.5067 -1.17578H6.24249V4.82422H14.5067V-1.17578ZM14.9658 -2.54856H5.78339V3.45144H14.9658V-2.54856ZM8.78339 0.451442V-0.692536H2.78339V0.451442H8.78339ZM5.78339 2.30746H14.9658V-3.69254H5.78339V2.30746ZM11.9658 -0.692536V0.451442H17.9658V-0.692536H11.9658Z" fill="white" mask="url(#path-5-inside-3_7523_8678)"/>
</g>
<defs>
<clipPath id="clip0_7523_8678">
<rect width="19.4945" height="18.6823" fill="white" transform="translate(0.25293 0.0332031)"/>
</clipPath>
</defs>
</svg>
