<svg width="20" height="27" viewBox="0 0 20 27" fill="none" xmlns="http://www.w3.org/2000/svg">
<path d="M10 12.825C9.0528 12.825 8.14439 12.4694 7.47462 11.8365C6.80485 11.2035 6.42857 10.3451 6.42857 9.45C6.42857 8.55489 6.80485 7.69645 7.47462 7.06351C8.14439 6.43058 9.0528 6.075 10 6.075C10.9472 6.075 11.8556 6.43058 12.5254 7.06351C13.1952 7.69645 13.5714 8.55489 13.5714 9.45C13.5714 9.89321 13.4791 10.3321 13.2996 10.7416C13.1201 11.151 12.857 11.5231 12.5254 11.8365C12.1937 12.1499 11.8 12.3985 11.3667 12.5681C10.9334 12.7377 10.469 12.825 10 12.825ZM10 0C7.34784 0 4.8043 0.995622 2.92893 2.76784C1.05357 4.54006 0 6.9437 0 9.45C0 16.5375 10 27 10 27C10 27 20 16.5375 20 9.45C20 6.9437 18.9464 4.54006 17.0711 2.76784C15.1957 0.995622 12.6522 0 10 0Z" fill="white"/>
</svg>
