<svg width="22" height="22" viewBox="0 0 22 22" fill="none" xmlns="http://www.w3.org/2000/svg">
<path d="M11.0001 20.3599C16.1695 20.3599 20.3601 16.1693 20.3601 10.9999C20.3601 5.83039 16.1695 1.63989 11.0001 1.63989C5.83063 1.63989 1.64014 5.83039 1.64014 10.9999C1.64014 16.1693 5.83063 20.3599 11.0001 20.3599Z" stroke="white" stroke-width="2" stroke-linecap="round" stroke-linejoin="round"/>
<path d="M10.1349 5.23999C11.106 5.23998 12.062 5.47356 12.9184 5.92006C13.7748 6.36655 14.5052 7.01217 15.0447 7.79974C15.5842 8.5873 15.9163 9.49249 16.0115 10.4351C16.1067 11.3778 15.9622 12.3288 15.5906 13.2039C15.219 14.0791 14.632 14.8513 13.8814 15.4523C13.1308 16.0532 12.2398 16.4644 11.2875 16.6492C10.3351 16.8341 9.35065 16.787 8.42138 16.5121C7.49211 16.2372 6.64667 15.7431 5.95996 15.0734L10.1349 10.9999V5.23999Z" stroke="white" stroke-width="2" stroke-linecap="round" stroke-linejoin="round"/>
</svg>
