<svg width="15" height="23" viewBox="0 0 15 23" fill="none" xmlns="http://www.w3.org/2000/svg">
<path d="M6.69878 22.88V0.319999H9.09878V22.88H6.69878ZM7.56278 20.288C6.21878 20.288 4.93078 20.112 3.69878 19.76C2.46678 19.392 1.47478 18.92 0.722781 18.344L2.04278 15.416C2.76278 15.928 3.61078 16.352 4.58678 16.688C5.57878 17.008 6.57878 17.168 7.58678 17.168C8.35478 17.168 8.97078 17.096 9.43478 16.952C9.91478 16.792 10.2668 16.576 10.4908 16.304C10.7148 16.032 10.8268 15.72 10.8268 15.368C10.8268 14.92 10.6508 14.568 10.2988 14.312C9.94678 14.04 9.48278 13.824 8.90678 13.664C8.33078 13.488 7.69078 13.328 6.98678 13.184C6.29878 13.024 5.60278 12.832 4.89878 12.608C4.21078 12.384 3.57878 12.096 3.00278 11.744C2.42678 11.392 1.95478 10.928 1.58678 10.352C1.23478 9.776 1.05878 9.04 1.05878 8.144C1.05878 7.184 1.31478 6.312 1.82678 5.528C2.35478 4.728 3.13878 4.096 4.17878 3.632C5.23478 3.152 6.55478 2.912 8.13878 2.912C9.19478 2.912 10.2348 3.04 11.2588 3.296C12.2828 3.536 13.1868 3.904 13.9708 4.4L12.7708 7.352C11.9868 6.904 11.2028 6.576 10.4188 6.368C9.63478 6.144 8.86678 6.032 8.11478 6.032C7.36278 6.032 6.74678 6.12 6.26678 6.296C5.78678 6.472 5.44278 6.704 5.23478 6.992C5.02678 7.264 4.92278 7.584 4.92278 7.952C4.92278 8.384 5.09878 8.736 5.45078 9.008C5.80278 9.264 6.26678 9.472 6.84278 9.632C7.41878 9.792 8.05078 9.952 8.73878 10.112C9.44278 10.272 10.1388 10.456 10.8268 10.664C11.5308 10.872 12.1708 11.152 12.7468 11.504C13.3228 11.856 13.7868 12.32 14.1388 12.896C14.5068 13.472 14.6908 14.2 14.6908 15.08C14.6908 16.024 14.4268 16.888 13.8988 17.672C13.3708 18.456 12.5788 19.088 11.5228 19.568C10.4828 20.048 9.16278 20.288 7.56278 20.288Z" fill="white"/>
</svg>
