<svg width="20" height="19" viewBox="0 0 20 19" fill="none" xmlns="http://www.w3.org/2000/svg">
<path d="M17.9116 1.77749L13.1435 1.77751V0.593889C13.1435 0.265765 12.877 0 12.548 0C12.219 0 11.9525 0.265765 11.9525 0.593889V1.77721H7.1886V0.593889C7.1886 0.265765 6.92212 0 6.59311 0C6.2641 0 5.99762 0.265765 5.99762 0.593889V1.77721H1.23786C0.580137 1.77721 0.046875 2.30904 0.046875 2.96499V17.8122C0.046875 18.4682 0.580137 19 1.23786 19H17.9116C18.5693 19 19.1026 18.4682 19.1026 17.8122V2.96499C19.1026 2.30932 18.5693 1.77749 17.9116 1.77749ZM17.9116 17.8122H1.23786V2.96499H5.99762V3.56334C5.99762 3.89144 6.2641 4.15722 6.59311 4.15722C6.92212 4.15722 7.1886 3.89144 7.1886 3.56334V2.96529H11.9525V3.56363C11.9525 3.89176 12.219 4.15752 12.548 4.15752C12.877 4.15752 13.1435 3.89176 13.1435 3.56363V2.96529H17.9116V17.8122ZM13.7432 9.49805H14.9342C15.2629 9.49805 15.5296 9.23199 15.5296 8.90416V7.71638C15.5296 7.38856 15.2629 7.12249 14.9342 7.12249H13.7432C13.4145 7.12249 13.1477 7.38856 13.1477 7.71638V8.90416C13.1477 9.23199 13.4145 9.49805 13.7432 9.49805ZM13.7432 14.2489H14.9342C15.2629 14.2489 15.5296 13.9831 15.5296 13.655V12.4672C15.5296 12.1394 15.2629 11.8733 14.9342 11.8733H13.7432C13.4145 11.8733 13.1477 12.1394 13.1477 12.4672V13.655C13.1477 13.9834 13.4145 14.2489 13.7432 14.2489ZM10.1702 11.8733H8.97924C8.65053 11.8733 8.38375 12.1394 8.38375 12.4672V13.655C8.38375 13.9831 8.65053 14.2489 8.97924 14.2489H10.1702C10.4989 14.2489 10.7657 13.9831 10.7657 13.655V12.4672C10.7657 12.1397 10.4989 11.8733 10.1702 11.8733ZM10.1702 7.12249H8.97924C8.65053 7.12249 8.38375 7.38856 8.38375 7.71638V8.90416C8.38375 9.23199 8.65053 9.49805 8.97924 9.49805H10.1702C10.4989 9.49805 10.7657 9.23199 10.7657 8.90416V7.71638C10.7657 7.38826 10.4989 7.12249 10.1702 7.12249ZM5.4063 7.12249H4.21531C3.8866 7.12249 3.61982 7.38856 3.61982 7.71638V8.90416C3.61982 9.23199 3.8866 9.49805 4.21531 9.49805H5.4063C5.73501 9.49805 6.00179 9.23199 6.00179 8.90416V7.71638C6.00179 7.38826 5.73501 7.12249 5.4063 7.12249ZM5.4063 11.8733H4.21531C3.8866 11.8733 3.61982 12.1394 3.61982 12.4672V13.655C3.61982 13.9831 3.8866 14.2489 4.21531 14.2489H5.4063C5.73501 14.2489 6.00179 13.9831 6.00179 13.655V12.4672C6.00179 12.1397 5.73501 11.8733 5.4063 11.8733Z" fill="white"/>
</svg>
