<svg width="23" height="23" viewBox="0 0 23 23" fill="none" xmlns="http://www.w3.org/2000/svg">
<path d="M11.4888 0C5.27875 0 0.25 5.04 0.25 11.25C0.25 17.46 5.27875 22.5 11.4888 22.5C17.71 22.5 22.75 17.46 22.75 11.25C22.75 5.04 17.71 0 11.4888 0ZM11.5 20.25C6.5275 20.25 2.5 16.2225 2.5 11.25C2.5 6.2775 6.5275 2.25 11.5 2.25C16.4725 2.25 20.5 6.2775 20.5 11.25C20.5 16.2225 16.4725 20.25 11.5 20.25Z" fill="white"/>
<path d="M12.0625 6H10.375V12.75L16.2812 16.2938L17.125 14.91L12.0625 11.9063V6Z" fill="white"/>
</svg>
