<svg width="26" height="23" viewBox="0 0 26 23" fill="none" xmlns="http://www.w3.org/2000/svg">
<path d="M23.3516 2.5H19.3891L17.8391 0.8125C17.3766 0.3 16.7016 0 16.0016 0H10.7016C10.0016 0 9.32656 0.3 8.85156 0.8125L7.31406 2.5H3.35156C1.97656 2.5 0.851562 3.625 0.851562 5V20C0.851562 21.375 1.97656 22.5 3.35156 22.5H23.3516C24.7266 22.5 25.8516 21.375 25.8516 20V5C25.8516 3.625 24.7266 2.5 23.3516 2.5ZM13.3516 18.75C9.90156 18.75 7.10156 15.95 7.10156 12.5C7.10156 9.05 9.90156 6.25 13.3516 6.25C16.8016 6.25 19.6016 9.05 19.6016 12.5C19.6016 15.95 16.8016 18.75 13.3516 18.75ZM13.3516 7.5L11.7891 10.9375L8.35156 12.5L11.7891 14.0625L13.3516 17.5L14.9141 14.0625L18.3516 12.5L14.9141 10.9375L13.3516 7.5Z" fill="#E60023"/>
</svg>
