<svg width="9" height="9" viewBox="0 0 9 9" fill="none" xmlns="http://www.w3.org/2000/svg">
<path d="M6.27809 5.82863L6.05034 6.04171C6.05034 6.04171 5.50904 6.5483 4.03155 5.16557C2.55406 3.78289 3.09535 3.27633 3.09535 3.27633L3.23875 3.14212C3.59205 2.81151 3.62535 2.28072 3.3171 1.89322L2.68663 1.10056C2.30514 0.620955 1.56798 0.5576 1.13072 0.966796L0.345924 1.70124C0.129114 1.90414 -0.0161759 2.16716 0.0014441 2.45893C0.0465191 3.20539 0.405354 4.81145 2.40768 6.68529C4.53104 8.6724 6.52339 8.75137 7.33814 8.67989C7.59584 8.6573 7.81994 8.53377 8.00054 8.36473L8.71084 7.70007C9.19029 7.25137 9.05509 6.48214 8.44164 6.1683L7.48639 5.67955C7.08359 5.47348 6.59289 5.534 6.27809 5.82863Z" fill="#E60023"/>
</svg>
