<svg width="21" height="21" viewBox="0 0 21 21" fill="none" xmlns="http://www.w3.org/2000/svg">
<path d="M17.9363 0.543945H2.78207C1.59139 0.543945 0.617188 1.51814 0.617188 2.70883V17.863C0.617188 19.0537 1.59139 20.0279 2.78207 20.0279H17.9363C19.127 20.0279 20.1012 19.0537 20.1012 17.863V2.70883C20.1012 1.51814 19.127 0.543945 17.9363 0.543945ZM8.96283 14.9296C8.54068 15.3518 7.85874 15.3518 7.43658 14.9296L3.55061 11.0436C3.12846 10.6215 3.12846 9.93956 3.55061 9.5174C3.97276 9.09525 4.6547 9.09525 5.07686 9.5174L8.19429 12.6348L15.6415 5.18763C16.0637 4.76548 16.7456 4.76548 17.1678 5.18763C17.5899 5.60978 17.5899 6.29172 17.1678 6.71387L8.96283 14.9296Z" fill="#F10027"/>
</svg>
