<svg width="8" height="11" viewBox="0 0 8 11" fill="none" xmlns="http://www.w3.org/2000/svg">
<path fill-rule="evenodd" clip-rule="evenodd" d="M0.0332031 4.657C0.0332031 2.5482 1.79542 0.84375 3.927 0.84375C6.06457 0.84375 7.8268 2.5482 7.8268 4.657C7.8268 5.71965 7.44033 6.70618 6.80423 7.54239C6.10249 8.46474 5.23758 9.2684 4.264 9.89917C4.04118 10.045 3.84009 10.056 3.59554 9.89917C2.61643 9.2684 1.7515 8.46474 1.05577 7.54239C0.419207 6.70618 0.0332031 5.71965 0.0332031 4.657ZM2.64419 4.77623C2.64419 5.48268 3.22065 6.03831 3.92748 6.03831C4.63475 6.03831 5.21679 5.48268 5.21679 4.77623C5.21679 4.07529 4.63475 3.49262 3.92748 3.49262C3.22065 3.49262 2.64419 4.07529 2.64419 4.77623Z" fill="#E60023"/>
</svg>
