<svg width="20" height="19" viewBox="0 0 20 19" fill="none" xmlns="http://www.w3.org/2000/svg">
<path d="M12.75 12.2188C13.716 12.2188 14.5 13.0028 14.5 13.9688L14.499 14.9307C14.616 17.1208 12.988 18.2278 10.067 18.2278C7.157 18.2278 5.5 17.1378 5.5 14.9688V13.9688C5.5 13.0028 6.284 12.2188 7.25 12.2188H12.75ZM1.75 7.21875H6.126C5.95152 7.89774 5.95823 8.61063 6.14546 9.28621C6.3327 9.9618 6.6939 10.5764 7.193 11.0688L7.355 11.2198L7.25 11.2188C6.64983 11.2185 6.06607 11.4147 5.58778 11.7772C5.10949 12.1398 4.76294 12.6488 4.601 13.2267L4.567 13.2278C1.657 13.2278 0 12.1377 0 9.96875V8.96875C0 8.00275 0.784 7.21875 1.75 7.21875ZM18.25 7.21875C19.216 7.21875 20 8.00275 20 8.96875L19.999 9.93075C20.116 12.1208 18.488 13.2278 15.567 13.2278L15.398 13.2257C15.2443 12.6811 14.9265 12.1969 14.488 11.8391C14.0495 11.4812 13.5115 11.2671 12.947 11.2257L12.75 11.2188L12.645 11.2198C13.2001 10.7322 13.6089 10.1 13.8259 9.39379C14.0429 8.68754 14.0596 7.9349 13.874 7.21975L18.25 7.21875ZM10 5.21875C10.394 5.21875 10.7841 5.29635 11.1481 5.44711C11.512 5.59788 11.8427 5.81885 12.1213 6.09743C12.3999 6.37601 12.6209 6.70672 12.7716 7.0707C12.9224 7.43468 13 7.82478 13 8.21875C13 8.61272 12.9224 9.00282 12.7716 9.3668C12.6209 9.73078 12.3999 10.0615 12.1213 10.3401C11.8427 10.6186 11.512 10.8396 11.1481 10.9904C10.7841 11.1412 10.394 11.2188 10 11.2188C9.20435 11.2188 8.44129 10.9027 7.87868 10.3401C7.31607 9.77746 7 9.0144 7 8.21875C7 7.4231 7.31607 6.66004 7.87868 6.09743C8.44129 5.53482 9.20435 5.21875 10 5.21875ZM4.5 0.21875C5.29565 0.21875 6.05871 0.534821 6.62132 1.09743C7.18393 1.66004 7.5 2.4231 7.5 3.21875C7.5 4.0144 7.18393 4.77746 6.62132 5.34007C6.05871 5.90268 5.29565 6.21875 4.5 6.21875C3.70435 6.21875 2.94129 5.90268 2.37868 5.34007C1.81607 4.77746 1.5 4.0144 1.5 3.21875C1.5 2.4231 1.81607 1.66004 2.37868 1.09743C2.94129 0.534821 3.70435 0.21875 4.5 0.21875ZM15.5 0.21875C16.2957 0.21875 17.0587 0.534821 17.6213 1.09743C18.1839 1.66004 18.5 2.4231 18.5 3.21875C18.5 4.0144 18.1839 4.77746 17.6213 5.34007C17.0587 5.90268 16.2957 6.21875 15.5 6.21875C14.7044 6.21875 13.9413 5.90268 13.3787 5.34007C12.8161 4.77746 12.5 4.0144 12.5 3.21875C12.5 2.4231 12.8161 1.66004 13.3787 1.09743C13.9413 0.534821 14.7044 0.21875 15.5 0.21875Z" fill="#231F20"/>
</svg>
