<svg width="27" height="28" viewBox="0 0 27 28" fill="none" xmlns="http://www.w3.org/2000/svg">
<path d="M26.9341 22.2468C26.8728 22.0379 26.7296 21.86 26.5346 21.7506C26.3396 21.6412 26.1081 21.6089 25.8888 21.6605L23.7197 22.2217C24.9066 20.5393 25.6263 18.593 25.8104 16.5678C25.9883 14.6731 25.7002 12.7646 24.9693 10.9967C24.2384 9.22883 23.0852 7.65105 21.6029 6.39089C21.4316 6.25462 21.2125 6.18652 20.9906 6.20053C20.7687 6.21455 20.5608 6.30962 20.4095 6.46627C20.2572 6.63297 20.1799 6.85096 20.1946 7.07238C20.2093 7.2938 20.3148 7.50057 20.4879 7.6473C21.7651 8.73136 22.7588 10.0895 23.3884 11.6117C24.018 13.1339 24.2658 14.7772 24.1117 16.4087C23.9625 18.127 23.3631 19.7811 22.3695 21.2165L22.1517 19.1141C22.1681 18.9904 22.1556 18.8647 22.1151 18.7462C22.0745 18.6278 22.0069 18.5195 21.9173 18.4293C21.8277 18.3391 21.7182 18.2694 21.5969 18.2251C21.4757 18.1808 21.3457 18.1631 21.2164 18.1733C21.0871 18.1835 20.9618 18.2213 20.8497 18.284C20.7375 18.3467 20.6414 18.4327 20.5682 18.5357C20.4951 18.6388 20.4468 18.7562 20.4268 18.8794C20.4069 19.0027 20.4159 19.1287 20.453 19.2482L20.8886 24.6423L26.333 23.2519C26.5487 23.1913 26.7317 23.0528 26.8437 22.8655C26.9557 22.6782 26.9881 22.4565 26.9341 22.2468V22.2468Z" fill="#231F20"/>
<path d="M1.51392 14.5396C1.6297 14.6112 1.76066 14.6569 1.89721 14.6736C2.12455 14.7023 2.35449 14.6436 2.53713 14.5103C2.71978 14.377 2.84041 14.1799 2.87286 13.9616C3.2328 11.4062 4.58342 9.07586 6.65426 7.43725C8.7251 5.79863 11.3633 4.9727 14.0405 5.12487L12.0892 6.40641C11.9511 6.50642 11.8472 6.64366 11.7905 6.80067C11.7338 6.95769 11.7269 7.12737 11.7708 7.28813C11.8147 7.44889 11.9074 7.59346 12.037 7.70344C12.1666 7.81341 12.3273 7.88383 12.4986 7.90572C12.6949 7.92297 12.8914 7.87573 13.0561 7.7717L17.6992 4.70606L13.7269 0.869824C13.6562 0.765677 13.5623 0.677972 13.452 0.613076C13.3416 0.54818 13.2177 0.507722 13.089 0.494639C12.9604 0.481555 12.8304 0.496175 12.7084 0.537436C12.5864 0.578698 12.4754 0.645566 12.3837 0.733185C12.2919 0.820805 12.2215 0.926977 12.1777 1.04399C12.1339 1.16101 12.1178 1.28594 12.1305 1.4097C12.1432 1.53346 12.1843 1.65296 12.251 1.75951C12.3177 1.86607 12.4083 1.957 12.5161 2.02572L13.9969 3.44965C10.9052 3.30751 7.87042 4.28505 5.49166 6.18931C3.11289 8.09356 1.56304 10.7861 1.14806 13.7355C1.12572 13.8889 1.14809 14.0453 1.21269 14.1873C1.27728 14.3292 1.38155 14.4512 1.51392 14.5396V14.5396Z" fill="#231F20"/>
<path d="M16.6902 25.3038C15.3299 25.7216 13.895 25.867 12.474 25.731C10.7434 25.5679 9.08009 25.0022 7.62768 24.0829C6.17526 23.1635 4.97738 21.9181 4.13744 20.4541L6.30651 21.233C6.50645 21.2664 6.71223 21.2316 6.88832 21.1346C7.06441 21.0376 7.19977 20.8846 7.27102 20.7019C7.34228 20.5192 7.34496 20.3183 7.2786 20.1339C7.21225 19.9495 7.08102 19.7931 6.90757 19.6918L2.90917 18.2679L1.62864 17.824L0.661706 23.1428C0.628185 23.3553 0.680932 23.5721 0.809031 23.7483C0.93713 23.9245 1.13077 24.0466 1.34988 24.0893H1.49797C1.703 24.0929 1.90277 24.0268 2.06211 23.9027C2.22145 23.7786 2.33016 23.6044 2.36908 23.4108L2.73495 21.4006C3.7202 23.0601 5.10409 24.4689 6.77104 25.5093C8.438 26.5497 10.3396 27.1915 12.3172 27.3811C13.9705 27.5386 15.6399 27.3675 17.2215 26.8785C17.4229 26.7983 17.5857 26.6484 17.6778 26.4585C17.7699 26.2685 17.7846 26.0523 17.7189 25.8524C17.6533 25.6525 17.5121 25.4836 17.3233 25.3789C17.1344 25.2743 16.9116 25.2415 16.6989 25.2871L16.6902 25.3038Z" fill="#231F20"/>
<path d="M16.9245 11.1248H9.95558C9.72455 11.1248 9.50298 11.213 9.33962 11.3701C9.17625 11.5272 9.08447 11.7402 9.08447 11.9624V18.6632C9.08447 18.8854 9.17625 19.0984 9.33962 19.2555C9.50298 19.4126 9.72455 19.5008 9.95558 19.5008H16.9245C17.1555 19.5008 17.3771 19.4126 17.5404 19.2555C17.7038 19.0984 17.7956 18.8854 17.7956 18.6632V11.9624C17.7956 11.7402 17.7038 11.5272 17.5404 11.3701C17.3771 11.213 17.1555 11.1248 16.9245 11.1248ZM16.0534 17.8256H10.8267V12.8H16.0534V17.8256Z" fill="#231F20"/>
</svg>
