<svg width="26" height="24" viewBox="0 0 26 24" fill="none" xmlns="http://www.w3.org/2000/svg">
<path d="M16.6051 19.7535C16.2863 19.8968 15.9554 20.0213 15.6216 20.1237C15.3368 20.211 15.1768 20.5126 15.2641 20.7975C15.3352 21.0296 15.5487 21.1788 15.7796 21.1788C15.8319 21.1788 15.8852 21.1711 15.9379 21.155C16.3143 21.0396 16.6876 20.8991 17.0473 20.7375C17.319 20.6153 17.4403 20.2961 17.3182 20.0245C17.1961 19.7528 16.8768 19.6315 16.6051 19.7535Z" fill="#231F20"/>
<path d="M11.2479 3.7036C11.2852 3.7036 11.3231 3.69974 11.361 3.69162C11.7021 3.6188 12.0518 3.56675 12.4004 3.53673C12.6972 3.51119 12.917 3.24992 12.8915 2.95311C12.866 2.65634 12.605 2.43661 12.3079 2.46195C11.9149 2.49577 11.5206 2.55457 11.1359 2.63664C10.8446 2.69879 10.6588 2.98535 10.721 3.27668C10.775 3.53008 10.9988 3.7036 11.2479 3.7036Z" fill="#231F20"/>
<path d="M14.893 3.68735C15.235 3.75951 15.5759 3.85401 15.9062 3.96822C15.9646 3.98843 16.024 3.99798 16.0825 3.99798C16.306 3.99798 16.5151 3.85787 16.5922 3.63479C16.6896 3.35326 16.5403 3.04613 16.2587 2.94878C15.8861 2.81985 15.5015 2.71331 15.1157 2.63186C14.824 2.57031 14.5381 2.75683 14.4766 3.04827C14.4151 3.33965 14.6015 3.6258 14.893 3.68735Z" fill="#231F20"/>
<path d="M7.82313 5.23647C7.93337 5.23647 8.04469 5.20276 8.14061 5.13283C8.42306 4.92671 8.72114 4.73618 9.02629 4.56667C9.28669 4.42199 9.38054 4.09364 9.23586 3.83324C9.09119 3.57283 8.76294 3.47893 8.50243 3.62366C8.15859 3.81465 7.82287 4.02925 7.50468 4.26137C7.26408 4.43692 7.21131 4.77436 7.38687 5.01502C7.49254 5.15974 7.65667 5.23647 7.82313 5.23647Z" fill="#231F20"/>
<path d="M13.1556 20.4944C13.1548 20.4944 13.1541 20.4944 13.1533 20.4944H13.1357C12.7851 20.4944 12.4319 20.4727 12.0861 20.43C11.7903 20.3932 11.5211 20.6034 11.4846 20.899C11.448 21.1946 11.6581 21.464 11.9537 21.5005C12.3433 21.5486 12.741 21.5731 13.1357 21.5731H13.1576C13.4554 21.5719 13.696 21.3294 13.6948 21.0316C13.6936 20.7344 13.4524 20.4944 13.1556 20.4944Z" fill="#231F20"/>
<path d="M9.68392 19.761C9.36502 19.6186 9.05159 19.4545 8.75229 19.2733C8.49742 19.1191 8.16587 19.2006 8.01159 19.4555C7.85737 19.7103 7.93893 20.042 8.19375 20.1962C8.53114 20.4004 8.88452 20.5853 9.244 20.7459C9.31545 20.7778 9.39015 20.7929 9.46368 20.7929C9.67001 20.7929 9.86689 20.6739 9.95641 20.4734C10.0779 20.2015 9.95591 19.8825 9.68392 19.761Z" fill="#231F20"/>
<path d="M21.9008 14.2627C21.6174 14.171 21.3133 14.3264 21.2215 14.6098C21.114 14.9421 20.9844 15.2712 20.8361 15.588C20.7099 15.8578 20.8263 16.1789 21.096 16.3051C21.17 16.3397 21.2477 16.3561 21.3242 16.3561C21.5271 16.3561 21.7215 16.2412 21.8131 16.0452C21.9803 15.688 22.1266 15.3168 22.2479 14.942C22.3396 14.6585 22.1842 14.3544 21.9008 14.2627Z" fill="#231F20"/>
<path d="M6.17263 16.8599C6.00175 16.6159 5.66547 16.5566 5.42147 16.7274C5.17747 16.8982 5.11815 17.2346 5.28893 17.4786C5.5146 17.8008 5.76272 18.1125 6.02643 18.405C6.13297 18.5231 6.27972 18.5832 6.42714 18.5832C6.55587 18.5832 6.68506 18.5373 6.7882 18.4443C7.00945 18.2449 7.02702 17.9039 6.8275 17.6826C6.5934 17.423 6.37301 17.1461 6.17263 16.8599Z" fill="#231F20"/>
<path d="M20.2197 17.6282C19.9981 17.4293 19.6571 17.4476 19.4581 17.6692C19.2245 17.9294 18.9724 18.1777 18.7086 18.4074C18.4839 18.603 18.4604 18.9437 18.656 19.1683C18.7627 19.2908 18.9124 19.3535 19.063 19.3535C19.1886 19.3535 19.3148 19.3099 19.417 19.2209C19.7139 18.9623 19.9978 18.6827 20.2607 18.3899C20.4597 18.1682 20.4413 17.8273 20.2197 17.6282Z" fill="#231F20"/>
<path d="M25.9277 10.7016L21.5069 3.04451C21.4329 2.91619 21.3092 2.82402 21.1651 2.78954C21.021 2.75516 20.869 2.78152 20.7449 2.86251L20.6061 2.95311C18.5085 1.21481 15.8953 0.268555 13.1366 0.268555C10.0031 0.268555 7.05714 1.48878 4.84145 3.70446C4.32932 4.21659 3.87173 4.76848 3.46888 5.35211L2.9663 5.21846C2.67883 5.14198 2.38369 5.31281 2.3067 5.60013L0.0183982 14.1406C-0.0187229 14.2789 0.00082789 14.4263 0.072531 14.5503C0.144285 14.6743 0.262351 14.7647 0.40073 14.8014L1.84058 15.1843C2.37693 17.0977 3.39794 18.8511 4.84145 20.2947C7.05719 22.5104 10.0031 23.7307 13.1366 23.7307C16.27 23.7307 19.2159 22.5104 21.4317 20.2947C23.6467 18.0797 24.8668 15.1349 24.8675 12.0026L25.7555 11.423C25.9953 11.2664 26.071 10.9496 25.9277 10.7016ZM13.1366 1.34735C15.588 1.34735 17.8481 2.18027 19.6502 3.57721L17.8725 4.73781C17.6327 4.89437 17.557 5.21109 17.7003 5.45916L17.8507 5.71972L16.9248 6.25429C16.595 6.44472 16.2268 6.50962 15.7683 6.45767L11.602 5.35089C10.904 5.16377 10.1806 5.56225 9.91952 6.2776C9.91054 6.30243 9.90322 6.32788 9.89794 6.35377C9.83005 6.68339 9.84117 7.01119 9.91775 7.31643L9.86707 7.30282C9.33782 7.16099 8.77288 7.13591 8.23328 7.2301C7.84719 7.29764 7.44297 7.27957 7.0643 7.1781L6.03161 6.90135L6.1088 6.61321C6.14592 6.47489 6.12637 6.32747 6.05466 6.20346C5.98291 6.0795 5.86484 5.98911 5.72647 5.95235L4.59044 5.65025C6.53358 3.04111 9.64053 1.34735 13.1366 1.34735ZM19.9103 10.477C19.6975 10.1085 19.3549 9.84503 18.9457 9.73545L11.6453 7.77204C11.1598 7.64194 10.8592 7.13844 10.9464 6.61387C11.0114 6.46991 11.1501 6.34661 11.3238 6.39308C11.3238 6.39308 15.5754 7.52083 15.5995 7.52382C16.3096 7.61259 16.9195 7.50285 17.464 7.18841L18.3898 6.65384L21.4361 11.9301L20.1918 12.5295C20.0861 12.405 19.9611 12.2957 19.8192 12.2076C19.9317 12.0542 20.0181 11.8778 20.0702 11.6831C20.18 11.2739 20.1231 10.8456 19.9103 10.477ZM12.8852 13.5802L17.7002 14.8704C17.8995 14.981 18.0064 15.2179 17.9444 15.4495C17.8725 15.7178 17.5958 15.8775 17.3274 15.8057L12.0381 14.4045C11.7503 14.3273 11.4546 14.4981 11.3775 14.7858C11.3003 15.0736 11.4711 15.3693 11.7588 15.4465L16.304 16.6643C16.5034 16.7749 16.6104 17.0118 16.5484 17.2434C16.5136 17.3734 16.4302 17.482 16.3136 17.5493C16.1972 17.6165 16.0615 17.6345 15.9314 17.5996L7.65006 15.3806C7.29307 15.285 6.96477 15.1205 6.6743 14.892L6.6097 14.8412C6.20386 14.5218 5.74505 14.292 5.24618 14.1584L4.16459 13.8686L5.75226 7.94338L6.7849 8.22009C7.31404 8.36182 7.87903 8.387 8.41868 8.2928C8.80488 8.22537 9.20909 8.24334 9.58767 8.3448L18.6666 10.7775C18.9391 10.8506 19.1014 11.1316 19.0273 11.4078C18.9547 11.6782 18.6831 11.8325 18.4087 11.7596L18.4076 11.7593C18.3654 11.748 14.1109 10.624 14.1109 10.624C13.823 10.5469 13.5274 10.7177 13.4503 11.0054C13.3732 11.2931 13.5439 11.5889 13.8317 11.666L19.1134 13.0652C19.386 13.1382 19.5483 13.4193 19.4752 13.6917C19.4034 13.96 19.1264 14.1199 18.8582 14.0479L13.1643 12.5383C12.8763 12.461 12.5809 12.632 12.5038 12.9196C12.4267 13.2074 12.5975 13.5031 12.8852 13.5802ZM1.20018 13.8978L3.20939 6.39932L4.92676 6.85595L2.9176 14.3544L1.20018 13.8978ZM13.1366 22.652C8.49369 22.652 4.53519 19.6661 3.08005 15.5138L3.16069 15.5353C3.20711 15.5477 3.25372 15.5536 3.29963 15.5536C3.53779 15.5536 3.7557 15.3946 3.82029 15.1537L3.88544 14.9105L4.96703 15.2003C5.32397 15.2959 5.65222 15.4603 5.94274 15.689L6.00734 15.7398C6.41313 16.0591 6.87194 16.2889 7.37086 16.4226L15.6522 18.6416C15.7885 18.6781 15.9269 18.6962 16.0644 18.6962C16.3386 18.6962 16.6092 18.6243 16.853 18.4835C17.2191 18.2722 17.481 17.9308 17.5904 17.5225C17.6472 17.3106 17.6583 17.097 17.6297 16.8923C18.2592 16.8227 18.8129 16.3763 18.9864 15.7287C19.039 15.5322 19.0524 15.3343 19.0314 15.1434C19.7131 15.1246 20.332 14.6625 20.5173 13.9709C20.5555 13.8284 20.5719 13.6853 20.5704 13.5445L21.977 12.8668L22.121 13.1162C22.3155 13.4675 22.7945 13.3559 22.883 13.2982L23.7632 12.7236C23.3896 18.2608 18.7669 22.652 13.1366 22.652ZM22.7704 12.0834L18.8897 5.36191L20.8576 4.07725L24.7382 10.7988L22.7704 12.0834Z" fill="#231F20"/>
</svg>
