<svg width="22" height="24" viewBox="0 0 22 24" fill="none" xmlns="http://www.w3.org/2000/svg">
<path d="M21.5 0.873047L20.54 1.24805L3.359 8.21705H0.5V16.217H3.35975L4.83575 16.811L4.81325 16.904V16.936C4.33175 19.048 5.2235 21.396 6.87575 22.06C6.88325 22.063 6.89225 22.057 6.89825 22.06C8.4905 22.705 10.253 21.53 10.7428 19.31L10.7653 19.216L20.54 23.186L21.5 23.56V0.873047ZM20 3.56105V20.873L3.71 14.247L3.61775 14.217H2V10.217H3.617L3.71075 10.187L20 3.56005V3.56105ZM6.26525 17.404L9.33575 18.624L9.31325 18.717V18.747C9.05525 19.917 8.12375 20.489 7.32125 20.154C6.44375 19.811 5.99225 18.6 6.24275 17.529V17.499L6.26525 17.404Z" fill="#231F20"/>
</svg>
