<svg width="23" height="25" viewBox="0 0 23 25" fill="none" xmlns="http://www.w3.org/2000/svg">
<path d="M3.53846 0.291016V17.8295C3.53846 18.3418 3.14481 18.7526 2.65385 18.7526C2.16288 18.7526 1.76923 18.3418 1.76923 17.8295V6.75255H2.65385V4.9064H0V17.8295C0 19.3479 1.19865 20.5987 2.65385 20.5987H11.5C11.3231 20.0449 11.2231 19.3987 11.2231 18.7526H5.14315C5.244 18.4609 5.30858 18.1553 5.30858 17.8295V2.13717H19.4624V12.291C20.0817 12.4756 20.7009 12.7526 21.2317 13.2141V0.291016H3.53846ZM7.07692 3.98332V7.67563H17.6923V3.98332H7.07692ZM7.07692 9.52178V11.3679H11.5V9.52178H7.07692ZM13.2692 9.52178V11.3679H17.6923V9.52178H13.2692ZM7.07692 12.291V14.1372H11.5V12.291H7.07692ZM17.6923 13.2141C14.7518 13.2141 12.3846 15.6842 12.3846 18.7526C12.3846 21.8209 14.7518 24.291 17.6923 24.291V22.4449C15.6789 22.4449 14.1538 20.8535 14.1538 18.7526C14.1538 16.6516 15.6789 15.0602 17.6923 15.0602C19.7057 15.0602 21.2308 16.6516 21.2308 18.7526C21.2308 19.5538 21.0123 20.2941 20.6222 20.8876L19.4615 19.6756L19.0192 23.8295L23 23.3679L21.8942 22.2141C22.6293 21.2504 23 20.0236 23 18.7526C23 15.6842 20.6328 13.2141 17.6923 13.2141ZM7.07692 15.0602V16.9064H11.5V15.0602H7.07692Z" fill="#231F20"/>
</svg>
