<svg width="21" height="22" viewBox="0 0 21 22" fill="none" xmlns="http://www.w3.org/2000/svg">
<path d="M1.85504 10.5244C1.9009 8.29934 2.80648 6.17843 4.3819 4.60644C5.17535 3.81299 6.09821 3.18799 7.12604 2.75342C8.19049 2.3042 9.32086 2.07471 10.4854 2.07471C11.6524 2.07471 12.7828 2.30176 13.8448 2.75342C14.8726 3.18799 15.7955 3.81299 16.5889 4.60644C16.8331 4.85059 17.0601 5.10693 17.2701 5.37305L16.0494 6.32764C16.0203 6.35013 15.9982 6.38038 15.9855 6.4149C15.9728 6.44942 15.9702 6.48681 15.9778 6.52277C15.9855 6.55873 16.0031 6.5918 16.0288 6.61818C16.0544 6.64455 16.0869 6.66317 16.1226 6.67188L19.9507 7.60693C20.0728 7.63623 20.1924 7.54346 20.1924 7.41895L20.212 3.47607C20.212 3.3125 20.024 3.21973 19.897 3.32227L18.73 4.23535C16.816 1.78662 13.835 0.216797 10.4879 0.216797C4.76276 0.216797 0.106995 4.80908 0.00201417 10.5146C0.00136255 10.5407 0.00593293 10.5666 0.0154561 10.5909C0.0249793 10.6152 0.0392626 10.6373 0.0574644 10.6559C0.0756661 10.6746 0.0974182 10.6894 0.121439 10.6995C0.145459 10.7096 0.171262 10.7149 0.197327 10.7148H1.66217C1.76715 10.7148 1.8526 10.6294 1.85504 10.5244ZM20.8028 10.7148H19.338C19.233 10.7148 19.1451 10.8003 19.1426 10.9053C19.0968 13.1304 18.1912 15.2513 16.6158 16.8232C15.8296 17.6127 14.8977 18.242 13.8716 18.6763C12.8072 19.1255 11.6768 19.355 10.5123 19.355C9.34772 19.355 8.2149 19.1279 7.15289 18.6763C6.12688 18.242 5.19492 17.6127 4.40875 16.8232C4.16461 16.5791 3.93756 16.3228 3.7276 16.0566L4.94586 15.1021C4.97494 15.0796 4.99708 15.0493 5.00974 15.0148C5.02239 14.9803 5.02504 14.9429 5.01739 14.9069C5.00974 14.871 4.9921 14.8379 4.96649 14.8115C4.94087 14.7851 4.90834 14.7665 4.87262 14.7578L1.04449 13.8228C0.922424 13.7935 0.802796 13.8862 0.802796 14.0107L0.783264 17.9585C0.783264 18.1221 0.971253 18.2148 1.09821 18.1123L2.2652 17.1992C4.18414 19.6431 7.1651 21.2129 10.5123 21.2129C16.2374 21.2129 20.8931 16.6206 20.9981 10.915C20.9988 10.889 20.9942 10.8631 20.9847 10.8388C20.9751 10.8145 20.9609 10.7924 20.9427 10.7738C20.9245 10.7551 20.9027 10.7403 20.8787 10.7302C20.8547 10.72 20.8289 10.7148 20.8028 10.7148Z" fill="#231F20"/>
<path d="M11.568 9.67516L11.0012 9.53742V6.40201C11.8491 6.52341 12.3734 7.07905 12.4627 7.76076C12.4738 7.85415 12.5497 7.92185 12.639 7.92185H13.6408C13.7456 7.92185 13.8282 7.82613 13.8193 7.71641C13.6832 6.26193 12.5386 5.32808 11.0102 5.16699V4.40357C11.0102 4.30084 10.9298 4.2168 10.8317 4.2168H10.2047C10.1065 4.2168 10.0262 4.30084 10.0262 4.40357V5.174C8.44649 5.33509 7.2104 6.24792 7.2104 7.9522C7.2104 9.53042 8.32154 10.2915 9.48847 10.5833L10.0396 10.7304V14.0619C9.05338 13.9242 8.50004 13.3732 8.38625 12.6308C8.37286 12.5421 8.297 12.4767 8.20998 12.4767H7.17916C7.07429 12.4767 6.99174 12.5701 7.00066 12.6798C7.10107 13.9639 8.03149 15.1452 10.0173 15.297V16.03C10.0173 16.1328 10.0976 16.2168 10.1958 16.2168H10.8294C10.9276 16.2168 11.0079 16.1328 11.0079 16.0277L11.0035 15.2876C12.7505 15.1265 14 14.1483 14 12.3927C13.9978 10.7724 13.0138 10.0487 11.568 9.67516ZM10.0374 9.29695C9.9124 9.2596 9.80754 9.22458 9.70267 9.18022C8.94852 8.8954 8.59822 8.43547 8.59822 7.84248C8.59822 6.99501 9.2118 6.51174 10.0374 6.40201V9.29695ZM11.0012 14.0689V10.9475C11.0704 10.9685 11.1329 10.9849 11.1976 10.9989C12.253 11.3351 12.6077 11.802 12.6077 12.5187C12.6077 13.4316 11.9517 13.9802 11.0012 14.0689Z" fill="#231F20"/>
</svg>
