<svg width="26" height="31" viewBox="0 0 26 31" fill="none" xmlns="http://www.w3.org/2000/svg">
<path d="M25.1841 3.99252L22.1731 0.851228C21.6506 0.3062 20.9421 4.03046e-06 20.2033 0L10.2143 0C8.67576 0 7.42857 1.30115 7.42857 2.90625V5.8125H2.78571C1.24719 5.8125 0 7.11365 0 8.71875V28.0938C0 29.6988 1.24719 31 2.78571 31H15.7857C17.3242 31 18.5714 29.6988 18.5714 28.0938V25.1875H23.2143C24.7528 25.1875 26 23.8863 26 22.2812V6.04754C26 5.27676 25.7065 4.53755 25.1841 3.99252ZM15.4375 28.0938H3.13393C3.04158 28.0938 2.95301 28.0555 2.8877 27.9873C2.8224 27.9192 2.78571 27.8268 2.78571 27.7305V9.08203C2.78571 8.98568 2.8224 8.89328 2.8877 8.82515C2.95301 8.75702 3.04158 8.71875 3.13393 8.71875H7.42857V22.2812C7.42857 23.8863 8.67576 25.1875 10.2143 25.1875H15.7857V27.7305C15.7857 27.8268 15.749 27.9192 15.6837 27.9873C15.6184 28.0555 15.5299 28.0938 15.4375 28.0938ZM22.8661 22.2812H10.5625C10.4701 22.2812 10.3816 22.243 10.3163 22.1748C10.251 22.1067 10.2143 22.0143 10.2143 21.918V3.26953C10.2143 3.17318 10.251 3.08078 10.3163 3.01265C10.3816 2.94452 10.4701 2.90625 10.5625 2.90625H16.7143V8.23438C16.7143 9.03692 17.3379 9.6875 18.1071 9.6875H23.2143V21.918C23.2143 22.0143 23.1776 22.1067 23.1123 22.1748C23.047 22.243 22.9584 22.2812 22.8661 22.2812ZM23.2143 6.78125H19.5V2.90625H20.059C20.1513 2.90625 20.2399 2.94452 20.3052 3.01263L23.1123 5.94116C23.1447 5.9749 23.1703 6.01495 23.1878 6.05903C23.2053 6.10311 23.2143 6.15035 23.2143 6.19806V6.78125Z" fill="white"/>
</svg>
