<svg width="334" height="320" viewBox="0 0 334 320" fill="none" xmlns="http://www.w3.org/2000/svg">
<g clip-path="url(#clip0_6656_3163)">
<path d="M209.274 5.58191C204.979 2.5188 199.947 0.640362 194.688 0.136974C189.428 -0.366414 184.128 0.52314 179.326 2.71548C131.904 24.4254 -24.628 101.031 8.34801 152.244C47.1039 212.434 184.559 307.384 234.995 302.856C285.431 298.328 342.576 214.136 329.736 158.718C318.947 112.154 246.411 32.1847 209.274 5.58191Z" fill="#F10027" fill-opacity="0.31"/>
<path d="M168.618 319.76C201.071 319.76 227.38 316.593 227.38 312.687C227.38 308.78 201.071 305.613 168.618 305.613C136.164 305.613 109.855 308.78 109.855 312.687C109.855 316.593 136.164 319.76 168.618 319.76Z" fill="#263238"/>
<path d="M230.937 40.3622V269.813C230.937 271.311 230.641 272.793 230.065 274.177C229.49 275.56 228.646 276.817 227.582 277.876C226.518 278.935 225.255 279.775 223.866 280.348C222.476 280.921 220.986 281.216 219.482 281.216H119.882C116.843 281.216 113.929 280.015 111.781 277.876C109.633 275.738 108.426 272.837 108.426 269.813V40.3563C108.426 38.8596 108.722 37.3775 109.297 35.9947C109.873 34.6119 110.716 33.3555 111.779 32.2972C112.843 31.2388 114.105 30.3993 115.494 29.8265C116.883 29.2538 118.372 28.959 119.876 28.959H162.627L162.662 29.0893C163.728 32.9059 166.181 35.3889 168.902 35.3889H170.462C173.182 35.3889 175.635 32.9059 176.701 29.0893L176.742 28.959H219.482C220.986 28.959 222.476 29.2539 223.866 29.827C225.255 30.4001 226.518 31.24 227.582 32.2989C228.646 33.3578 229.49 34.6149 230.065 35.9984C230.641 37.3819 230.937 38.8647 230.937 40.3622Z" fill="white" stroke="#263238" stroke-linecap="round" stroke-linejoin="round"/>
<path d="M238.728 95.1643V72.2469H236.646V42.9074C236.646 38.1109 234.732 33.5109 231.324 30.1193C227.917 26.7277 223.296 24.8223 218.477 24.8223H120.887C118.501 24.8223 116.139 25.2901 113.934 26.1989C111.73 27.1078 109.727 28.44 108.04 30.1193C106.353 31.7987 105.015 33.7924 104.102 35.9866C103.189 38.1807 102.719 40.5325 102.719 42.9074V276.048C102.719 278.423 103.189 280.774 104.102 282.969C105.015 285.163 106.353 287.156 108.04 288.836C109.727 290.515 111.73 291.847 113.934 292.756C116.139 293.665 118.501 294.133 120.887 294.133H218.477C220.863 294.133 223.226 293.665 225.43 292.756C227.634 291.847 229.637 290.515 231.324 288.836C233.011 287.156 234.35 285.163 235.263 282.969C236.176 280.774 236.646 278.423 236.646 276.048V114.696H238.728V101.154H236.646V95.1643H238.728ZM230.938 263.129C230.938 267.926 229.023 272.526 225.616 275.918C222.208 279.31 217.587 281.216 212.768 281.216H126.596C121.777 281.216 117.156 279.31 113.748 275.918C110.341 272.526 108.426 267.926 108.426 263.129V47.0392C108.428 42.2433 110.343 37.6442 113.75 34.2536C117.158 30.8629 121.778 28.9582 126.596 28.9584H162.627L162.663 29.0888C163.728 32.9053 166.181 35.3883 168.902 35.3883H170.462C173.183 35.3883 175.636 32.9053 176.701 29.0888L176.743 28.9584H212.768C217.586 28.9582 222.207 30.8629 225.614 34.2536C229.021 37.6443 230.936 42.2433 230.938 47.0392V263.129Z" fill="#F10027" stroke="#263238" stroke-linecap="round" stroke-linejoin="round"/>
<path d="M217.02 27.3145H122.345C120.043 27.3145 117.765 27.7656 115.639 28.6422C113.513 29.5187 111.581 30.8035 109.954 32.4231C108.327 34.0427 107.037 35.9655 106.156 38.0817C105.275 40.1979 104.822 42.4659 104.822 44.7564V274.201C104.822 276.491 105.275 278.759 106.156 280.875C107.037 282.992 108.327 284.914 109.954 286.534C111.581 288.154 113.513 289.438 115.639 290.315C117.765 291.191 120.043 291.643 122.345 291.643H217.02C219.321 291.643 221.6 291.191 223.726 290.315C225.852 289.438 227.783 288.154 229.41 286.534C231.037 284.914 232.328 282.992 233.209 280.875C234.089 278.759 234.542 276.491 234.542 274.201V44.7564C234.542 40.1305 232.696 35.6941 229.41 32.4231C226.124 29.1521 221.667 27.3145 217.02 27.3145ZM230.938 263.773C230.938 266.064 230.485 268.332 229.604 270.448C228.723 272.565 227.432 274.488 225.805 276.107C224.178 277.727 222.246 279.012 220.12 279.889C217.994 280.765 215.715 281.217 213.414 281.217H125.95C123.649 281.217 121.37 280.765 119.244 279.889C117.118 279.012 115.186 277.727 113.559 276.107C111.932 274.488 110.641 272.565 109.76 270.448C108.88 268.332 108.426 266.064 108.426 263.773V46.397C108.426 44.1071 108.879 41.8396 109.76 39.7239C110.64 37.6083 111.93 35.686 113.557 34.0667C115.184 32.4475 117.115 31.163 119.24 30.2867C121.366 29.4104 123.644 28.9593 125.944 28.9593H162.627L162.663 29.0897C163.729 32.9062 166.181 35.3893 168.902 35.3893H170.462C173.183 35.3893 175.636 32.9062 176.701 29.0897L176.743 28.9593H213.414C215.715 28.9593 217.994 29.4105 220.12 30.2872C222.246 31.1638 224.178 32.4487 225.805 34.0685C227.432 35.6882 228.723 37.6112 229.604 39.7276C230.485 41.844 230.938 44.1123 230.938 46.403V263.773Z" fill="#263238" stroke="#263238" stroke-linecap="round" stroke-linejoin="round"/>
<path d="M171.013 29.822C171.013 29.4862 170.913 29.1579 170.726 28.8787C170.538 28.5995 170.272 28.3818 169.96 28.2533C169.648 28.1248 169.305 28.0911 168.975 28.1566C168.644 28.2221 168.34 28.3839 168.101 28.6213C167.863 28.8588 167.7 29.1613 167.634 29.4907C167.569 29.82 167.602 30.1614 167.731 30.4717C167.86 30.7819 168.079 31.0471 168.36 31.2337C168.64 31.4202 168.97 31.5198 169.307 31.5198C169.531 31.5198 169.753 31.4759 169.96 31.3906C170.167 31.3053 170.355 31.1802 170.513 31.0226C170.672 30.8649 170.797 30.6777 170.883 30.4717C170.969 30.2657 171.013 30.045 171.013 29.822Z" fill="white"/>
<path d="M119.316 36.3295C119.316 38.0474 117.378 38.6659 117.37 39.9765V40.066H119.25V40.6441H116.74V40.1556C116.74 38.3159 118.678 37.9578 118.678 36.354C118.678 35.7681 118.482 35.4588 118.008 35.4588C117.542 35.4588 117.337 35.7923 117.337 36.297V36.8017H116.74V36.3378C116.74 35.4667 117.141 34.8887 118.024 34.8887C118.915 34.8887 119.316 35.4588 119.316 36.3295Z" fill="#263238"/>
<path d="M122.449 36.3216V36.4679C122.476 36.7118 122.423 36.9581 122.298 37.1696C122.173 37.3811 121.982 37.5463 121.754 37.6402C121.983 37.7347 122.175 37.9012 122.3 38.1142C122.426 38.3273 122.478 38.5753 122.449 38.8206V39.2603C122.449 40.1313 122.04 40.7012 121.157 40.7012C120.282 40.7012 119.873 40.1313 119.873 39.2603V38.8694H120.47V39.3008C120.47 39.8138 120.682 40.123 121.14 40.123C121.606 40.123 121.811 39.8218 121.811 39.244V38.8043C121.811 38.2426 121.574 37.9741 121.091 37.9578H120.748V37.3878H121.124C121.223 37.3888 121.321 37.3685 121.412 37.3282C121.502 37.288 121.583 37.2287 121.648 37.1545C121.713 37.0803 121.762 36.9929 121.79 36.8983C121.818 36.8038 121.825 36.7042 121.811 36.6066V36.3457C121.811 35.7597 121.606 35.4588 121.14 35.4588C120.682 35.4588 120.47 35.776 120.47 36.289V36.582H119.873V36.3216C119.873 35.4505 120.282 34.8887 121.157 34.8887C122.04 34.8887 122.449 35.4505 122.449 36.3216Z" fill="#263238"/>
<path d="M123.684 36.7529V37.5427H123.07V36.7529H123.684ZM123.684 39.8543V40.6441H123.07V39.8543H123.684Z" fill="#263238"/>
<path d="M124.977 37.2656C125.06 37.1156 125.184 36.9918 125.334 36.9084C125.484 36.8249 125.655 36.7851 125.827 36.7934C126.563 36.7934 126.89 37.3306 126.89 38.1446V39.2599C126.89 40.131 126.473 40.7008 125.599 40.7008C124.723 40.7008 124.314 40.131 124.314 39.2599V38.8774H124.911V39.3004C124.911 39.8135 125.124 40.1226 125.582 40.1226C126.04 40.1226 126.253 39.8135 126.253 39.3004V38.1934C126.253 37.6807 126.04 37.3711 125.582 37.3711C125.499 37.3672 125.416 37.3801 125.338 37.409C125.26 37.4379 125.188 37.4822 125.128 37.5393C125.068 37.5963 125.02 37.6649 124.987 37.741C124.954 37.817 124.936 37.8989 124.936 37.9817V38.1122H124.339L124.494 34.9453H126.751V35.5151H125.067L124.977 37.2656Z" fill="#263238"/>
<path d="M130.072 36.3132V36.4191H129.475V36.2728C129.475 35.7597 129.262 35.4588 128.796 35.4588C128.314 35.4588 128.101 35.7681 128.101 36.3786V37.6565C128.168 37.4687 128.294 37.3076 128.46 37.1974C128.627 37.0873 128.825 37.0341 129.025 37.0459C129.761 37.0459 130.089 37.5752 130.089 38.3972V39.2603C130.089 40.1313 129.654 40.7012 128.78 40.7012C127.896 40.7012 127.463 40.1313 127.463 39.2603V36.354C127.463 35.4505 127.872 34.8887 128.78 34.8887C129.663 34.8887 130.072 35.4425 130.072 36.3132ZM128.101 38.4463V39.3008C128.101 39.8138 128.314 40.123 128.78 40.123C129.238 40.123 129.458 39.8138 129.458 39.3008V38.4463C129.458 37.9332 129.238 37.624 128.78 37.624C128.314 37.624 128.101 37.9332 128.101 38.4463Z" fill="#263238"/>
<path d="M192.569 36.5635H190.953V40.5859H192.569V36.5635Z" fill="#263238"/>
<path d="M194.724 35.7578H193.107V40.586H194.724V35.7578Z" fill="#263238"/>
<path d="M196.878 35.1855H195.262V40.5859H196.878V35.1855Z" fill="#263238"/>
<path d="M199.034 34.1904H197.418V40.5859H199.034V34.1904Z" fill="#263238"/>
<path d="M219.036 40.4757H209.338V34.5762H219.036V40.4757ZM209.877 39.9394H218.497V35.1124H209.877V39.9394Z" fill="#263238"/>
<path d="M215.804 35.6963H210.686V39.3558H215.804V35.6963Z" fill="#263238"/>
<path d="M219.919 36.8311H218.699V38.2209H219.919V36.8311Z" fill="#263238"/>
<path d="M205.783 39.1926C205.718 39.1926 205.654 39.1751 205.598 39.1419C203.624 37.9744 202.32 39.0581 202.265 39.1038C202.193 39.1664 202.099 39.1979 202.003 39.1914C201.908 39.1849 201.819 39.141 201.756 39.0693C201.692 38.9975 201.661 38.9038 201.667 38.8087C201.673 38.7135 201.717 38.6247 201.789 38.5617C201.859 38.5003 203.527 37.078 205.969 38.5223C206.037 38.5627 206.09 38.6242 206.12 38.6975C206.149 38.7707 206.154 38.8516 206.133 38.9278C206.112 39.0039 206.066 39.0711 206.003 39.1189C205.94 39.1667 205.863 39.1926 205.783 39.1926Z" fill="#263238"/>
<path d="M206.513 37.9797C206.448 37.9798 206.384 37.9623 206.328 37.9289C203.474 36.2396 201.556 37.874 201.537 37.8895C201.501 37.9207 201.459 37.9447 201.414 37.96C201.369 37.9753 201.322 37.9816 201.274 37.9786C201.227 37.9756 201.181 37.9633 201.138 37.9425C201.095 37.9216 201.057 37.8926 201.026 37.8571C200.994 37.8216 200.97 37.7803 200.955 37.7356C200.94 37.6908 200.933 37.6435 200.936 37.5963C200.939 37.549 200.952 37.5029 200.973 37.4604C200.993 37.418 201.023 37.38 201.058 37.3488C201.082 37.3276 203.395 35.3552 206.699 37.3093C206.767 37.3497 206.82 37.4112 206.849 37.4845C206.879 37.5577 206.883 37.6386 206.862 37.7148C206.841 37.7909 206.796 37.858 206.733 37.9059C206.67 37.9537 206.592 37.9797 206.513 37.9797Z" fill="#263238"/>
<path d="M207.176 36.5758C207.111 36.5759 207.047 36.5583 206.991 36.525C203.376 34.3858 200.973 36.3997 200.873 36.4871C200.801 36.5495 200.706 36.5809 200.611 36.5745C200.515 36.568 200.426 36.5241 200.363 36.4524C200.3 36.3808 200.268 36.2872 200.274 36.1921C200.28 36.097 200.324 36.0081 200.396 35.9449C200.424 35.9195 203.279 33.4888 207.361 35.9055C207.43 35.9458 207.483 36.0074 207.512 36.0807C207.542 36.1539 207.546 36.2348 207.525 36.311C207.504 36.3871 207.459 36.4542 207.396 36.5021C207.332 36.5499 207.255 36.5758 207.176 36.5758Z" fill="#263238"/>
<path d="M204.692 39.796C204.692 39.9749 204.639 40.1498 204.539 40.2985C204.439 40.4473 204.297 40.5632 204.131 40.6317C203.965 40.7002 203.783 40.7181 203.606 40.6832C203.43 40.6483 203.268 40.5622 203.141 40.4357C203.014 40.3092 202.928 40.148 202.892 39.9725C202.857 39.7971 202.875 39.6152 202.944 39.4499C203.013 39.2846 203.129 39.1434 203.279 39.044C203.428 38.9446 203.604 38.8916 203.784 38.8916C204.025 38.8916 204.256 38.9869 204.426 39.1565C204.597 39.3261 204.692 39.5562 204.692 39.796Z" fill="#263238"/>
<path d="M49.2988 70.7656H58.1579" stroke="#263238" stroke-linecap="round" stroke-linejoin="round"/>
<path d="M117.957 70.7656H126.816" stroke="#263238" stroke-linecap="round" stroke-linejoin="round"/>
<path d="M58.1582 47.6162L63.1414 51.4742" stroke="#263238" stroke-linecap="round" stroke-linejoin="round"/>
<path d="M116.848 47.6162L111.865 51.4742" stroke="#263238" stroke-linecap="round" stroke-linejoin="round"/>
<path d="M78.0898 38.2471L78.6435 46.5143" stroke="#263238" stroke-linecap="round" stroke-linejoin="round"/>
<path d="M97.4707 39.3496L96.3633 46.5146" stroke="#263238" stroke-linecap="round" stroke-linejoin="round"/>
<path d="M110.033 60.4395H62.2266V101.508H110.033V60.4395Z" fill="white" stroke="#263238" stroke-linecap="round" stroke-linejoin="round"/>
<path d="M79.9823 60.4395H70.9648V101.508H79.9823V60.4395Z" fill="#F10027" stroke="#263238" stroke-linecap="round" stroke-linejoin="round"/>
<path d="M110.033 60.4395H89.0781V101.508H110.033V60.4395Z" fill="white" stroke="#263238" stroke-linecap="round" stroke-linejoin="round"/>
<path d="M82.756 57.0914L75.7503 54.0381C75.5781 54.0146 75.4042 54.0057 75.2304 54.0115L75.1141 53.958H68.0605L73.5573 56.5237C73.5868 56.9095 73.646 57.2924 73.7343 57.6691C73.9193 58.2426 74.2447 58.7613 74.6813 59.1783C75.1179 59.5954 75.6519 59.8977 76.2352 60.058L76.2784 60.2732H76.9902L77.0088 60.2766L89.2145 60.4397C89.2145 60.4397 86.0825 58.7655 82.756 57.0914Z" fill="#F10027" stroke="#263238" stroke-linecap="round" stroke-linejoin="round"/>
<path d="M82.197 60.4395C82.197 60.4395 74.5754 56.3652 70.4823 54.5725C66.3893 52.7799 66.2256 55.5503 66.7168 57.669C67.2079 59.7876 69.9912 60.2765 69.9912 60.2765L82.197 60.4395Z" fill="#F10027" stroke="#263238" stroke-linecap="round" stroke-linejoin="round"/>
<path d="M84.0089 57.4688H81.3256C80.5529 57.4687 79.8118 57.7743 79.2655 58.3181C78.7191 58.862 78.4121 59.5996 78.4121 60.3688H86.9223C86.9223 59.5996 86.6154 58.862 86.069 58.3181C85.5226 57.7743 84.7816 57.4687 84.0089 57.4688Z" fill="#F10027" stroke="#263238" stroke-linecap="round" stroke-linejoin="round"/>
<path d="M100.765 54.0379H94.5665L93.7593 57.0911C90.4328 58.7653 87.3008 60.4395 87.3008 60.4395L99.5065 60.2764L99.5251 60.273H100.237L100.28 60.0578C100.863 59.8975 101.397 59.5952 101.834 59.1781C102.271 58.7611 102.596 58.2424 102.781 57.6689C103.189 55.9092 103.137 53.7087 100.765 54.0379Z" fill="#F10027" stroke="#263238" stroke-linecap="round" stroke-linejoin="round"/>
<path d="M79.9824 60.4395C79.9824 60.4395 87.604 56.3652 91.697 54.5725C95.7901 52.7799 95.9538 55.5503 95.4626 57.669C94.9714 59.7876 92.1882 60.2765 92.1882 60.2765L79.9824 60.4395Z" fill="#F10027" stroke="#263238" stroke-linecap="round" stroke-linejoin="round"/>
<path d="M253.228 162.582C254.39 165.346 259.373 169.875 259.377 169.879C259.428 169.926 261.379 165.703 261.471 165.423C262.541 162.176 262.688 155.277 259.578 153.028C259.052 152.669 258.455 152.425 257.827 152.31C257.199 152.196 256.553 152.214 255.933 152.365C255.313 152.515 254.731 152.793 254.226 153.182C253.721 153.571 253.303 154.061 253.001 154.621C251.636 156.955 252.239 160.227 253.228 162.582Z" fill="#263238"/>
<path d="M332.989 206.826C330.511 203.902 323.61 204.548 320.434 205.844C320.16 205.957 316.07 208.2 316.121 208.248C316.121 208.248 316.169 208.292 316.181 208.303C315.09 208.397 313.923 208.51 312.649 208.659C310.299 208.953 307.648 209.306 304.788 209.884C301.699 210.473 298.647 211.241 295.648 212.184C292.284 213.224 289.02 214.56 285.894 216.176C285.858 216.196 285.822 216.221 285.785 216.24C286.578 215.444 288.718 213.142 288.861 212.947C290.894 210.194 293.196 203.686 290.946 200.583C290.558 200.079 290.067 199.661 289.506 199.357C288.945 199.053 288.326 198.871 287.69 198.821C287.053 198.771 286.413 198.855 285.811 199.068C285.21 199.28 284.659 199.617 284.197 200.055C282.169 201.849 281.717 205.145 281.919 207.689C282.148 210.558 285.187 216.015 285.43 216.45C282.29 218.172 279.27 220.102 276.388 222.225C274.702 223.453 273.043 224.742 271.395 226.055C272.058 225.344 272.645 224.703 272.717 224.605C274.75 221.852 277.051 215.344 274.801 212.241C274.413 211.737 273.923 211.319 273.362 211.015C272.801 210.711 272.182 210.529 271.545 210.479C270.909 210.429 270.269 210.513 269.667 210.726C269.065 210.938 268.515 211.275 268.053 211.713C266.024 213.507 265.573 216.803 265.775 219.347C265.981 221.928 268.477 226.633 269.155 227.869C268.528 228.379 267.896 228.882 267.272 229.395C264.273 231.854 261.293 234.321 258.294 236.652C257.238 237.474 256.168 238.244 255.099 239.019C255.687 238.387 256.177 237.85 256.243 237.761C258.275 235.007 260.577 228.499 258.327 225.397C257.939 224.892 257.449 224.474 256.888 224.171C256.327 223.867 255.708 223.684 255.071 223.634C254.434 223.585 253.794 223.669 253.193 223.881C252.591 224.094 252.041 224.43 251.578 224.868C249.55 226.661 249.098 229.959 249.301 232.503C249.496 234.965 251.762 239.329 252.56 240.802C251.442 241.563 250.324 242.327 249.205 243.014C248.431 243.466 247.718 243.954 246.915 244.365C246.129 244.789 245.351 245.208 244.58 245.623C243.066 246.368 241.509 247.146 240.014 247.836C238.978 248.324 237.981 248.77 236.979 249.222C238.04 248.415 240.084 246.795 240.239 246.64C242.294 244.438 243.748 241.748 244.462 238.828C244.702 238.593 244.919 238.336 245.111 238.061C245.491 237.55 245.759 236.965 245.897 236.345C246.035 235.724 246.04 235.081 245.912 234.459C245.784 233.836 245.526 233.247 245.155 232.73C244.783 232.213 244.306 231.78 243.755 231.459C240.387 229.617 234.179 232.689 231.685 235.035C231.538 235.173 230.109 236.852 229.225 237.926C229.648 237.216 230.067 236.532 230.493 235.795C231.346 234.345 232.155 232.873 233.032 231.292C233.428 230.515 233.827 229.729 234.231 228.934C234.648 228.156 234.99 227.281 235.377 226.448C236.233 224.497 237.006 222.479 237.739 220.428C239.017 221.169 243.591 223.734 246.151 224.011C248.699 224.286 252.023 223.932 253.883 221.966C254.337 221.519 254.69 220.981 254.921 220.389C255.152 219.796 255.255 219.162 255.224 218.527C255.192 217.892 255.027 217.271 254.738 216.704C254.45 216.137 254.044 215.637 253.549 215.236C250.499 212.907 243.896 215.008 241.072 216.95C240.896 217.071 239.028 218.692 238.018 219.601C238.449 218.366 238.886 217.134 239.281 215.87C240.423 212.22 241.464 208.49 242.519 204.774C242.841 203.635 243.176 202.505 243.507 201.372C243.96 201.64 249.331 204.806 252.198 205.116C254.746 205.392 258.07 205.037 259.93 203.071C260.384 202.624 260.737 202.086 260.968 201.494C261.199 200.901 261.302 200.267 261.271 199.632C261.239 198.998 261.073 198.376 260.785 197.81C260.496 197.243 260.091 196.743 259.595 196.342C256.546 194.013 249.943 196.113 247.119 198.056C246.907 198.202 244.221 200.538 243.568 201.165C244.298 198.67 245.049 196.19 245.889 193.776C247.007 190.509 248.337 187.318 249.869 184.223C250.08 184.349 255.671 187.678 258.607 187.995C261.156 188.271 264.48 187.917 266.34 185.95C266.793 185.503 267.147 184.966 267.378 184.373C267.609 183.78 267.712 183.146 267.68 182.511C267.649 181.876 267.483 181.255 267.194 180.688C266.906 180.122 266.5 179.622 266.005 179.221C262.955 176.892 256.353 178.993 253.529 180.935C253.307 181.087 250.42 183.602 249.93 184.095C250.019 183.916 250.092 183.72 250.184 183.543C251.808 180.482 253.703 177.57 255.845 174.843C257.009 173.322 258.207 171.933 259.402 170.607C260.38 171.334 264.883 174.604 267.495 175.181C269.998 175.733 273.34 175.744 275.406 173.994C275.906 173.599 276.317 173.103 276.612 172.539C276.907 171.976 277.079 171.357 277.118 170.722C277.156 170.088 277.06 169.452 276.836 168.857C276.612 168.262 276.264 167.721 275.816 167.268C273.042 164.62 266.247 165.986 263.226 167.608C263.062 167.696 261.491 168.777 260.359 169.58C260.908 168.99 261.464 168.37 262.001 167.816C264.012 165.728 265.984 163.939 267.743 162.368C268.75 161.483 269.679 160.703 270.555 159.983C271.888 160.197 277.27 160.995 279.807 160.322C282.284 159.664 285.256 158.141 286.279 155.64C286.54 155.06 286.675 154.431 286.676 153.796C286.676 153.16 286.543 152.531 286.283 151.951C286.024 151.37 285.645 150.85 285.17 150.425C284.696 149.999 284.137 149.678 283.529 149.482C279.841 148.404 274.443 152.734 272.513 155.559C272.347 155.803 270.179 159.92 270.248 159.932L270.328 159.945C269.47 160.621 268.559 161.357 267.58 162.181C265.783 163.715 263.767 165.467 261.702 167.52C259.452 169.707 257.332 172.024 255.354 174.457C253.124 177.172 251.142 180.079 249.431 183.143C249.412 183.18 249.395 183.22 249.376 183.257C249.595 182.157 250.104 179.062 250.116 178.82C250.286 175.407 248.598 168.715 245.002 167.364C244.399 167.156 243.758 167.077 243.122 167.131C242.486 167.186 241.868 167.374 241.31 167.682C240.751 167.99 240.264 168.411 239.88 168.919C239.496 169.427 239.223 170.009 239.081 170.629C238.383 173.239 239.833 176.236 241.411 178.246C243.192 180.514 248.751 183.398 249.195 183.626C247.531 186.787 246.081 190.055 244.855 193.409C244.129 195.358 243.459 197.344 242.812 199.344C242.971 198.388 243.105 197.531 243.112 197.409C243.281 193.996 241.593 187.304 237.998 185.953C237.394 185.745 236.754 185.666 236.118 185.72C235.481 185.775 234.864 185.962 234.305 186.27C233.747 186.578 233.26 187 232.876 187.508C232.491 188.015 232.219 188.598 232.076 189.217C231.378 191.826 232.828 194.826 234.407 196.836C236.009 198.876 240.699 201.429 241.949 202.088C241.709 202.858 241.461 203.624 241.224 204.395C240.087 208.092 238.967 211.786 237.758 215.377C237.333 216.642 236.867 217.873 236.405 219.106C236.545 218.256 236.656 217.539 236.662 217.428C236.831 214.016 235.144 207.323 231.548 205.972C230.944 205.764 230.304 205.685 229.668 205.739C229.031 205.794 228.414 205.982 227.855 206.289C227.297 206.597 226.81 207.019 226.426 207.527C226.042 208.034 225.769 208.617 225.626 209.236C224.929 211.847 226.378 214.845 227.957 216.855C229.486 218.802 233.794 221.197 235.276 221.987C234.764 223.236 234.255 224.488 233.703 225.674C233.308 226.477 232.985 227.276 232.542 228.059C232.121 228.844 231.704 229.622 231.291 230.391C230.442 231.843 229.574 233.348 228.709 234.744C228.115 235.72 227.531 236.639 226.945 237.566C227.384 236.312 228.19 233.837 228.234 233.623C228.921 230.276 228.271 223.406 224.922 221.528C224.358 221.231 223.736 221.056 223.099 221.015C222.462 220.973 221.823 221.065 221.224 221.285C220.625 221.505 220.08 221.849 219.623 222.293C219.166 222.737 218.808 223.272 218.573 223.862C217.486 226.336 218.462 229.519 219.717 231.744C221.099 234.193 225.94 237.76 226.548 238.202C225.573 239.733 224.611 241.213 223.68 242.596C223.209 243.298 222.75 243.974 222.299 244.63L223.95 246.357C224.483 245.548 225.027 244.711 225.588 243.834C226.584 242.283 227.616 240.606 228.661 238.874C230.459 239.593 232.298 240.206 234.169 240.71C234.119 243.596 236.042 248.856 236.294 249.533C234.633 250.276 233.01 250.982 231.467 251.623C230.832 251.853 230.181 252.038 229.52 252.179L231.279 254.017C231.651 253.942 232.017 253.838 232.372 253.704C234.063 252.957 235.854 252.126 237.685 251.255C238.103 251.861 241.551 256.793 243.974 258.241C246.172 259.554 249.339 260.618 251.856 259.609C252.456 259.392 253.004 259.051 253.463 258.609C253.922 258.167 254.282 257.634 254.521 257.045C254.759 256.455 254.87 255.822 254.846 255.187C254.823 254.552 254.665 253.929 254.383 253.358C252.595 249.972 245.715 249.126 242.334 249.713C242.135 249.746 240.012 250.363 238.681 250.773C239.427 250.414 240.155 250.072 240.919 249.692C242.435 248.952 243.925 248.168 245.531 247.33C246.292 246.899 247.062 246.464 247.839 246.023C248.618 245.603 249.388 245.06 250.173 244.578C251.969 243.421 253.731 242.162 255.479 240.855C256.134 242.173 258.527 246.825 260.509 248.462C262.483 250.091 265.451 251.62 268.092 251.002C268.718 250.878 269.311 250.624 269.832 250.256C270.353 249.889 270.791 249.416 271.116 248.869C271.442 248.323 271.648 247.714 271.722 247.082C271.795 246.451 271.734 245.811 271.543 245.205C270.29 241.588 263.618 239.714 260.186 239.784C259.973 239.788 257.516 240.114 256.171 240.318C257.215 239.524 258.261 238.737 259.291 237.899C262.266 235.482 265.201 232.942 268.141 230.422C269.041 229.65 269.947 228.891 270.852 228.128C271.08 228.6 273.804 234.19 276.025 236.023C277.997 237.652 280.966 239.182 283.607 238.563C284.233 238.439 284.826 238.185 285.347 237.818C285.868 237.45 286.306 236.978 286.631 236.431C286.957 235.884 287.163 235.275 287.236 234.644C287.31 234.013 287.249 233.373 287.057 232.767C285.804 229.15 279.133 227.276 275.702 227.345C275.444 227.351 271.909 227.824 271.016 227.988C273.009 226.308 275.009 224.652 277.048 223.1C279.791 220.989 282.668 219.058 285.662 217.318C285.767 217.538 288.585 223.385 290.859 225.263C292.832 226.892 295.801 228.422 298.442 227.803C299.068 227.679 299.661 227.425 300.182 227.057C300.703 226.69 301.14 226.217 301.466 225.671C301.791 225.124 301.997 224.515 302.071 223.884C302.144 223.252 302.083 222.613 301.892 222.006C300.639 218.389 293.968 216.516 290.536 216.585C290.267 216.591 286.465 217.102 285.782 217.244C285.956 217.144 286.126 217.022 286.301 216.924C289.352 215.262 292.546 213.874 295.844 212.776C297.658 212.146 299.427 211.646 301.159 211.196C301.571 212.339 303.515 217.54 305.373 219.455C307.155 221.29 309.937 223.135 312.63 222.809C313.266 222.754 313.883 222.566 314.442 222.258C315 221.95 315.487 221.528 315.871 221.02C316.255 220.512 316.527 219.93 316.669 219.31C316.812 218.691 316.822 218.048 316.699 217.424C315.852 213.692 309.429 211.101 306.01 210.795C305.825 210.778 303.916 210.817 302.527 210.865C303.311 210.674 304.117 210.463 304.873 210.295C307.708 209.658 310.344 209.249 312.681 208.905C314.012 208.72 315.218 208.579 316.349 208.459C317.341 209.37 321.388 212.991 323.878 213.823C326.308 214.634 329.631 214.996 331.871 213.472C332.41 213.131 332.871 212.681 333.224 212.151C333.577 211.622 333.814 211.024 333.919 210.397C334.025 209.77 333.996 209.128 333.836 208.513C333.676 207.898 333.388 207.323 332.989 206.826Z" fill="#263238"/>
<path d="M301.541 210.574C301.558 210.641 305.526 208.191 305.758 208.008C308.449 205.886 312.395 200.213 311.048 196.63C310.807 196.041 310.445 195.509 309.985 195.069C309.524 194.629 308.976 194.29 308.375 194.074C307.774 193.859 307.135 193.772 306.498 193.819C305.861 193.866 305.242 194.046 304.679 194.347C302.247 195.544 300.936 198.604 300.457 201.111C299.894 204.054 301.54 210.569 301.541 210.574Z" fill="#263238"/>
<path d="M80.7714 162.582C79.6092 165.346 74.6265 169.875 74.6225 169.879C74.5708 169.926 72.6201 165.703 72.5278 165.423C71.4585 162.176 71.3112 155.277 74.4207 153.028C74.9475 152.669 75.5443 152.425 76.1724 152.31C76.8005 152.196 77.4457 152.214 78.0661 152.365C78.6865 152.515 79.2682 152.793 79.7734 153.182C80.2786 153.571 80.6959 154.061 80.9982 154.621C82.3635 156.955 81.7604 160.227 80.7714 162.582Z" fill="#263238"/>
<path d="M1.00978 206.826C3.48803 203.902 10.3896 204.548 13.5652 205.844C13.8397 205.957 17.9295 208.2 17.8781 208.248C17.8781 208.248 17.8301 208.292 17.8185 208.303C18.9089 208.397 20.0763 208.51 21.3501 208.659C23.6998 208.953 26.3512 209.306 29.2112 209.884C32.3002 210.473 35.3521 211.241 38.3512 212.184C41.715 213.224 44.9791 214.56 48.1048 216.176C48.1413 216.196 48.1771 216.221 48.214 216.24C47.4215 215.444 45.2812 213.142 45.1377 212.947C43.1057 210.194 40.8034 203.686 43.0537 200.583C43.4418 200.079 43.9322 199.661 44.4932 199.357C45.0542 199.053 45.6731 198.871 46.3097 198.821C46.9463 198.771 47.5863 198.855 48.188 199.068C48.7898 199.28 49.3399 199.617 49.8025 200.055C51.8304 201.849 52.2823 205.145 52.0798 207.689C51.8516 210.558 48.8127 216.015 48.5698 216.45C51.7093 218.172 54.7297 220.102 57.611 222.225C59.297 223.453 60.9563 224.742 62.6042 226.055C61.9414 225.344 61.3538 224.703 61.2821 224.605C59.2494 221.852 56.9482 215.344 59.1984 212.241C59.5863 211.737 60.0767 211.319 60.6376 211.015C61.1985 210.711 61.8173 210.529 62.4539 210.479C63.0904 210.429 63.7304 210.513 64.3321 210.726C64.9338 210.938 65.4837 211.275 65.9462 211.713C67.9748 213.507 68.4268 216.803 68.2245 219.347C68.0184 221.928 65.5219 226.633 64.8445 227.869C65.4713 228.379 66.1033 228.882 66.7277 229.395C69.726 231.854 72.7065 234.321 75.705 236.652C76.7611 237.474 77.8317 238.244 78.8998 239.019C78.3123 238.387 77.8226 237.85 77.7565 237.761C75.7241 235.007 73.4224 228.499 75.6719 225.397C76.06 224.892 76.5505 224.474 77.1115 224.171C77.6725 223.867 78.2915 223.684 78.9282 223.634C79.5648 223.585 80.2049 223.669 80.8068 223.881C81.4086 224.094 81.9587 224.43 82.4214 224.868C84.4493 226.661 84.9012 229.959 84.6985 232.503C84.5027 234.965 82.2372 239.329 81.4389 240.802C82.5571 241.563 83.6755 242.327 84.7939 243.014C85.5682 243.466 86.2814 243.954 87.0842 244.365C87.8699 244.789 88.6482 245.208 89.4191 245.623C90.9334 246.368 92.4903 247.146 93.9852 247.836C95.0218 248.324 96.0186 248.77 97.0204 249.222C95.9597 248.415 93.9158 246.795 93.7604 246.64C91.7052 244.438 90.2514 241.748 89.5377 238.828C89.2974 238.593 89.0799 238.336 88.8882 238.061C88.5081 237.55 88.2404 236.965 88.1023 236.345C87.9643 235.724 87.959 235.081 88.0869 234.459C88.2148 233.836 88.473 233.247 88.8446 232.73C89.2163 232.213 89.6931 231.78 90.244 231.459C93.6125 229.617 99.8198 232.689 102.314 235.035C102.462 235.173 103.89 236.852 104.774 237.926C104.351 237.216 103.932 236.532 103.506 235.795C102.653 234.345 101.845 232.873 100.968 231.292C100.572 230.515 100.172 229.729 99.7682 228.934C99.3511 228.156 99.0094 227.281 98.6225 226.448C97.7664 224.497 96.9934 222.479 96.2606 220.428C94.9826 221.169 90.4086 223.734 87.8486 224.011C85.2999 224.286 81.9762 223.932 80.1162 221.966C79.6627 221.519 79.309 220.981 79.078 220.389C78.847 219.796 78.7439 219.162 78.7755 218.527C78.807 217.892 78.9725 217.271 79.2611 216.704C79.5497 216.137 79.955 215.637 80.4506 215.236C83.5 212.907 90.1033 215.008 92.927 216.95C93.1031 217.071 94.9715 218.692 95.9808 219.601C95.55 218.366 95.1136 217.134 94.7185 215.87C93.5765 212.22 92.5354 208.49 91.4806 204.774C91.1578 203.635 90.823 202.505 90.492 201.372C90.0397 201.64 84.6688 204.806 81.8012 205.116C79.2532 205.392 75.9295 205.037 74.0691 203.071C73.6157 202.624 73.262 202.086 73.031 201.494C72.8001 200.901 72.6971 200.267 72.7287 199.632C72.7603 198.998 72.9258 198.376 73.2144 197.81C73.5031 197.243 73.9084 196.743 74.4041 196.342C77.4536 194.013 84.0562 196.113 86.8799 198.056C87.0927 198.202 89.7778 200.538 90.4313 201.165C89.7012 198.67 88.9502 196.19 88.1099 193.776C86.9921 190.509 85.6626 187.318 84.1298 184.223C83.9191 184.349 78.3285 187.678 75.3918 187.995C72.8431 188.271 69.5198 187.917 67.6597 185.95C67.2062 185.503 66.8524 184.966 66.6214 184.373C66.3904 183.78 66.2874 183.146 66.319 182.511C66.3506 181.876 66.5161 181.255 66.8048 180.688C67.0935 180.122 67.4989 179.622 67.9946 179.221C71.0439 176.892 77.6467 178.993 80.4702 180.935C80.6919 181.087 83.5797 183.602 84.0698 184.095C83.9802 183.916 83.907 183.72 83.8153 183.543C82.191 180.482 80.2965 177.57 78.154 174.843C76.9906 173.322 75.7927 171.933 74.5971 170.607C73.6195 171.334 69.1158 174.604 66.5047 175.181C64.0013 175.733 60.6591 175.744 58.5936 173.994C58.0936 173.599 57.6827 173.103 57.3877 172.539C57.0928 171.976 56.9203 171.357 56.8816 170.722C56.8429 170.088 56.9388 169.452 57.1631 168.857C57.3874 168.262 57.735 167.721 58.1833 167.268C60.9575 164.62 67.7523 165.986 70.7729 167.608C70.9375 167.696 72.5078 168.777 73.6399 169.58C73.0911 168.99 72.5356 168.37 71.9987 167.816C69.9868 165.728 68.0155 163.939 66.2567 162.368C65.2489 161.483 64.3205 160.703 63.4441 159.983C62.1113 160.197 56.7297 160.995 54.1919 160.322C51.715 159.664 48.7434 158.141 47.7206 155.64C47.4598 155.06 47.3246 154.431 47.3237 153.796C47.3229 153.16 47.4565 152.531 47.7159 151.951C47.9752 151.37 48.3545 150.85 48.829 150.425C49.3035 149.999 49.8626 149.678 50.47 149.482C54.1581 148.404 59.5557 152.734 61.4866 155.559C61.6525 155.803 63.8205 159.92 63.7514 159.932L63.6713 159.945C64.5287 160.621 65.4401 161.357 66.4193 162.181C68.2162 163.715 70.2323 165.467 72.2972 167.52C74.5472 169.707 76.6669 172.024 78.6457 174.457C80.8749 177.172 82.8569 180.079 84.5682 183.143C84.5877 183.18 84.6038 183.22 84.6233 183.257C84.4042 182.157 83.8953 179.062 83.8833 178.82C83.7136 175.407 85.4015 168.715 88.997 167.364C89.6004 167.156 90.2411 167.077 90.8772 167.131C91.5134 167.186 92.1309 167.374 92.6895 167.682C93.248 167.99 93.7352 168.411 94.1193 168.919C94.5034 169.427 94.7758 170.009 94.9188 170.629C95.616 173.239 94.166 176.236 92.5878 178.246C90.8074 180.514 85.2481 183.398 84.8045 183.626C86.4682 186.787 87.9181 190.055 89.1443 193.409C89.8707 195.358 90.5403 197.344 91.1872 199.344C91.0287 198.388 90.8939 197.531 90.8876 197.409C90.7182 193.996 92.4062 187.304 96.0018 185.953C96.6051 185.745 97.2457 185.666 97.8818 185.72C98.518 185.775 99.1354 185.962 99.694 186.27C100.253 186.578 100.74 187 101.124 187.508C101.508 188.015 101.78 188.598 101.923 189.217C102.621 191.826 101.171 194.826 99.5923 196.836C97.9905 198.876 93.3005 201.429 92.0498 202.088C92.29 202.858 92.5384 203.624 92.7748 204.395C93.9127 208.092 95.032 211.786 96.2413 215.377C96.6666 216.642 97.1325 217.873 97.5941 219.106C97.4539 218.256 97.3433 217.539 97.3375 217.428C97.1682 214.016 98.8557 207.323 102.452 205.972C103.055 205.764 103.696 205.685 104.332 205.739C104.968 205.794 105.585 205.982 106.144 206.289C106.702 206.597 107.19 207.019 107.574 207.527C107.958 208.034 108.23 208.617 108.373 209.236C109.07 211.847 107.621 214.845 106.042 216.855C104.513 218.802 100.205 221.197 98.7235 221.987C99.2348 223.236 99.7442 224.488 100.296 225.674C100.691 226.477 101.015 227.276 101.457 228.059C101.878 228.844 102.295 229.622 102.708 230.391C103.557 231.843 104.425 233.348 105.29 234.744C105.884 235.72 106.468 236.639 107.054 237.566C106.615 236.312 105.809 233.837 105.765 233.623C105.078 230.276 105.728 223.406 109.077 221.528C109.642 221.231 110.263 221.056 110.9 221.015C111.537 220.973 112.176 221.065 112.775 221.285C113.374 221.505 113.919 221.849 114.376 222.293C114.833 222.737 115.191 223.272 115.426 223.862C116.513 226.336 115.537 229.519 114.282 231.744C112.9 234.193 108.059 237.76 107.451 238.202C108.426 239.733 109.388 241.213 110.319 242.596C110.79 243.298 111.249 243.974 111.701 244.63L110.049 246.357C109.517 245.548 108.972 244.711 108.412 243.834C107.416 242.283 106.383 240.606 105.338 238.874C103.54 239.593 101.701 240.206 99.8305 240.71C99.8799 243.596 97.9576 248.856 97.7048 249.533C99.3663 250.276 100.989 250.982 102.532 251.623C103.167 251.853 103.818 252.038 104.479 252.179L102.721 254.017C102.348 253.942 101.982 253.838 101.627 253.704C99.9367 252.957 98.145 252.126 96.3143 251.255C95.896 251.861 92.4488 256.793 90.0256 258.241C87.8276 259.554 84.6604 260.618 82.1432 259.609C81.5431 259.392 80.9957 259.051 80.5366 258.609C80.0775 258.167 79.7171 257.634 79.4787 257.045C79.2403 256.455 79.1293 255.822 79.1529 255.187C79.1765 254.552 79.3343 253.929 79.6158 253.358C81.404 249.972 88.284 249.126 91.6651 249.713C91.8647 249.746 93.9867 250.363 95.3187 250.773C94.5727 250.414 93.8443 250.072 93.0803 249.692C91.5647 248.952 90.0746 248.168 88.4684 247.33C87.7067 246.899 86.9375 246.464 86.1606 246.023C85.3812 245.603 84.611 245.06 83.8267 244.578C82.0303 243.421 80.2681 242.162 78.5206 240.855C77.8653 242.173 75.472 246.825 73.4898 248.462C71.5163 250.091 68.5487 251.62 65.9071 251.002C65.2809 250.878 64.688 250.624 64.1669 250.256C63.6458 249.889 63.2083 249.416 62.8829 248.869C62.5574 248.323 62.3512 247.714 62.2777 247.082C62.2043 246.451 62.2652 245.811 62.4566 245.205C63.7097 241.588 70.3812 239.714 73.8129 239.784C74.0264 239.788 76.4831 240.114 77.8287 240.318C76.7844 239.524 75.7383 238.737 74.7081 237.899C71.7333 235.482 68.798 232.942 65.8581 230.422C64.9581 229.65 64.0521 228.891 63.1477 228.128C62.9194 228.6 60.195 234.19 57.9744 236.023C56.002 237.652 53.0334 239.182 50.3922 238.563C49.766 238.439 49.1731 238.185 48.6521 237.818C48.1311 237.45 47.6936 236.978 47.3682 236.431C47.0427 235.884 46.8366 235.275 46.7631 234.644C46.6897 234.013 46.7506 233.373 46.942 232.767C48.195 229.15 54.8661 227.276 58.2975 227.345C58.5557 227.351 62.09 227.824 62.9831 227.988C60.9907 226.308 58.9904 224.652 56.9511 223.1C54.2086 220.989 51.3312 219.058 48.3371 217.318C48.2319 217.538 45.4139 223.385 43.1405 225.263C41.1672 226.892 38.1987 228.422 35.5575 227.803C34.9313 227.679 34.3384 227.425 33.8174 227.057C33.2964 226.69 32.859 226.217 32.5335 225.671C32.208 225.124 32.0018 224.515 31.9284 223.884C31.8549 223.252 31.9158 222.613 32.1071 222.006C33.3603 218.389 40.0314 216.516 43.4631 216.585C43.7321 216.591 47.5343 217.102 48.2172 217.244C48.0428 217.144 47.8731 217.022 47.698 216.924C44.6471 215.262 41.4536 213.874 38.1553 212.776C36.3415 212.146 34.5723 211.646 32.8407 211.196C32.4279 212.339 30.4843 217.54 28.6259 219.455C26.8445 221.29 24.0626 223.135 21.3694 222.809C20.7334 222.754 20.116 222.566 19.5576 222.258C18.9992 221.95 18.5122 221.528 18.1284 221.02C17.7445 220.512 17.4724 219.929 17.3297 219.31C17.1871 218.691 17.177 218.048 17.3002 217.424C18.1468 213.692 24.5707 211.101 27.9892 210.795C28.1747 210.778 30.0832 210.817 31.4727 210.865C30.6878 210.674 29.882 210.463 29.1265 210.295C26.2911 209.658 23.6556 209.249 21.318 208.905C19.9877 208.72 18.781 208.579 17.6497 208.459C16.6581 209.37 12.6115 212.991 10.1212 213.823C7.69108 214.634 4.3682 214.996 2.12847 213.472C1.58939 213.131 1.12839 212.681 0.775482 212.151C0.42257 211.622 0.185646 211.024 0.0801234 210.397C-0.0253992 209.77 0.00284381 209.128 0.163015 208.513C0.323187 207.898 0.611698 207.323 1.00978 206.826Z" fill="#263238"/>
<path d="M32.459 210.574C32.4418 210.641 28.4739 208.191 28.2417 208.008C25.5514 205.886 21.6051 200.213 22.9522 196.63C23.1925 196.041 23.5547 195.509 24.0152 195.069C24.4757 194.629 25.0241 194.29 25.6249 194.074C26.2256 193.859 26.8652 193.772 27.502 193.819C28.1387 193.866 28.7584 194.046 29.3207 194.347C31.7526 195.544 33.0636 198.604 33.5429 201.111C34.1059 204.054 32.4596 210.569 32.459 210.574Z" fill="#263238"/>
<path d="M316.216 274.32H277.521V287.915H316.216V274.32Z" stroke="#263238" stroke-linecap="round" stroke-linejoin="round"/>
<path d="M315 287.891H278.736V309.784H315V287.891Z" stroke="#263238" stroke-linecap="round" stroke-linejoin="round"/>
<path d="M301.024 274.391H292.713V309.976H301.024V274.391Z" stroke="#263238" stroke-linecap="round" stroke-linejoin="round"/>
<path d="M296.587 274.315C296.587 274.315 292.432 265.614 287.559 266.612C282.687 267.611 285.123 274.743 296.587 274.315Z" stroke="#263238" stroke-linecap="round" stroke-linejoin="round"/>
<path d="M296.934 274.315C296.934 274.315 301.089 265.614 305.962 266.612C310.834 267.611 308.398 274.743 296.934 274.315Z" stroke="#263238" stroke-linecap="round" stroke-linejoin="round"/>
<path d="M307.765 255.914C308.051 257.911 307.048 260.051 304.039 261.334C301.03 262.618 299.453 259.052 296.301 262.333C293.148 265.614 296.934 274.315 296.934 274.315C296.934 274.315 307.335 272.889 307.765 276.883C308.195 280.877 304.899 282.731 305.902 285.156C306.905 287.581 310.058 285.869 310.344 283.159" stroke="#263238" stroke-linecap="round" stroke-linejoin="round"/>
<path d="M304.029 41.2216C314.946 41.2216 323.797 32.4121 323.797 21.5449C323.797 10.6777 314.946 1.86816 304.029 1.86816C293.112 1.86816 284.262 10.6777 284.262 21.5449C284.262 32.4121 293.112 41.2216 304.029 41.2216Z" stroke="#263238" stroke-linecap="round" stroke-linejoin="round"/>
<path d="M304.142 37.481V34.8046C301.943 34.7193 300.305 34.0077 299.228 32.6698C298.15 31.3315 297.558 29.4303 297.451 26.9663L301.548 26.1699C301.576 27.061 301.695 27.947 301.901 28.8146C302.038 29.4755 302.353 30.0867 302.813 30.5827C303.031 30.7925 303.289 30.9557 303.573 31.0626C303.856 31.1694 304.159 31.2176 304.461 31.2041C304.771 31.2339 305.084 31.1869 305.372 31.0675C305.659 30.948 305.913 30.7597 306.11 30.5192C306.457 30.0078 306.631 29.3992 306.606 28.7825C306.647 27.799 306.372 26.8281 305.822 26.0105C305.229 25.2138 304.547 24.4869 303.789 23.8439L300.492 20.9764C299.917 20.4696 299.392 19.9094 298.924 19.3035C298.468 18.7054 298.111 18.0386 297.867 17.3282C297.597 16.5006 297.467 15.6337 297.483 14.7634C297.435 13.9336 297.558 13.1028 297.845 12.3221C298.131 11.5413 298.574 10.827 299.148 10.2228C300.362 9.08534 301.961 8.4429 303.629 8.42256V5.8418H305.006V8.3908C305.946 8.41394 306.868 8.65974 307.694 9.10784C308.374 9.49829 308.95 10.0444 309.374 10.7009C309.801 11.3734 310.115 12.1105 310.303 12.8833C310.508 13.7084 310.631 14.5515 310.671 15.4005L306.638 16.1013C306.604 15.3688 306.518 14.6396 306.382 13.919C306.292 13.3514 306.043 12.8209 305.662 12.3893C305.457 12.1954 305.211 12.0502 304.942 11.9647C304.673 11.8792 304.388 11.8556 304.109 11.8957C303.799 11.8849 303.491 11.9421 303.206 12.0632C302.921 12.1843 302.667 12.3663 302.461 12.5964C302.077 13.0743 301.878 13.6736 301.901 14.2852C301.863 15.0688 302.076 15.844 302.509 16.4997C302.953 17.1061 303.457 17.6666 304.013 18.1726L307.278 21.0081C307.964 21.6279 308.6 22.2989 309.183 23.0154C309.774 23.746 310.249 24.5628 310.591 25.4371C310.958 26.4147 311.138 27.4524 311.119 28.496C311.138 29.5607 310.902 30.6147 310.431 31.5707C309.989 32.4546 309.321 33.2073 308.495 33.7531C307.6 34.3273 306.578 34.6772 305.518 34.7729V37.481H304.142Z" fill="#263238"/>
<path d="M52.4115 21.1103C55.929 20.2933 58.1151 16.7925 57.2943 13.2912C56.4735 9.78988 52.9567 7.61381 49.4392 8.43082C45.9218 9.24784 43.7357 12.7485 44.5565 16.2499C45.3772 19.7512 48.8941 21.9273 52.4115 21.1103Z" stroke="#263238" stroke-linecap="round" stroke-linejoin="round"/>
<path d="M60.2722 33.502C60.0967 27.5238 55.9855 22.7383 50.9261 22.7383C45.8668 22.7383 41.7556 27.5238 41.5801 33.502" stroke="#263238" stroke-linecap="round" stroke-linejoin="round"/>
<path d="M65.9629 19.0811C68.9649 19.0811 71.3985 16.6587 71.3985 13.6704C71.3985 10.6822 68.9649 8.25977 65.9629 8.25977C62.9609 8.25977 60.5273 10.6822 60.5273 13.6704C60.5273 16.6587 62.9609 19.0811 65.9629 19.0811Z" stroke="#263238" stroke-linecap="round" stroke-linejoin="round"/>
<path d="M73.7302 29.239C73.5844 24.2704 70.1675 20.293 65.9625 20.293C64.5849 20.3425 63.2472 20.766 62.094 21.5178C60.9408 22.2695 60.0161 23.3209 59.4199 24.558" stroke="#263238" stroke-linecap="round" stroke-linejoin="round"/>
<path d="M36.0665 19.0811C39.0685 19.0811 41.5021 16.6587 41.5021 13.6704C41.5021 10.6822 39.0685 8.25977 36.0665 8.25977C33.0645 8.25977 30.6309 10.6822 30.6309 13.6704C30.6309 16.6587 33.0645 19.0811 36.0665 19.0811Z" stroke="#263238" stroke-linecap="round" stroke-linejoin="round"/>
<path d="M28.2988 29.239C28.4448 24.2704 31.8616 20.293 36.0665 20.293C37.4441 20.3425 38.7819 20.766 39.935 21.5178C41.0882 22.2695 42.013 23.3209 42.6092 24.558" stroke="#263238" stroke-linecap="round" stroke-linejoin="round"/>
<path d="M49.1784 303.329C59.9571 301.603 67.2899 291.507 65.5565 280.778C63.8232 270.048 53.6802 262.749 42.9014 264.475C32.1227 266.2 24.7899 276.296 26.5232 287.026C28.2566 297.755 38.3996 305.054 49.1784 303.329Z" stroke="#263238" stroke-linecap="round" stroke-linejoin="round"/>
<path d="M46.0391 272.834V294.97" stroke="#263238" stroke-width="4" stroke-linecap="round" stroke-linejoin="round"/>
<path d="M57.1582 283.902H34.9199" stroke="#263238" stroke-width="4" stroke-linecap="round" stroke-linejoin="round"/>
<path d="M63.7878 104.367C63.7878 104.367 59.7925 101.717 60.6659 100.881C61.5392 100.045 65.8278 101.883 66.8051 103.124C67.7825 104.366 67.2908 105.235 66.4851 105.312C65.6793 105.388 63.7878 104.367 63.7878 104.367Z" fill="white" stroke="#263238" stroke-linecap="round" stroke-linejoin="round"/>
<path d="M67.159 101.321C67.159 101.321 60.9669 98.1156 62.453 101.074C63.939 104.033 67.6543 106.745 69.1404 107.485C70.6265 108.224 78.8001 107.978 78.8001 107.978C78.8001 107.978 77.314 105.266 75.8279 104.526C74.3418 103.786 67.159 101.321 67.159 101.321Z" fill="white" stroke="#263238" stroke-linecap="round" stroke-linejoin="round"/>
<path d="M73.1038 101.322C73.1038 101.322 64.9302 96.8837 64.6825 98.6095C64.4348 100.335 71.1223 106.006 73.3515 106.992C75.0967 107.633 76.9405 107.966 78.8005 107.978L73.1038 101.322Z" fill="white" stroke="#263238" stroke-linecap="round" stroke-linejoin="round"/>
<path d="M105.3 108.917C105.3 108.917 102.328 102.013 100.099 101.027C97.8695 100.041 77.8071 102.013 77.8071 102.013C77.8071 102.013 68.1473 94.1236 68.8904 98.0684C69.6334 102.013 75.8255 106.698 77.5594 107.93C79.2931 109.163 92.1728 108.67 92.1728 108.67L96.1357 112.368L105.3 108.917Z" fill="white" stroke="#263238" stroke-linecap="round" stroke-linejoin="round"/>
<path d="M227.235 120.023C226.769 120.916 226.645 121.947 226.885 122.924C227.272 123.892 227.869 124.764 228.634 125.477L229.217 129.075L237.144 129.423L233.88 117.354L227.235 120.023Z" fill="white" stroke="#263238" stroke-linecap="round" stroke-linejoin="round"/>
<path d="M221.844 97.5804C221.844 97.5804 225.151 118.978 225.647 120.295C226.143 121.612 229.946 123.093 231.269 122.435C232.592 121.777 230.277 118.649 230.277 118.649L230.939 98.0741C230.939 98.0741 225.316 95.9343 221.844 97.5804Z" fill="#263238" stroke="#263238" stroke-linecap="round" stroke-linejoin="round"/>
<path d="M231.104 104.329C231.104 104.329 226.474 103.999 226.309 104.822C226.144 105.645 226.144 108.444 226.97 108.773C227.797 109.102 233.419 109.596 234.412 109.267C234.742 109.099 235.036 108.867 235.274 108.584C235.513 108.3 235.691 107.972 235.799 107.619C235.907 107.265 235.943 106.894 235.903 106.527C235.864 106.159 235.75 105.804 235.569 105.481C234.577 103.999 231.104 104.329 231.104 104.329Z" fill="white" stroke="#263238" stroke-linecap="round" stroke-linejoin="round"/>
<path d="M231.105 109.595C231.105 109.595 226.64 109.595 226.805 110.583C226.971 111.571 226.475 113.71 228.293 114.04C230.494 114.316 232.724 114.261 234.908 113.875C235.279 113.805 235.622 113.631 235.895 113.371C236.168 113.112 236.36 112.779 236.448 112.414C236.535 112.048 236.514 111.665 236.388 111.311C236.261 110.957 236.034 110.647 235.735 110.418C234.412 109.266 231.105 109.595 231.105 109.595Z" fill="white" stroke="#263238" stroke-linecap="round" stroke-linejoin="round"/>
<path d="M223.93 110.861C223.93 110.861 223.361 106.712 222.016 106.829C221.014 106.915 218.618 107.665 218.836 109.493C219.217 111.668 219.926 113.773 220.938 115.738C221.114 116.07 221.383 116.345 221.712 116.529C222.041 116.713 222.417 116.798 222.794 116.773C223.171 116.749 223.533 116.617 223.835 116.392C224.138 116.168 224.369 115.861 224.5 115.508C225.218 113.911 223.93 110.861 223.93 110.861Z" fill="white" stroke="#263238" stroke-linecap="round" stroke-linejoin="round"/>
<path d="M231.357 114.038C231.357 114.038 227.317 114.038 227.467 114.988C227.617 115.937 227.168 117.995 228.813 118.311C230.804 118.577 232.825 118.524 234.798 118.153C235.142 118.066 235.455 117.887 235.702 117.634C235.949 117.381 236.121 117.064 236.199 116.72C236.276 116.376 236.256 116.017 236.141 115.683C236.026 115.349 235.82 115.054 235.546 114.829C234.35 113.721 231.357 114.038 231.357 114.038Z" fill="white" stroke="#263238" stroke-linecap="round" stroke-linejoin="round"/>
<path d="M231.547 117.652C231.547 117.652 228.167 117.652 228.292 118.447C228.418 119.241 228.042 120.962 229.419 121.227C231.084 121.45 232.775 121.405 234.426 121.095C234.713 121.022 234.975 120.872 235.182 120.66C235.389 120.449 235.532 120.184 235.597 119.896C235.662 119.608 235.645 119.308 235.549 119.028C235.453 118.749 235.28 118.502 235.051 118.314C234.05 117.387 231.547 117.652 231.547 117.652Z" fill="white" stroke="#263238" stroke-linecap="round" stroke-linejoin="round"/>
<path d="M220.923 75.925C218.777 75.9257 216.675 76.5344 214.864 77.6799C213.052 78.8254 211.606 80.4604 210.694 82.3939C209.781 84.3274 209.441 86.4794 209.711 88.5984C209.982 90.7175 210.853 92.7161 212.223 94.3605C214.294 96.8501 217.694 98.6295 220.923 98.4317C230.846 97.8242 256.853 111.689 256.853 111.689V62.6641C256.853 62.6641 231.218 76.126 220.923 75.925Z" fill="white" stroke="#263238" stroke-linecap="round" stroke-linejoin="round"/>
<path d="M218.905 87.5785C218.904 85.0474 219.59 82.563 220.89 80.3874C222.189 78.2119 224.055 76.4259 226.289 75.2178C224.535 75.6645 222.733 75.9019 220.923 75.9248C218.777 75.9255 216.675 76.5342 214.864 77.6797C213.052 78.8252 211.606 80.4603 210.694 82.3937C209.781 84.3272 209.441 86.4792 209.711 88.5983C209.982 90.7173 210.853 92.7159 212.223 94.3604C214.294 96.85 217.694 98.6292 220.923 98.4316C222.073 98.3865 223.224 98.464 224.358 98.6626C222.66 97.3512 221.286 95.6706 220.341 93.7495C219.396 91.8283 218.905 89.7175 218.905 87.5785Z" fill="#F10027" stroke="#263238" stroke-linecap="round" stroke-linejoin="round"/>
<path d="M280.78 92.9752C283.997 79.8213 275.892 66.5621 262.678 63.36C249.463 60.1578 236.143 68.2253 232.926 81.3791C229.709 94.533 237.814 107.792 251.028 110.994C264.243 114.196 277.563 106.129 280.78 92.9752Z" fill="white" stroke="#263238" stroke-linecap="round" stroke-linejoin="round"/>
<path d="M277.842 87.1797C277.842 91.3125 276.611 95.3524 274.305 98.7887C271.998 102.225 268.72 104.903 264.884 106.485C261.048 108.066 256.828 108.48 252.756 107.674C248.684 106.868 244.943 104.878 242.008 101.955C239.072 99.0331 237.073 95.3099 236.263 91.2566C235.453 87.2033 235.869 83.0019 237.457 79.1838C239.046 75.3657 241.737 72.1023 245.189 69.8064C248.641 67.5104 252.7 66.285 256.851 66.2852C262.418 66.2854 267.757 68.4869 271.694 72.4053C275.63 76.3238 277.842 81.6382 277.842 87.1797Z" fill="#A6A6A6" stroke="#263238" stroke-linecap="round" stroke-linejoin="round"/>
<path d="M256.851 82.0731V92.2786L240.698 100.515C238.238 97.5572 236.642 93.9828 236.087 90.1828C235.531 86.3828 236.036 82.5039 237.547 78.9707L256.851 82.0731Z" fill="white" stroke="#263238" stroke-linecap="round" stroke-linejoin="round"/>
<path d="M261.979 87.177C261.979 88.1862 261.679 89.1728 261.115 90.012C260.552 90.8511 259.751 91.5052 258.815 91.8914C257.878 92.2776 256.847 92.3787 255.853 92.1818C254.858 91.9849 253.945 91.4989 253.228 90.7853C252.511 90.0717 252.023 89.1624 251.825 88.1726C251.627 87.1827 251.729 86.1567 252.117 85.2243C252.505 84.2919 253.162 83.4949 254.005 82.9342C254.848 82.3735 255.839 82.0742 256.853 82.0742C257.526 82.0742 258.193 82.2062 258.815 82.4626C259.437 82.7191 260.002 83.0949 260.478 83.5688C260.954 84.0426 261.331 84.6051 261.589 85.2242C261.847 85.8433 261.979 86.5069 261.979 87.177Z" fill="white" stroke="#263238" stroke-linecap="round" stroke-linejoin="round"/>
<path d="M227.553 129.396L226.734 125.971L237.383 124.666L237.143 129.423L227.553 129.396Z" fill="white" stroke="#263238" stroke-linecap="round" stroke-linejoin="round"/>
<path d="M95.5023 113.74L93.0449 109.825L104.35 104.117L105.299 108.916L95.5023 113.74Z" fill="white" stroke="#263238" stroke-linecap="round" stroke-linejoin="round"/>
<path d="M164.205 108.073C164.205 108.073 146.039 106.064 144.424 106.867C142.809 107.671 119.798 134.796 119.798 134.796L105.669 106.667L93.7598 111.891C93.7598 111.891 108.697 162.523 111.119 163.126C113.541 163.729 136.552 148.459 136.552 148.459L135.139 168.551C135.139 168.551 139.378 185.429 158.15 188.644C176.922 191.858 188.024 177.392 190.446 172.57C192.249 168.722 193.8 164.762 195.088 160.715L203.768 135.198C203.768 135.198 228.192 155.089 233.642 157.5C239.091 159.911 244.138 162.122 244.743 160.916C245.349 159.711 239.293 127.563 239.293 127.563L226.375 128.165L226.981 133.189C226.981 133.189 210.227 111.288 208.814 109.078C207.401 106.867 203.162 107.269 198.116 105.863C193.07 104.456 164.205 108.073 164.205 108.073Z" fill="#F10027" stroke="#263238" stroke-linecap="round" stroke-linejoin="round"/>
<path d="M136.551 148.459L150.075 138.413" stroke="#263238" stroke-linecap="round" stroke-linejoin="round"/>
<path d="M145.23 142.231L152.093 141.025" stroke="#263238" stroke-linecap="round" stroke-linejoin="round"/>
<path d="M203.768 135.199L208.41 118.924" stroke="#263238" stroke-linecap="round" stroke-linejoin="round"/>
<path d="M205.584 129.974L210.63 122.941" stroke="#263238" stroke-linecap="round" stroke-linejoin="round"/>
<path d="M227.582 144.888L227.787 148.861" stroke="#263238" stroke-linecap="round" stroke-linejoin="round"/>
<path d="M226.98 133.189L227.349 140.351" stroke="#263238" stroke-linecap="round" stroke-linejoin="round"/>
<path d="M119.799 134.796L124.038 143.637" stroke="#263238" stroke-linecap="round" stroke-linejoin="round"/>
<path d="M171.069 105.864L162.187 107.471C162.187 107.471 158.958 110.083 157.141 116.111C156.037 119.792 155.227 123.555 154.719 127.363L162.389 127.765L156.334 133.793C156.334 133.793 158.15 136.405 161.985 142.03C165.017 146.258 168.321 150.285 171.876 154.086L160.572 168.552C160.572 168.552 174.298 165.538 182.776 156.296C191.254 147.053 196.3 133.19 196.3 133.19L189.639 127.966L196.704 126.559C196.704 126.559 198.116 115.107 190.648 107.672C183.18 100.238 171.069 105.864 171.069 105.864Z" fill="#F10027" stroke="#263238" stroke-linecap="round" stroke-linejoin="round"/>
<path d="M191.054 110.686C191.054 110.686 188.693 115.329 188.228 123.945C187.861 130.675 184.313 139.25 181.183 145.316C178.698 150.139 176.477 153.38 176.317 152.882C176.317 152.882 175.005 150.796 172.916 144.722C172.409 143.264 171.861 141.571 171.271 139.616C168.244 129.569 165.62 113.297 166.828 110.084C167.393 108.499 168.068 106.954 168.848 105.462C178.538 118.521 191.054 110.686 191.054 110.686Z" fill="white" stroke="#263238" stroke-linecap="round" stroke-linejoin="round"/>
<path d="M178.74 138.212L181.183 145.315C178.698 150.138 176.477 153.379 176.317 152.881C176.317 152.881 175.005 150.795 172.916 144.721L176.317 138.613L172.944 132.332L176.921 128.366L182.37 133.79L178.74 138.212Z" fill="#263238" stroke="#263238" stroke-linecap="round" stroke-linejoin="round"/>
<path d="M170.26 135.198L176.921 128.366L185.035 135.984" stroke="#263238" stroke-linecap="round" stroke-linejoin="round"/>
<path d="M168.848 105.461C169.073 109.509 169.889 113.502 171.27 117.315C172.799 121.169 174.691 124.869 176.922 128.366L186.409 114.904C186.409 114.904 176.114 115.909 168.848 105.461Z" stroke="#263238" stroke-linecap="round" stroke-linejoin="round"/>
<path d="M197.723 84.1722C197.723 84.1722 200.605 83.7192 200.605 87.645C200.605 91.5709 198.936 96.4027 198.936 96.4027L197.723 84.1722Z" fill="white" stroke="#263238" stroke-linecap="round" stroke-linejoin="round"/>
<path d="M196.702 69.6971C196.702 69.6971 198.72 87.9811 198.922 93.4061C199.124 98.831 198.518 103.653 196.702 106.064C194.885 108.475 187.618 118.12 183.783 118.522C179.948 118.923 175.709 116.914 174.094 115.508C172.48 114.101 164.809 102.046 164.809 102.046C164.809 102.046 158.956 101.644 157.543 94.0089C156.13 86.3737 164.002 88.1821 164.002 88.1821C164.002 88.1821 159.763 81.5515 159.359 75.122C158.956 68.6924 157.745 66.2813 175.104 65.8795C192.463 65.4776 196.702 69.6971 196.702 69.6971Z" fill="white" stroke="#263238" stroke-linecap="round" stroke-linejoin="round"/>
<path d="M187.62 82.5566L192.465 99.2332L184.996 97.023" stroke="#263238" stroke-linecap="round" stroke-linejoin="round"/>
<path d="M177.528 95.0137L171.674 96.2193" stroke="#263238" stroke-linecap="round" stroke-linejoin="round"/>
<path d="M174.701 96.0186C175.264 97.7243 176.303 99.2351 177.697 100.374C179.091 101.513 180.783 102.232 182.573 102.448C189.032 103.453 192.262 102.247 192.262 102.247" stroke="#263238" stroke-linecap="round" stroke-linejoin="round"/>
<path d="M176.316 99.2334C176.316 99.2334 176.115 109.28 179.748 109.682C183.381 110.083 182.574 102.448 182.574 102.448C180.282 101.833 178.148 100.737 176.316 99.2334Z" fill="#263238" stroke="#263238" stroke-linecap="round" stroke-linejoin="round"/>
<path d="M177.061 106.179C177.557 108.012 178.381 109.529 179.748 109.68C180.091 109.73 180.442 109.686 180.762 109.554C181.083 109.422 181.361 109.206 181.568 108.929C180.868 107.692 178.43 106.67 177.061 106.179Z" fill="white" stroke="#263238" stroke-linecap="round" stroke-linejoin="round"/>
<path d="M178.84 87.1772C178.84 88.2869 178.342 89.1864 177.729 89.1864C177.116 89.1864 176.619 88.2869 176.619 87.1772C176.619 86.0675 177.116 85.168 177.729 85.168C178.342 85.168 178.84 86.0675 178.84 87.1772Z" fill="#263238"/>
<path d="M192.363 85.3686C192.363 86.4783 191.866 87.3779 191.253 87.3779C190.64 87.3779 190.143 86.4783 190.143 85.3686C190.143 84.2589 190.64 83.3594 191.253 83.3594C191.866 83.3594 192.363 84.2589 192.363 85.3686Z" fill="#263238"/>
<path d="M174.096 83.7615C175.038 82.6941 176.233 81.8777 177.572 81.3865C178.912 80.8953 180.353 80.7448 181.766 80.9486" stroke="#263238" stroke-linecap="round" stroke-linejoin="round"/>
<path d="M188.225 80.1448C188.225 80.1448 190.849 75.3226 195.088 77.7337" stroke="#263238" stroke-linecap="round" stroke-linejoin="round"/>
<path d="M175.307 70.0988C175.307 70.0988 169.05 69.0942 170.463 70.9025C171.876 72.7108 175.105 74.921 173.49 76.3275C171.876 77.7339 167.839 80.145 168.04 81.3505C168.242 82.5561 168.646 87.5792 168.04 88.7847C167.435 89.9903 166.022 90.1912 164.609 89.9903C163.196 89.7894 161.177 86.1727 160.37 85.1681C159.563 84.1635 152.296 76.9302 153.709 71.1034C155.122 65.2766 170.261 60.6554 170.261 60.6554C170.261 60.6554 179.95 49.8055 186.409 49.6045C192.868 49.4036 190.446 55.4314 190.244 56.0341C190.042 56.6369 199.529 55.4314 201.346 61.2581C203.162 67.0849 202.557 68.6923 194.281 70.9025C186.005 73.1127 175.307 70.0988 175.307 70.0988Z" fill="#263238" stroke="#263238" stroke-linecap="round" stroke-linejoin="round"/>
<path d="M302.627 62.0752L286.175 66.3103L289.579 68.0048L280.219 70.8282L299.224 68.2868L294.402 66.0283L302.627 62.0752Z" fill="#263238"/>
<path d="M306.005 101.946L289.364 98.5166L291.667 101.533L282.016 99.9533L300.196 106.024L296.871 101.878L306.005 101.946Z" fill="#263238"/>
<path d="M288.106 129.249L274.095 119.678L275.046 123.346L266.76 118.173L281.164 130.772L279.71 125.669L288.106 129.249Z" fill="#263238"/>
<path d="M136.473 227.505V204.353H142.043C143.391 204.32 144.734 204.509 146.02 204.911C147.042 205.236 147.916 205.909 148.49 206.811C149.109 207.928 149.402 209.195 149.336 210.47C149.346 211.315 149.259 212.159 149.078 212.985C148.93 213.675 148.631 214.324 148.202 214.886C147.753 215.437 147.163 215.857 146.494 216.101L149.738 227.505H145.489L142.675 216.9H140.722V227.505H136.473ZM140.722 214.243H142.043C142.718 214.272 143.39 214.15 144.01 213.885C144.494 213.652 144.869 213.243 145.058 212.742C145.289 212.096 145.396 211.413 145.374 210.727C145.439 209.81 145.213 208.895 144.728 208.112C144.297 207.531 143.479 207.24 142.273 207.24H140.722V214.243Z" fill="black"/>
<path d="M152.523 227.505V204.354H162.287V207.326H156.773V213.985H161.109V216.929H156.773V224.59H162.344V227.505H152.523Z" fill="black"/>
<path d="M164.814 227.505V204.354H174.376V207.269H169.064V214.014H173.4V216.958H169.064V227.505H164.814Z" fill="black"/>
<path d="M176.586 227.505V204.354H186.349V207.326H180.836V213.985H185.172V216.929H180.836V224.59H186.406V227.505H176.586Z" fill="black"/>
<path d="M188.875 227.505V204.353H194.445C195.793 204.32 197.136 204.509 198.422 204.911C199.444 205.236 200.318 205.909 200.892 206.811C201.511 207.928 201.805 209.195 201.739 210.47C201.748 211.315 201.662 212.159 201.481 212.985C201.333 213.675 201.034 214.324 200.605 214.886C200.156 215.437 199.565 215.857 198.896 216.101L202.141 227.505H197.891L195.077 216.9H193.125V227.505H188.875ZM193.125 214.243H194.445C195.12 214.272 195.792 214.15 196.413 213.885C196.896 213.652 197.271 213.243 197.461 212.742C197.691 212.096 197.799 211.413 197.777 210.727C197.842 209.81 197.616 208.895 197.131 208.112C196.7 207.531 195.881 207.24 194.675 207.24H193.125V214.243Z" fill="black"/>
<path d="M118.771 257.267L123.423 234.115H127.96L132.612 257.267H128.678L127.759 251.922H123.711L122.763 257.267H118.771ZM124.141 249.235H127.3L125.72 239.518L124.141 249.235Z" fill="black"/>
<path d="M141.799 257.267V234.115H151.361V237.031H146.049V243.776H150.384V246.72H146.049V257.267H141.799Z" fill="black"/>
<path d="M153.572 257.266V234.115H159.143C160.49 234.082 161.834 234.271 163.119 234.672C164.141 234.998 165.016 235.671 165.589 236.573C166.208 237.69 166.502 238.957 166.436 240.231C166.445 241.077 166.359 241.921 166.178 242.747C166.03 243.437 165.731 244.086 165.302 244.648C164.853 245.199 164.263 245.618 163.593 245.862L166.838 257.266H162.588L159.775 246.662H157.822V257.266H153.572ZM157.822 244.005H159.143C159.817 244.033 160.489 243.911 161.11 243.647C161.593 243.414 161.968 243.005 162.158 242.504C162.389 241.858 162.496 241.174 162.474 240.489C162.539 239.571 162.313 238.657 161.828 237.873C161.397 237.292 160.578 237.002 159.373 237.001H157.822V244.005Z" fill="black"/>
<path d="M169.738 257.267V234.115H173.93V257.267H169.738Z" fill="black"/>
<path d="M177.52 257.267V234.115H187.283V237.087H181.769V243.747H186.105V246.691H181.769V254.351H187.34V257.267H177.52Z" fill="black"/>
<path d="M189.809 257.267V234.115H192.766L198.423 247.32V234.115H201.926V257.267H199.112L193.426 243.433V257.267H189.809Z" fill="black"/>
<path d="M205.457 257.266V234.115H210.941C212.459 234.044 213.974 234.308 215.378 234.886C216.407 235.366 217.216 236.213 217.647 237.259C218.136 238.555 218.365 239.934 218.321 241.317V249.778C218.363 251.203 218.135 252.624 217.647 253.965C217.232 255.04 216.435 255.925 215.406 256.452C214.06 257.057 212.589 257.336 211.114 257.266H205.457ZM209.707 254.322H210.999C211.736 254.387 212.473 254.206 213.095 253.808C213.537 253.425 213.815 252.888 213.87 252.307C213.975 251.506 214.023 250.699 214.014 249.892V241.031C214.03 240.274 213.963 239.516 213.813 238.773C213.765 238.519 213.667 238.277 213.524 238.061C213.382 237.845 213.197 237.66 212.981 237.516C212.349 237.203 211.645 237.065 210.941 237.116H209.707V254.322Z" fill="black"/>
</g>
<defs>
<clipPath id="clip0_6656_3163">
<rect width="334" height="319.76" fill="white"/>
</clipPath>
</defs>
</svg>
