<svg width="17" height="24" viewBox="0 0 17 24" fill="none" xmlns="http://www.w3.org/2000/svg">
<path d="M13.033 23.905L12.9063 23.8716C-1.51475 19.1638 -0.332808 6.25739 0.371798 2.40929C0.425761 2.10988 0.538263 1.82406 0.702858 1.56821C0.867453 1.31236 1.08091 1.09151 1.33099 0.918312C1.58107 0.745111 1.86286 0.622967 2.16022 0.558876C2.45758 0.494786 2.76466 0.49001 3.06387 0.544822L7.16995 1.62875C7.46853 1.70726 7.73665 1.87363 7.9396 2.1063C8.14254 2.33898 8.27096 2.62725 8.30821 2.93377L8.70531 6.02032C8.74287 6.32007 8.69155 6.62425 8.55772 6.89508C8.4239 7.16591 8.21347 7.39145 7.95258 7.54367L5.94241 8.72712C5.81847 10.2018 6.15042 11.679 6.89335 12.9588C7.63628 14.2386 8.75433 15.2593 10.0963 15.8828L12.1362 14.7072C12.3999 14.5585 12.7014 14.4907 13.0034 14.5122C13.3053 14.5338 13.5941 14.6438 13.834 14.8285L16.3464 16.6956C16.5895 16.8816 16.7716 17.1358 16.8697 17.4258C16.9678 17.7158 16.9774 18.0284 16.8972 18.3239L15.8587 22.2592C15.7022 22.8522 15.3165 23.3588 14.7866 23.6674C14.2567 23.9761 13.6259 24.0616 13.033 23.905ZM2.84934 2.0827C2.6517 2.03052 2.44143 2.05901 2.26479 2.1619C2.08815 2.26478 1.95961 2.43363 1.90745 2.63131L1.89171 2.69093C1.07012 7.19378 0.514859 18.2087 13.3816 22.4026C13.4779 22.4345 13.5796 22.447 13.6808 22.4396C13.7819 22.4321 13.8806 22.4047 13.9712 22.359C14.0618 22.3132 14.1424 22.2501 14.2085 22.1731C14.2746 22.0962 14.3249 22.0069 14.3564 21.9105L15.4067 17.9304L12.8943 16.0633L10.195 17.6229L9.84912 17.4838C3.58022 14.9599 4.41205 8.24341 4.42975 8.17633L4.47945 7.80677L7.16033 6.22636L6.78403 3.12138L2.84934 2.0827Z" fill="white"/>
</svg>
