<svg width="24" height="20" viewBox="0 0 24 20" fill="none" xmlns="http://www.w3.org/2000/svg">
<path d="M22.4763 0.558593L0.850322 0.558594C0.390251 0.558594 0.0185547 0.934468 0.0185547 1.39971L0.0185551 18.222C0.0185551 18.6873 0.390251 19.0632 0.850322 19.0632L22.4763 19.0632C22.9363 19.0632 23.308 18.6873 23.308 18.222L23.308 1.39971C23.308 0.934467 22.9363 0.558593 22.4763 0.558593ZM21.4366 3.47096L21.4366 17.1707L1.89003 17.1707L1.89003 3.47096L1.17263 2.90584L2.19415 1.57845L3.30663 2.45374L20.0226 2.45374L21.135 1.57845L22.1566 2.90584L21.4366 3.47096ZM20.0226 2.45111L11.6633 9.02233L3.30404 2.45111L2.19155 1.57582L1.17003 2.90321L1.88743 3.46833L10.7665 10.4496C11.0219 10.6502 11.336 10.7591 11.6594 10.7591C11.9828 10.7591 12.2969 10.6502 12.5522 10.4496L21.4366 3.47096L22.154 2.90584L21.1324 1.57845L20.0226 2.45111Z" fill="white"/>
</svg>
