<svg width="29" height="29" viewBox="0 0 29 29" fill="none" xmlns="http://www.w3.org/2000/svg">
<path d="M20.822 17.4C20.938 16.443 21.025 15.486 21.025 14.5C21.025 13.514 20.938 12.557 20.822 11.6H25.723C25.955 12.528 26.1 13.4995 26.1 14.5C26.1 15.5005 25.955 16.472 25.723 17.4M18.2555 25.462C19.1255 23.8525 19.7925 22.1125 20.2565 20.3H24.534C23.1292 22.719 20.9005 24.5514 18.2555 25.462ZM17.893 17.4H11.107C10.962 16.443 10.875 15.486 10.875 14.5C10.875 13.514 10.962 12.5425 11.107 11.6H17.893C18.0235 12.5425 18.125 13.514 18.125 14.5C18.125 15.486 18.0235 16.443 17.893 17.4ZM14.5 26.042C13.2965 24.302 12.325 22.3735 11.7305 20.3H17.2695C16.675 22.3735 15.7035 24.302 14.5 26.042ZM8.7 8.7H4.466C5.85634 6.27446 8.08345 4.43916 10.73 3.538C9.86 5.1475 9.2075 6.8875 8.7 8.7ZM4.466 20.3H8.7C9.2075 22.1125 9.86 23.8525 10.73 25.462C8.089 24.5509 5.86503 22.7182 4.466 20.3ZM3.277 17.4C3.045 16.472 2.9 15.5005 2.9 14.5C2.9 13.4995 3.045 12.528 3.277 11.6H8.178C8.062 12.557 7.975 13.514 7.975 14.5C7.975 15.486 8.062 16.443 8.178 17.4M14.5 2.9435C15.7035 4.6835 16.675 6.6265 17.2695 8.7H11.7305C12.325 6.6265 13.2965 4.6835 14.5 2.9435ZM24.534 8.7H20.2565C19.8027 6.90411 19.1307 5.17055 18.2555 3.538C20.9235 4.4515 23.142 6.293 24.534 8.7ZM14.5 0C6.4815 0 0 6.525 0 14.5C0 18.3456 1.52767 22.0338 4.24695 24.753C5.5934 26.0995 7.19187 27.1676 8.95109 27.8963C10.7103 28.6249 12.5958 29 14.5 29C18.3456 29 22.0338 27.4723 24.753 24.753C27.4723 22.0338 29 18.3456 29 14.5C29 12.5958 28.6249 10.7103 27.8963 8.95109C27.1676 7.19187 26.0995 5.5934 24.753 4.24695C23.4066 2.9005 21.8081 1.83244 20.0489 1.10375C18.2897 0.375054 16.4042 0 14.5 0Z" fill="white"/>
</svg>
