<svg width="23" height="23" viewBox="0 0 23 23" fill="none" xmlns="http://www.w3.org/2000/svg">
<path d="M6.65417 9.83294C6.20695 9.83294 5.86667 9.63344 5.63334 9.23444C5.4 8.83544 5.40973 8.44189 5.6625 8.05378L10.0083 0.966276C10.2417 0.596832 10.5722 0.412109 11 0.412109C11.4278 0.412109 11.7583 0.596832 11.9917 0.966276L16.3375 8.05378C16.5903 8.44267 16.6 8.83661 16.3667 9.23561C16.1333 9.63461 15.7931 9.83372 15.3458 9.83294H6.65417ZM17.4167 22.6663C15.9583 22.6663 14.7186 22.1557 13.6973 21.1344C12.6761 20.1132 12.1659 18.8738 12.1667 17.4163C12.1667 15.9579 12.6773 14.7182 13.6985 13.6969C14.7197 12.6757 15.9591 12.1655 17.4167 12.1663C18.875 12.1663 20.1148 12.6769 21.136 13.6981C22.1572 14.7193 22.6674 15.9587 22.6667 17.4163C22.6667 18.8746 22.1561 20.1144 21.1348 21.1356C20.1136 22.1568 18.8742 22.6671 17.4167 22.6663ZM1.66667 22.0829C1.33612 22.0829 1.05884 21.9709 0.834837 21.7469C0.610837 21.5229 0.499226 21.2461 0.500004 20.9163V13.9163C0.500004 13.5857 0.612004 13.3084 0.836004 13.0844C1.06 12.8604 1.33689 12.7488 1.66667 12.7496H8.66667C8.99723 12.7496 9.2745 12.8616 9.4985 13.0856C9.7225 13.3096 9.83412 13.5865 9.83334 13.9163V20.9163C9.83334 21.2468 9.72134 21.5241 9.49734 21.7481C9.27334 21.9721 8.99645 22.0837 8.66667 22.0829H1.66667ZM17.4167 20.3329C18.2333 20.3329 18.9236 20.051 19.4875 19.4871C20.0514 18.9232 20.3333 18.2329 20.3333 17.4163C20.3333 16.5996 20.0514 15.9093 19.4875 15.3454C18.9236 14.7816 18.2333 14.4996 17.4167 14.4996C16.6 14.4996 15.9097 14.7816 15.3458 15.3454C14.7819 15.9093 14.5 16.5996 14.5 17.4163C14.5 18.2329 14.7819 18.9232 15.3458 19.4871C15.9097 20.051 16.6 20.3329 17.4167 20.3329ZM2.83334 19.7496H7.5V15.0829H2.83334V19.7496ZM8.72501 7.49961H13.275L11 3.82461L8.72501 7.49961Z" fill="white"/>
</svg>
