<svg width="26" height="19" viewBox="0 0 26 19" fill="none" xmlns="http://www.w3.org/2000/svg">
<path fill-rule="evenodd" clip-rule="evenodd" d="M1.61508 0H24.3879C25.2662 0 25.9833 0.737105 25.9833 1.63998V17.3579C25.9833 18.2598 25.2657 19.0005 24.3879 19.0005H1.61508C0.737215 19.0005 0.0175781 18.2639 0.0175781 17.3605V1.64207C0.0175781 0.737105 0.734679 0 1.61508 0ZM18.7733 10.9914C18.7733 10.6474 19.0451 10.3674 19.3803 10.3674C19.715 10.3674 19.9869 10.6474 19.9869 10.9914V11.7978L20.6375 11.3506C20.9149 11.1598 21.2907 11.2364 21.4769 11.521C21.6625 11.8062 21.5879 12.1925 21.311 12.3838L20.4712 12.9608L21.3115 13.5348C21.59 13.7245 21.666 14.1108 21.4819 14.397C21.2978 14.6832 20.9215 14.7619 20.6431 14.5722L19.9869 14.1244V14.9334C19.9869 15.2775 19.715 15.5574 19.3803 15.5574C19.0451 15.5574 18.7733 15.2775 18.7733 14.9334V14.1275L18.1226 14.5742C17.8457 14.765 17.4699 14.6889 17.2843 14.4038C17.0982 14.1186 17.1722 13.7324 17.4496 13.541L18.2895 12.964L17.4491 12.39C17.1707 12.2008 17.0941 11.814 17.2787 11.5278C17.4633 11.2416 17.8391 11.1629 18.118 11.3527L18.7733 11.8005V10.9914ZM12.3934 10.9914C12.3934 10.6474 12.6652 10.3674 13.0005 10.3674C13.3352 10.3674 13.607 10.6474 13.607 10.9914V11.7978L14.2577 11.3506C14.5351 11.1598 14.9109 11.2364 15.0965 11.521C15.2826 11.8062 15.2081 12.1925 14.9306 12.3838L14.0913 12.9608L14.9312 13.5348C15.2101 13.7245 15.2862 14.1108 15.1021 14.397C14.9175 14.6832 14.5412 14.7619 14.2632 14.5722L13.607 14.1244V14.9334C13.607 15.2775 13.3352 15.5574 13.0005 15.5574C12.6652 15.5574 12.3934 15.2775 12.3934 14.9334V14.1275L11.7427 14.5742C11.4653 14.765 11.0895 14.6889 10.9044 14.4038C10.7183 14.1186 10.7924 13.7324 11.0698 13.541L11.9096 12.964L11.0698 12.39C10.7908 12.2008 10.7143 11.814 10.8989 11.5278C11.0835 11.2416 11.4592 11.1629 11.7377 11.3527L12.3934 11.8005V10.9914ZM6.01354 10.9914C6.01354 10.6474 6.28537 10.3674 6.62059 10.3674C6.9553 10.3674 7.22713 10.6474 7.22713 10.9914V11.7978L7.8778 11.3506C8.1547 11.1598 8.53049 11.2364 8.71661 11.521C8.90274 11.8062 8.82819 12.1925 8.55078 12.3838L7.71146 12.9608L8.55129 13.5348C8.83022 13.7245 8.90679 14.1108 8.72219 14.397C8.53759 14.6832 8.16129 14.7619 7.88287 14.5722L7.22713 14.1244V14.9334C7.22713 15.2775 6.9553 15.5574 6.62059 15.5574C6.28537 15.5574 6.01354 15.2775 6.01354 14.9334V14.1275L5.36287 14.5742C5.08547 14.765 4.70967 14.6889 4.52406 14.4038C4.33844 14.1186 4.41249 13.7324 4.68989 13.541L5.52972 12.964L4.68939 12.39C4.41096 12.2008 4.33439 11.814 4.51899 11.5278C4.70308 11.2416 5.07938 11.1629 5.3578 11.3527L6.01354 11.8005V10.9914ZM1.14902 3.66572H24.8519V1.85579C24.8519 1.47629 24.5471 1.163 24.1779 1.163H1.82301C1.45381 1.163 1.14902 1.47629 1.14902 1.85579V3.66572ZM24.8544 8.08574H1.14902V17.1473C1.14902 17.5263 1.45381 17.8396 1.82301 17.8396H24.1804C24.5496 17.8396 24.8544 17.5263 24.8544 17.1473V8.08574Z" fill="white"/>
</svg>
