<svg width="23" height="23" viewBox="0 0 23 23" fill="none" xmlns="http://www.w3.org/2000/svg">
<path d="M19.8629 16.2977V13.0625C19.8629 12.6481 19.6994 12.2507 19.4083 11.9576C19.1173 11.6646 18.7225 11.5 18.3109 11.5H12.1033V8.375H13.6552C14.0667 8.37459 14.4612 8.20983 14.7521 7.9169C15.0431 7.62396 15.2067 7.22677 15.2071 6.8125V2.125C15.2067 1.71073 15.0431 1.31354 14.7521 1.0206C14.4612 0.727667 14.0667 0.562914 13.6552 0.5625H8.99943C8.58796 0.562914 8.19346 0.727667 7.90251 1.0206C7.61156 1.31354 7.44792 1.71073 7.44751 2.125V6.8125C7.44792 7.22677 7.61156 7.62396 7.90251 7.9169C8.19346 8.20983 8.58796 8.37459 8.99943 8.375H10.5513V11.5H4.34367C3.93208 11.5 3.53734 11.6646 3.2463 11.9576C2.95526 12.2507 2.79175 12.6481 2.79175 13.0625V16.2984C2.06029 16.4886 1.42281 16.9408 0.99882 17.5703C0.574826 18.1998 0.393423 18.9634 0.488613 19.718C0.583804 20.4725 0.949052 21.1662 1.5159 21.669C2.08274 22.1718 2.81226 22.4492 3.56771 22.4492C4.32317 22.4492 5.05269 22.1718 5.61953 21.669C6.18637 21.1662 6.55162 20.4725 6.64681 19.718C6.742 18.9634 6.5606 18.1998 6.1366 17.5703C5.71261 16.9408 5.07514 16.4886 4.34367 16.2984V13.0625H10.5513V16.2984C9.81988 16.4886 9.18241 16.9408 8.75841 17.5703C8.33442 18.1998 8.15302 18.9634 8.24821 19.718C8.3434 20.4725 8.70865 21.1662 9.27549 21.669C9.84233 22.1718 10.5719 22.4492 11.3273 22.4492C12.0828 22.4492 12.8123 22.1718 13.3791 21.669C13.946 21.1662 14.3112 20.4725 14.4064 19.718C14.5016 18.9634 14.3202 18.1998 13.8962 17.5703C13.4722 16.9408 12.8347 16.4886 12.1033 16.2984V13.0625H18.3109V16.2977C17.5795 16.4878 16.942 16.94 16.518 17.5695C16.094 18.1991 15.9126 18.9626 16.0078 19.7172C16.103 20.4717 16.4682 21.1654 17.0351 21.6682C17.6019 22.171 18.3314 22.4484 19.0869 22.4484C19.8424 22.4484 20.5719 22.171 21.1387 21.6682C21.7056 21.1654 22.0708 20.4717 22.166 19.7172C22.2612 18.9626 22.0798 18.1991 21.6558 17.5695C21.2318 16.94 20.5943 16.4878 19.8629 16.2977ZM8.99943 2.125H13.6552L13.656 6.8125H8.99943V2.125ZM5.11963 19.3125C5.11963 19.6215 5.02861 19.9236 4.85809 20.1806C4.68756 20.4375 4.44518 20.6378 4.16161 20.7561C3.87803 20.8743 3.56599 20.9053 3.26495 20.845C2.96391 20.7847 2.68738 20.6359 2.47034 20.4174C2.2533 20.1988 2.10549 19.9204 2.04561 19.6173C1.98573 19.3142 2.01646 19.0001 2.13393 18.7146C2.25139 18.429 2.4503 18.185 2.70551 18.0133C2.96072 17.8416 3.26077 17.75 3.56771 17.75C3.97918 17.7504 4.37368 17.9152 4.66463 18.2081C4.95558 18.501 5.11922 18.8982 5.11963 19.3125ZM12.8792 19.3125C12.8792 19.6215 12.7882 19.9236 12.6177 20.1806C12.4472 20.4375 12.2048 20.6378 11.9212 20.7561C11.6376 20.8743 11.3256 20.9053 11.0245 20.845C10.7235 20.7847 10.447 20.6359 10.2299 20.4174C10.0129 20.1988 9.86509 19.9204 9.80521 19.6173C9.74533 19.3142 9.77606 19.0001 9.89352 18.7146C10.011 18.429 10.2099 18.185 10.4651 18.0133C10.7203 17.8416 11.0204 17.75 11.3273 17.75C11.7387 17.7506 12.1331 17.9154 12.424 18.2083C12.7149 18.5012 12.8786 18.8983 12.8792 19.3125ZM19.0869 20.875C18.78 20.875 18.4799 20.7834 18.2247 20.6117C17.9695 20.44 17.7706 20.196 17.6531 19.9104C17.5357 19.6249 17.5049 19.3108 17.5648 19.0077C17.6247 18.7046 17.7725 18.4262 17.9895 18.2076C18.2066 17.9891 18.4831 17.8403 18.7841 17.78C19.0852 17.7197 19.3972 17.7507 19.6808 17.8689C19.9644 17.9872 20.2067 18.1875 20.3773 18.4444C20.5478 18.7014 20.6388 19.0035 20.6388 19.3125C20.6384 19.7268 20.4748 20.124 20.1838 20.4169C19.8929 20.7098 19.4984 20.8746 19.0869 20.875Z" fill="white"/>
</svg>
