<svg width="16" height="16" viewBox="0 0 16 16" fill="none" xmlns="http://www.w3.org/2000/svg">
<path d="M12.9097 2.3033C9.98232 -0.624121 5.23057 -0.624121 2.30314 2.3033C-0.624278 5.23072 -0.624277 9.98248 2.30314 12.9099C5.23057 15.8373 9.98232 15.8373 12.9097 12.9099C15.8372 9.98248 15.8372 5.23072 12.9097 2.3033ZM9.19744 10.2583L7.60645 8.66726L6.01546 10.2583C5.72377 10.5499 5.24648 10.5499 4.95479 10.2583C4.66311 9.96657 4.66311 9.48927 4.95479 9.19759L6.54579 7.6066L4.95479 6.01561C4.66311 5.72393 4.66311 5.24663 4.95479 4.95495C5.24648 4.66327 5.72377 4.66327 6.01546 4.95495L7.60645 6.54594L9.19744 4.95495C9.48912 4.66327 9.96641 4.66327 10.2581 4.95495C10.5498 5.24663 10.5498 5.72393 10.2581 6.01561L8.66711 7.6066L10.2581 9.19759C10.5498 9.48927 10.5498 9.96657 10.2581 10.2583C9.96641 10.5499 9.48912 10.5499 9.19744 10.2583Z" fill="#E60023"/>
</svg>
