<svg width="14" height="9" viewBox="0 0 14 9" fill="none" xmlns="http://www.w3.org/2000/svg">
<path d="M0.308162 0.338782C0.505537 0.12186 0.773199 0 1.05229 0C1.33138 0 1.59904 0.12186 1.79641 0.338782L7.00635 6.0664L12.2163 0.338782C12.4148 0.128008 12.6807 0.0113785 12.9566 0.0140149C13.2326 0.0166512 13.4966 0.138342 13.6917 0.352877C13.8869 0.567411 13.9976 0.857625 14 1.16101C14.0024 1.4644 13.8963 1.75668 13.7045 1.97491L7.75048 8.5206C7.55311 8.73752 7.28544 8.85938 7.00635 8.85938C6.72727 8.85938 6.4596 8.73752 6.26223 8.5206L0.308162 1.97491C0.110846 1.75793 0 1.46367 0 1.15685C0 0.850027 0.110846 0.555769 0.308162 0.338782Z" fill="#A8A1AE"/>
</svg>
