<svg width="17" height="17" viewBox="0 0 17 17" fill="none" xmlns="http://www.w3.org/2000/svg">
<path d="M8.39974 0.566406C4.07574 0.566406 0.566406 4.07574 0.566406 8.39974C0.566406 12.7237 4.07574 16.2331 8.39974 16.2331C12.7237 16.2331 16.2331 12.7237 16.2331 8.39974C16.2331 4.07574 12.7237 0.566406 8.39974 0.566406ZM8.39974 12.3164C7.96891 12.3164 7.61641 11.9639 7.61641 11.5331V8.39974C7.61641 7.96891 7.96891 7.61641 8.39974 7.61641C8.83057 7.61641 9.18307 7.96891 9.18307 8.39974V11.5331C9.18307 11.9639 8.83057 12.3164 8.39974 12.3164ZM9.18307 6.04974H7.61641V4.48307H9.18307V6.04974Z" fill="#E60023"/>
</svg>
