<svg width="86" height="86" viewBox="0 0 86 86" fill="none" xmlns="http://www.w3.org/2000/svg">
<g clip-path="url(#clip0_6362_4012)">
<path d="M44.032 0C57.5555 0 70.0771 5.9985 78.3804 16.0992C78.617 16.3855 78.7935 16.7165 78.8995 17.0724C79.0056 17.4284 79.0389 17.802 78.9976 18.1711C78.9562 18.5402 78.8411 18.8972 78.659 19.2209C78.4769 19.5445 78.2315 19.8283 77.9375 20.0552C77.339 20.5243 76.5812 20.7418 75.825 20.6616C75.0688 20.5813 74.3736 20.2095 73.8869 19.6252C70.2561 15.2273 65.6944 11.6901 60.5308 9.26894C55.3673 6.84778 49.7307 5.603 44.0277 5.6244C22.8932 5.6244 5.7577 22.36 5.7577 43C5.7577 63.64 22.8932 80.3756 44.0277 80.3756C49.8129 80.3977 55.5287 79.117 60.7514 76.6285C65.974 74.14 70.5693 70.5076 74.1965 66.0007C74.675 65.4103 75.3646 65.0295 76.1191 64.9388C76.8736 64.8481 77.6337 65.0547 78.2385 65.5148C78.5351 65.7379 78.7838 66.0182 78.9699 66.3393C79.156 66.6604 79.2757 67.0155 79.3218 67.3838C79.3679 67.752 79.3396 68.1257 79.2384 68.4828C79.1373 68.8398 78.9654 69.1729 78.733 69.4622C70.4426 79.8252 57.7533 86 44.032 86C19.7069 86 0 66.7489 0 43C0 19.2511 19.7112 0 44.032 0ZM73.5214 30.788L85.1572 42.4281C86.2838 43.5504 86.3053 45.3521 85.2088 46.4529L73.8396 57.8178C73.3001 58.3457 72.5731 58.6377 71.8183 58.6297C71.0635 58.6216 70.3429 58.3141 69.8148 57.7748C69.5468 57.5135 69.333 57.202 69.1856 56.858C69.0382 56.514 68.96 56.1443 68.9556 55.7701C68.9512 55.3958 69.0207 55.0244 69.16 54.677C69.2993 54.3297 69.5057 54.0132 69.7675 53.7457L76.4196 47.0936H32.0866C31.7128 47.0981 31.3417 47.029 30.9946 46.8901C30.6475 46.7513 30.3311 46.5454 30.0636 46.2842C29.7961 46.0231 29.5826 45.7118 29.4354 45.3682C29.2882 45.0245 29.2101 44.6552 29.2056 44.2814C29.2056 42.7248 30.4956 41.4649 32.0866 41.4649H76.2433L69.5439 34.7655C69.004 34.238 68.6957 33.5177 68.6869 32.7629C68.678 32.0081 68.9693 31.2808 69.4966 30.7407C70.0367 30.2134 70.764 29.9221 71.5188 29.931C72.2736 29.9398 72.9939 30.2481 73.5214 30.788Z" fill="#E60023"/>
</g>
<defs>
<clipPath id="clip0_6362_4012">
<rect width="86" height="86" fill="white"/>
</clipPath>
</defs>
</svg>
