<svg width="26" height="25" viewBox="0 0 26 25" fill="none" xmlns="http://www.w3.org/2000/svg">
<path d="M13.0059 14.3078C16.4991 14.3078 19.3308 11.522 19.3308 8.08552C19.3308 4.64907 16.4991 1.86328 13.0059 1.86328C9.51278 1.86328 6.68103 4.64907 6.68103 8.08552C6.68103 11.522 9.51278 14.3078 13.0059 14.3078Z" stroke="white" stroke-width="2"/>
<path d="M19.3308 13.0625H19.7761C20.7009 13.0628 21.5938 13.3952 22.287 13.9974C22.9802 14.5996 23.426 15.4301 23.5407 16.3329L24.0353 20.2206C24.0798 20.5708 24.048 20.9263 23.9422 21.2635C23.8363 21.6008 23.6587 21.912 23.4213 22.1766C23.1838 22.4411 22.8919 22.653 22.5648 22.7981C22.2377 22.9432 21.8831 23.0182 21.5243 23.0181H4.48754C4.12877 23.0182 3.77409 22.9432 3.44703 22.7981C3.11997 22.653 2.82802 22.4411 2.59055 22.1766C2.35308 21.912 2.17552 21.6008 2.06967 21.2635C1.96381 20.9263 1.93207 20.5708 1.97656 20.2206L2.4699 16.3329C2.58463 15.4297 3.03081 14.5989 3.72455 13.9966C4.41828 13.3943 5.31177 13.0622 6.23701 13.0625H6.68102" stroke="white" stroke-width="2" stroke-linecap="round" stroke-linejoin="round"/>
</svg>
