<svg width="27" height="22" viewBox="0 0 27 22" fill="none" xmlns="http://www.w3.org/2000/svg">
<path d="M25.1537 0.969726L0.787091 0.969727C0.268715 0.969727 -0.150085 1.38867 -0.150085 1.90723L-0.150085 20.6572C-0.150085 21.1758 0.268716 21.5947 0.787092 21.5947L25.1537 21.5947C25.6721 21.5947 26.0909 21.1758 26.0909 20.6572L26.0909 1.90723C26.0909 1.38867 25.6721 0.969726 25.1537 0.969726ZM23.9822 4.21582L23.9822 19.4854L1.95856 19.4854L1.95856 4.21582L1.15025 3.58594L2.30122 2.10645L3.55469 3.08203L22.389 3.08203L23.6425 2.10644L24.7935 3.58594L23.9822 4.21582ZM22.389 3.0791L12.9704 10.4033L3.55176 3.0791L2.29829 2.10352L1.14732 3.58301L1.95563 4.21289L11.96 11.9941C12.2477 12.2177 12.6017 12.3391 12.966 12.3391C13.3303 12.3391 13.6843 12.2177 13.972 11.9941L23.9822 4.21582L24.7905 3.58594L23.6396 2.10644L22.389 3.0791Z" fill="white"/>
</svg>
