<svg width="18" height="25" viewBox="0 0 18 25" fill="none" xmlns="http://www.w3.org/2000/svg">
<path d="M13.1907 24.3757L13.0636 24.3421C-1.40213 19.6198 -0.216521 6.67329 0.490272 2.81325C0.544402 2.51291 0.657253 2.22621 0.822359 1.96956C0.987464 1.71292 1.20158 1.49138 1.45244 1.31765C1.70329 1.14391 1.98596 1.02138 2.28424 0.957095C2.58252 0.892806 2.89056 0.888015 3.19069 0.942996L7.30952 2.03029C7.60902 2.10904 7.87797 2.27592 8.08155 2.50932C8.28513 2.74272 8.41394 3.03189 8.45131 3.33935L8.84964 6.43548C8.88731 6.73616 8.83583 7.04129 8.7016 7.31296C8.56736 7.58463 8.35628 7.81086 8.09457 7.96356L6.07817 9.15068C5.95384 10.6299 6.28682 12.1117 7.03206 13.3955C7.77729 14.6793 8.89882 15.7031 10.2449 16.3285L12.2912 15.1493C12.5557 15.0001 12.8582 14.9321 13.161 14.9537C13.4639 14.9754 13.7536 15.0857 13.9942 15.271L16.5144 17.1439C16.7582 17.3305 16.941 17.5855 17.0394 17.8764C17.1378 18.1673 17.1474 18.4808 17.0669 18.7772L16.0252 22.7248C15.8682 23.3196 15.4814 23.8277 14.9498 24.1374C14.4183 24.447 13.7855 24.5327 13.1907 24.3757ZM2.9755 2.48564C2.77725 2.43331 2.56633 2.46188 2.38914 2.56509C2.21195 2.66829 2.08301 2.83767 2.03069 3.03596L2.0149 3.09577C1.19076 7.61259 0.633777 18.6617 13.5405 22.8686C13.6371 22.9006 13.739 22.9132 13.8405 22.9057C13.942 22.8981 14.041 22.8707 14.1319 22.8248C14.2227 22.779 14.3036 22.7156 14.3699 22.6384C14.4362 22.5612 14.4867 22.4717 14.5183 22.3749L15.5719 18.3825L13.0516 16.5097L10.344 18.0741L9.997 17.9345C3.70864 15.4028 4.54306 8.66547 4.56082 8.59818L4.61067 8.22748L7.29986 6.64216L6.9224 3.52755L2.9755 2.48564Z" fill="white"/>
</svg>
