<svg width="20" height="20" viewBox="0 0 20 20" fill="none" xmlns="http://www.w3.org/2000/svg">
<g clip-path="url(#clip0_7462_4231)">
<path d="M18.75 1.87256L13.7456 1.87258V0.626953C13.7456 0.281641 13.4659 0.00195312 13.1206 0.00195312C12.7753 0.00195312 12.4956 0.281641 12.4956 0.626953V1.87227H7.49563V0.626953C7.49563 0.281641 7.21594 0.00195312 6.87063 0.00195312C6.52531 0.00195312 6.24563 0.281641 6.24563 0.626953V1.87227H1.25C0.559687 1.87227 0 2.43195 0 3.12227V18.7473C0 19.4376 0.559687 19.9973 1.25 19.9973H18.75C19.4403 19.9973 20 19.4376 20 18.7473V3.12227C20 2.43225 19.4403 1.87256 18.75 1.87256ZM18.75 18.7473H1.25V3.12227H6.24563V3.75195C6.24563 4.09725 6.52531 4.37695 6.87063 4.37695C7.21594 4.37695 7.49563 4.09725 7.49563 3.75195V3.12258H12.4956V3.75227C12.4956 4.09758 12.7753 4.37727 13.1206 4.37727C13.4659 4.37727 13.7456 4.09758 13.7456 3.75227V3.12258H18.75V18.7473ZM14.375 9.99756H15.625C15.97 9.99756 16.25 9.71756 16.25 9.37256V8.12256C16.25 7.77756 15.97 7.49756 15.625 7.49756H14.375C14.03 7.49756 13.75 7.77756 13.75 8.12256V9.37256C13.75 9.71756 14.03 9.99756 14.375 9.99756ZM14.375 14.9972H15.625C15.97 14.9972 16.25 14.7176 16.25 14.3722V13.1222C16.25 12.7772 15.97 12.4972 15.625 12.4972H14.375C14.03 12.4972 13.75 12.7772 13.75 13.1222V14.3722C13.75 14.7179 14.03 14.9972 14.375 14.9972ZM10.625 12.4972H9.375C9.03 12.4972 8.75 12.7772 8.75 13.1222V14.3722C8.75 14.7176 9.03 14.9972 9.375 14.9972H10.625C10.97 14.9972 11.25 14.7176 11.25 14.3722V13.1222C11.25 12.7776 10.97 12.4972 10.625 12.4972ZM10.625 7.49756H9.375C9.03 7.49756 8.75 7.77756 8.75 8.12256V9.37256C8.75 9.71756 9.03 9.99756 9.375 9.99756H10.625C10.97 9.99756 11.25 9.71756 11.25 9.37256V8.12256C11.25 7.77725 10.97 7.49756 10.625 7.49756ZM5.625 7.49756H4.375C4.03 7.49756 3.75 7.77756 3.75 8.12256V9.37256C3.75 9.71756 4.03 9.99756 4.375 9.99756H5.625C5.97 9.99756 6.25 9.71756 6.25 9.37256V8.12256C6.25 7.77725 5.97 7.49756 5.625 7.49756ZM5.625 12.4972H4.375C4.03 12.4972 3.75 12.7772 3.75 13.1222V14.3722C3.75 14.7176 4.03 14.9972 4.375 14.9972H5.625C5.97 14.9972 6.25 14.7176 6.25 14.3722V13.1222C6.25 12.7776 5.97 12.4972 5.625 12.4972Z" fill="#F10027"/>
</g>
<defs>
<clipPath id="clip0_7462_4231">
<rect width="20" height="20" fill="white"/>
</clipPath>
</defs>
</svg>
