<svg width="16" height="14" viewBox="0 0 16 14" fill="none" xmlns="http://www.w3.org/2000/svg">
<path d="M7.86524 9.96307C7.88125 9.98208 7.9017 9.99746 7.92505 10.008C7.9484 10.0186 7.97403 10.0241 8 10.0241C8.02597 10.0241 8.0516 10.0186 8.07495 10.008C8.0983 9.99746 8.11875 9.98208 8.13476 9.96307L10.5305 7.14517C10.6182 7.04176 10.539 6.88864 10.3957 6.88864H8.8107V0.159091C8.8107 0.0715909 8.73369 0 8.63957 0H7.35615C7.26203 0 7.18503 0.0715909 7.18503 0.159091V6.88665H5.60428C5.46096 6.88665 5.38182 7.03977 5.46952 7.14318L7.86524 9.96307ZM15.8289 9.26705H14.5455C14.4513 9.26705 14.3743 9.33864 14.3743 9.42614V12.4886H1.62567V9.42614C1.62567 9.33864 1.54866 9.26705 1.45455 9.26705H0.171123C0.0770053 9.26705 0 9.33864 0 9.42614V13.3636C0 13.7156 0.305882 14 0.684492 14H15.3155C15.6941 14 16 13.7156 16 13.3636V9.42614C16 9.33864 15.923 9.26705 15.8289 9.26705Z" fill="black"/>
</svg>
