<svg width="24" height="24" viewBox="0 0 24 24" fill="none" xmlns="http://www.w3.org/2000/svg">
<path d="M0.283203 21.2935H23.1115V23.5763H0.283203V21.2935ZM2.56603 12.1622H4.84886V20.1521H2.56603V12.1622ZM8.2731 12.1622H10.5559V20.1521H8.2731V12.1622ZM12.8388 12.1622H15.1216V20.1521H12.8388V12.1622ZM18.5458 12.1622H20.8287V20.1521H18.5458V12.1622ZM0.283203 6.45512L11.6973 0.748047L23.1115 6.45512V11.0208H0.283203V6.45512ZM2.56603 7.86591V8.73795H20.8287V7.86591L11.6973 3.30025L2.56603 7.86591ZM11.6973 7.59653C11.3946 7.59653 11.1043 7.47628 10.8902 7.26222C10.6762 7.04816 10.5559 6.75784 10.5559 6.45512C10.5559 6.1524 10.6762 5.86207 10.8902 5.64802C11.1043 5.43396 11.3946 5.3137 11.6973 5.3137C12.0001 5.3137 12.2904 5.43396 12.5044 5.64802C12.7185 5.86207 12.8388 6.1524 12.8388 6.45512C12.8388 6.75784 12.7185 7.04816 12.5044 7.26222C12.2904 7.47628 12.0001 7.59653 11.6973 7.59653Z" fill="white"/>
</svg>
