<svg width="19" height="23" viewBox="0 0 19 23" fill="none" xmlns="http://www.w3.org/2000/svg">
<path fill-rule="evenodd" clip-rule="evenodd" d="M0.78507 0H17.3996C17.8302 0 18.1847 0.352632 18.1847 0.78507V22.0209C18.1847 22.4534 17.832 22.806 17.3996 22.806H0.78507C0.354488 22.806 0 22.4534 0 22.0209V0.78507C0 0.352632 0.352632 0 0.78507 0ZM11.8837 3.35928H13.1903V4.42275H11.8837V3.35928ZM14.1888 3.35928H15.4954V4.42275H14.1888V3.35928ZM1.85039 8.37223H4.02557C4.21117 8.37223 4.36521 8.52442 4.36521 8.71187V10.5474C4.36521 10.733 4.21302 10.8871 4.02557 10.8871H1.85039C1.66479 10.8871 1.51075 10.7349 1.51075 10.5474V8.71187C1.51261 8.52442 1.66479 8.37223 1.85039 8.37223ZM14.3633 18.8009H16.5366C16.7222 18.8009 16.8762 18.953 16.8762 19.1405V20.976C16.8762 21.1616 16.724 21.3157 16.5366 21.3157H14.3633C14.1777 21.3157 14.0236 21.1635 14.0236 20.976V19.1405C14.0236 18.953 14.1777 18.8009 14.3633 18.8009ZM10.1929 18.8009H12.3662C12.5518 18.8009 12.704 18.953 12.704 19.1405V20.976C12.704 21.1616 12.5518 21.3157 12.3662 21.3157H10.1929C10.0073 21.3157 9.85328 21.1635 9.85328 20.976V19.1405C9.85328 18.953 10.0055 18.8009 10.1929 18.8009ZM6.02258 18.8009H8.19776C8.38336 18.8009 8.5374 18.953 8.5374 19.1405V20.976C8.5374 21.1616 8.38521 21.3157 8.19776 21.3157H6.02258C5.83699 21.3157 5.68294 21.1635 5.68294 20.976V19.1405C5.68294 18.953 5.83513 18.8009 6.02258 18.8009ZM1.85039 18.8009H4.02557C4.21117 18.8009 4.36521 18.953 4.36521 19.1405V20.976C4.36521 21.1616 4.21302 21.3157 4.02557 21.3157H1.85039C1.66479 21.3157 1.51075 21.1635 1.51075 20.976V19.1405C1.51261 18.953 1.66479 18.8009 1.85039 18.8009ZM14.3633 15.3246H16.5366C16.7222 15.3246 16.8762 15.4768 16.8762 15.6643V17.4998C16.8762 17.6873 16.724 17.8395 16.5366 17.8395H14.3633C14.1777 17.8395 14.0236 17.6873 14.0236 17.4998V15.6643C14.0236 15.4768 14.1777 15.3246 14.3633 15.3246ZM10.1929 15.3246H12.3662C12.5518 15.3246 12.704 15.4768 12.704 15.6643V17.4998C12.704 17.6873 12.5518 17.8395 12.3662 17.8395H10.1929C10.0073 17.8395 9.85328 17.6873 9.85328 17.4998V15.6643C9.85328 15.4768 10.0055 15.3246 10.1929 15.3246ZM6.02258 15.3246H8.19776C8.38336 15.3246 8.5374 15.4768 8.5374 15.6643V17.4998C8.5374 17.6873 8.38521 17.8395 8.19776 17.8395H6.02258C5.83699 17.8395 5.68294 17.6873 5.68294 17.4998V15.6643C5.68294 15.4768 5.83513 15.3246 6.02258 15.3246ZM1.85039 15.3246H4.02557C4.21117 15.3246 4.36521 15.4768 4.36521 15.6643V17.4998C4.36521 17.6873 4.21302 17.8395 4.02557 17.8395H1.85039C1.66479 17.8395 1.51075 17.6873 1.51075 17.4998V15.6643C1.51261 15.4768 1.66479 15.3246 1.85039 15.3246ZM14.3633 11.8484H16.5366C16.7222 11.8484 16.8762 12.0006 16.8762 12.1881V14.0236C16.8762 14.2092 16.724 14.3633 16.5366 14.3633H14.3633C14.1777 14.3633 14.0236 14.2111 14.0236 14.0236V12.1881C14.0236 12.0006 14.1777 11.8484 14.3633 11.8484ZM10.1929 11.8484H12.3662C12.5518 11.8484 12.704 12.0006 12.704 12.1881V14.0236C12.704 14.2092 12.5518 14.3633 12.3662 14.3633H10.1929C10.0073 14.3633 9.85328 14.2111 9.85328 14.0236V12.1881C9.85328 12.0006 10.0055 11.8484 10.1929 11.8484ZM6.02258 11.8484H8.19776C8.38336 11.8484 8.5374 12.0006 8.5374 12.1881V14.0236C8.5374 14.2092 8.38521 14.3633 8.19776 14.3633H6.02258C5.83699 14.3633 5.68294 14.2111 5.68294 14.0236V12.1881C5.68294 12.0006 5.83513 11.8484 6.02258 11.8484ZM1.85039 11.8484H4.02557C4.21117 11.8484 4.36521 12.0006 4.36521 12.1881V14.0236C4.36521 14.2092 4.21302 14.3633 4.02557 14.3633H1.85039C1.66479 14.3633 1.51075 14.2111 1.51075 14.0236V12.1881C1.51261 12.0006 1.66479 11.8484 1.85039 11.8484ZM14.3633 8.37223H16.5366C16.7222 8.37223 16.8762 8.52442 16.8762 8.71187V10.5474C16.8762 10.733 16.724 10.8871 16.5366 10.8871H14.3633C14.1777 10.8871 14.0236 10.7349 14.0236 10.5474V8.71187C14.0236 8.52442 14.1777 8.37223 14.3633 8.37223ZM10.1929 8.37223H12.3662C12.5518 8.37223 12.704 8.52442 12.704 8.71187V10.5474C12.704 10.733 12.5518 10.8871 12.3662 10.8871H10.1929C10.0073 10.8871 9.85328 10.7349 9.85328 10.5474V8.71187C9.85328 8.52442 10.0055 8.37223 10.1929 8.37223ZM6.02258 8.37223H8.19776C8.38336 8.37223 8.5374 8.52442 8.5374 8.71187V10.5474C8.5374 10.733 8.38521 10.8871 8.19776 10.8871H6.02258C5.83699 10.8871 5.68294 10.7349 5.68294 10.5474V8.71187C5.68294 8.52442 5.83513 8.37223 6.02258 8.37223ZM1.67407 1.60169H16.351C16.4939 1.60169 16.609 1.71862 16.609 1.85967V5.40826C16.609 5.55117 16.4939 5.66624 16.351 5.66624H1.67407C1.53116 5.66624 1.4161 5.54931 1.4161 5.40826V1.85967C1.4161 1.71862 1.53302 1.60169 1.67407 1.60169Z" fill="white"/>
</svg>
