<svg width="368" height="368" viewBox="0 0 368 368" fill="none" xmlns="http://www.w3.org/2000/svg">
<mask id="path-1-inside-1_75_51" fill="white">
<path d="M304.494 323.335C267.654 355.164 219.678 371.055 171.122 367.511L184.483 184.428L304.494 323.335Z"/>
</mask>
<path d="M304.494 323.335C267.654 355.164 219.678 371.055 171.122 367.511L184.483 184.428L304.494 323.335Z" fill="#9FD156" stroke="#FEFEFE" stroke-width="4.12213" mask="url(#path-1-inside-1_75_51)"/>
<mask id="path-2-inside-2_75_51" fill="white">
<path d="M1.0129 190.502C0.150593 164.46 4.8421 138.533 14.7755 114.445C24.7089 90.3564 39.6565 68.6586 58.6245 50.7941C77.5926 32.9297 100.146 19.3079 124.786 10.8346C149.426 2.36123 175.588 -0.769578 201.531 1.65034L184.483 184.427L1.0129 190.502Z"/>
</mask>
<path d="M1.0129 190.502C0.150593 164.46 4.8421 138.533 14.7755 114.445C24.7089 90.3564 39.6565 68.6586 58.6245 50.7941C77.5926 32.9297 100.146 19.3079 124.786 10.8346C149.426 2.36123 175.588 -0.769578 201.531 1.65034L184.483 184.427L1.0129 190.502Z" fill="#FF9D00" stroke="white" stroke-width="4.12213" mask="url(#path-2-inside-2_75_51)"/>
<mask id="path-3-inside-3_75_51" fill="white">
<path d="M203.483 1.84293C242.708 5.92485 279.575 22.5302 308.626 49.2001C337.677 75.8701 357.367 111.187 364.78 149.92L184.483 184.427L203.483 1.84293Z"/>
</mask>
<path d="M203.483 1.84293C242.708 5.92485 279.575 22.5302 308.626 49.2001C337.677 75.8701 357.367 111.187 364.78 149.92L184.483 184.427L203.483 1.84293Z" fill="#EF0026" stroke="white" stroke-width="4.12213" mask="url(#path-3-inside-3_75_51)"/>
<mask id="path-4-inside-4_75_51" fill="white">
<path d="M364.129 150.195C369.907 181.39 367.502 213.549 357.148 243.537C346.795 273.526 328.846 300.319 305.053 321.304L183.629 183.629L364.129 150.195Z"/>
</mask>
<path d="M364.129 150.195C369.907 181.39 367.502 213.549 357.148 243.537C346.795 273.526 328.846 300.319 305.053 321.304L183.629 183.629L364.129 150.195Z" fill="#5998D0" stroke="white" stroke-width="4.12213" mask="url(#path-4-inside-4_75_51)"/>
<mask id="path-5-inside-5_75_51" fill="white">
<path d="M1.0129 190.502C2.50589 235.591 20.5501 278.552 51.7015 311.184C82.8529 343.816 124.93 363.834 169.901 367.417L184.483 184.427L1.0129 190.502Z"/>
</mask>
<path d="M1.0129 190.502C2.50589 235.591 20.5501 278.552 51.7015 311.184C82.8529 343.816 124.93 363.834 169.901 367.417L184.483 184.427L1.0129 190.502Z" fill="#F37A42" stroke="white" stroke-width="4.12213" mask="url(#path-5-inside-5_75_51)"/>
<path d="M80.0028 108.73V106.114L87.9228 95.4583H92.0028L84.2508 106.114L82.3548 105.562H95.5788V108.73H80.0028ZM89.0508 112.258V108.73L89.1708 105.562V102.418H92.8428V112.258H89.0508ZM103.942 112.546C102.566 112.546 101.334 112.21 100.246 111.538C99.1577 110.85 98.3017 109.858 97.6777 108.562C97.0537 107.266 96.7417 105.698 96.7417 103.858C96.7417 102.018 97.0537 100.45 97.6777 99.1543C98.3017 97.8583 99.1577 96.8743 100.246 96.2023C101.334 95.5143 102.566 95.1703 103.942 95.1703C105.334 95.1703 106.566 95.5143 107.638 96.2023C108.726 96.8743 109.582 97.8583 110.206 99.1543C110.83 100.45 111.142 102.018 111.142 103.858C111.142 105.698 110.83 107.266 110.206 108.562C109.582 109.858 108.726 110.85 107.638 111.538C106.566 112.21 105.334 112.546 103.942 112.546ZM103.942 109.258C104.598 109.258 105.166 109.074 105.646 108.706C106.142 108.338 106.526 107.754 106.798 106.954C107.086 106.154 107.23 105.122 107.23 103.858C107.23 102.594 107.086 101.562 106.798 100.762C106.526 99.9623 106.142 99.3783 105.646 99.0103C105.166 98.6423 104.598 98.4583 103.942 98.4583C103.302 98.4583 102.734 98.6423 102.238 99.0103C101.758 99.3783 101.374 99.9623 101.086 100.762C100.814 101.562 100.678 102.594 100.678 103.858C100.678 105.122 100.814 106.154 101.086 106.954C101.374 107.754 101.758 108.338 102.238 108.706C102.734 109.074 103.302 109.258 103.942 109.258ZM115.455 112.258L126.927 95.4583H129.783L118.311 112.258H115.455ZM116.919 104.53C116.103 104.53 115.383 104.346 114.759 103.978C114.135 103.594 113.639 103.058 113.271 102.37C112.919 101.666 112.743 100.842 112.743 99.8983C112.743 98.9543 112.919 98.1383 113.271 97.4503C113.639 96.7623 114.135 96.2263 114.759 95.8423C115.383 95.4583 116.103 95.2663 116.919 95.2663C117.735 95.2663 118.455 95.4583 119.079 95.8423C119.703 96.2263 120.191 96.7623 120.543 97.4503C120.895 98.1383 121.071 98.9543 121.071 99.8983C121.071 100.842 120.895 101.666 120.543 102.37C120.191 103.058 119.703 103.594 119.079 103.978C118.455 104.346 117.735 104.53 116.919 104.53ZM116.919 102.562C117.447 102.562 117.871 102.346 118.191 101.914C118.511 101.466 118.671 100.794 118.671 99.8983C118.671 99.0023 118.511 98.3383 118.191 97.9063C117.871 97.4583 117.447 97.2343 116.919 97.2343C116.407 97.2343 115.983 97.4583 115.647 97.9063C115.327 98.3383 115.167 99.0023 115.167 99.8983C115.167 100.778 115.327 101.442 115.647 101.89C115.983 102.338 116.407 102.562 116.919 102.562ZM128.319 112.45C127.519 112.45 126.799 112.266 126.159 111.898C125.535 111.514 125.047 110.978 124.695 110.29C124.343 109.586 124.167 108.762 124.167 107.818C124.167 106.874 124.343 106.058 124.695 105.37C125.047 104.682 125.535 104.146 126.159 103.762C126.799 103.378 127.519 103.186 128.319 103.186C129.151 103.186 129.879 103.378 130.503 103.762C131.127 104.146 131.615 104.682 131.967 105.37C132.319 106.058 132.495 106.874 132.495 107.818C132.495 108.762 132.319 109.586 131.967 110.29C131.615 110.978 131.127 111.514 130.503 111.898C129.879 112.266 129.151 112.45 128.319 112.45ZM128.319 110.482C128.847 110.482 129.271 110.266 129.591 109.834C129.911 109.386 130.071 108.714 130.071 107.818C130.071 106.938 129.911 106.274 129.591 105.826C129.271 105.378 128.847 105.154 128.319 105.154C127.807 105.154 127.383 105.378 127.047 105.826C126.727 106.258 126.567 106.922 126.567 107.818C126.567 108.714 126.727 109.386 127.047 109.834C127.383 110.266 127.807 110.482 128.319 110.482Z" fill="white"/>
<path d="M232.787 112.258V96.8983L234.467 98.5783H229.427V95.4583H236.675V112.258H232.787ZM245.305 112.546C244.137 112.546 242.977 112.394 241.825 112.09C240.689 111.77 239.713 111.322 238.897 110.746L240.433 107.77C241.073 108.234 241.809 108.602 242.641 108.874C243.489 109.146 244.345 109.282 245.209 109.282C246.185 109.282 246.953 109.09 247.513 108.706C248.073 108.322 248.353 107.786 248.353 107.098C248.353 106.666 248.241 106.282 248.017 105.946C247.793 105.61 247.393 105.354 246.817 105.178C246.257 105.002 245.465 104.914 244.441 104.914H240.145L241.009 95.4583H251.257V98.5783H242.401L244.417 96.8023L243.817 103.546L241.801 101.77H245.353C247.017 101.77 248.353 102.002 249.361 102.466C250.385 102.914 251.129 103.53 251.593 104.314C252.057 105.098 252.289 105.986 252.289 106.978C252.289 107.97 252.041 108.89 251.545 109.738C251.049 110.57 250.281 111.25 249.241 111.778C248.217 112.29 246.905 112.546 245.305 112.546ZM256.056 112.258L267.528 95.4583H270.384L258.912 112.258H256.056ZM257.52 104.53C256.704 104.53 255.984 104.346 255.36 103.978C254.736 103.594 254.24 103.058 253.872 102.37C253.52 101.666 253.344 100.842 253.344 99.8983C253.344 98.9543 253.52 98.1383 253.872 97.4503C254.24 96.7623 254.736 96.2263 255.36 95.8423C255.984 95.4583 256.704 95.2663 257.52 95.2663C258.336 95.2663 259.056 95.4583 259.68 95.8423C260.304 96.2263 260.792 96.7623 261.144 97.4503C261.496 98.1383 261.672 98.9543 261.672 99.8983C261.672 100.842 261.496 101.666 261.144 102.37C260.792 103.058 260.304 103.594 259.68 103.978C259.056 104.346 258.336 104.53 257.52 104.53ZM257.52 102.562C258.048 102.562 258.472 102.346 258.792 101.914C259.112 101.466 259.272 100.794 259.272 99.8983C259.272 99.0023 259.112 98.3383 258.792 97.9063C258.472 97.4583 258.048 97.2343 257.52 97.2343C257.008 97.2343 256.584 97.4583 256.248 97.9063C255.928 98.3383 255.768 99.0023 255.768 99.8983C255.768 100.778 255.928 101.442 256.248 101.89C256.584 102.338 257.008 102.562 257.52 102.562ZM268.92 112.45C268.12 112.45 267.4 112.266 266.76 111.898C266.136 111.514 265.648 110.978 265.296 110.29C264.944 109.586 264.768 108.762 264.768 107.818C264.768 106.874 264.944 106.058 265.296 105.37C265.648 104.682 266.136 104.146 266.76 103.762C267.4 103.378 268.12 103.186 268.92 103.186C269.752 103.186 270.48 103.378 271.104 103.762C271.728 104.146 272.216 104.682 272.568 105.37C272.92 106.058 273.096 106.874 273.096 107.818C273.096 108.762 272.92 109.586 272.568 110.29C272.216 110.978 271.728 111.514 271.104 111.898C270.48 112.266 269.752 112.45 268.92 112.45ZM268.92 110.482C269.448 110.482 269.872 110.266 270.192 109.834C270.512 109.386 270.672 108.714 270.672 107.818C270.672 106.938 270.512 106.274 270.192 105.826C269.872 105.378 269.448 105.154 268.92 105.154C268.408 105.154 267.984 105.378 267.648 105.826C267.328 106.258 267.168 106.922 267.168 107.818C267.168 108.714 267.328 109.386 267.648 109.834C267.984 110.266 268.408 110.482 268.92 110.482Z" fill="white"/>
<path d="M275.787 236.258V220.898L277.467 222.578H272.427V219.458H279.675V236.258H275.787ZM288.305 236.546C287.137 236.546 285.977 236.394 284.825 236.09C283.689 235.77 282.713 235.322 281.897 234.746L283.433 231.77C284.073 232.234 284.809 232.602 285.641 232.874C286.489 233.146 287.345 233.282 288.209 233.282C289.185 233.282 289.953 233.09 290.513 232.706C291.073 232.322 291.353 231.786 291.353 231.098C291.353 230.666 291.241 230.282 291.017 229.946C290.793 229.61 290.393 229.354 289.817 229.178C289.257 229.002 288.465 228.914 287.441 228.914H283.145L284.009 219.458H294.257V222.578H285.401L287.417 220.802L286.817 227.546L284.801 225.77H288.353C290.017 225.77 291.353 226.002 292.361 226.466C293.385 226.914 294.129 227.53 294.593 228.314C295.057 229.098 295.289 229.986 295.289 230.978C295.289 231.97 295.041 232.89 294.545 233.738C294.049 234.57 293.281 235.25 292.241 235.778C291.217 236.29 289.905 236.546 288.305 236.546ZM299.056 236.258L310.528 219.458H313.384L301.912 236.258H299.056ZM300.52 228.53C299.704 228.53 298.984 228.346 298.36 227.978C297.736 227.594 297.24 227.058 296.872 226.37C296.52 225.666 296.344 224.842 296.344 223.898C296.344 222.954 296.52 222.138 296.872 221.45C297.24 220.762 297.736 220.226 298.36 219.842C298.984 219.458 299.704 219.266 300.52 219.266C301.336 219.266 302.056 219.458 302.68 219.842C303.304 220.226 303.792 220.762 304.144 221.45C304.496 222.138 304.672 222.954 304.672 223.898C304.672 224.842 304.496 225.666 304.144 226.37C303.792 227.058 303.304 227.594 302.68 227.978C302.056 228.346 301.336 228.53 300.52 228.53ZM300.52 226.562C301.048 226.562 301.472 226.346 301.792 225.914C302.112 225.466 302.272 224.794 302.272 223.898C302.272 223.002 302.112 222.338 301.792 221.906C301.472 221.458 301.048 221.234 300.52 221.234C300.008 221.234 299.584 221.458 299.248 221.906C298.928 222.338 298.768 223.002 298.768 223.898C298.768 224.778 298.928 225.442 299.248 225.89C299.584 226.338 300.008 226.562 300.52 226.562ZM311.92 236.45C311.12 236.45 310.4 236.266 309.76 235.898C309.136 235.514 308.648 234.978 308.296 234.29C307.944 233.586 307.768 232.762 307.768 231.818C307.768 230.874 307.944 230.058 308.296 229.37C308.648 228.682 309.136 228.146 309.76 227.762C310.4 227.378 311.12 227.186 311.92 227.186C312.752 227.186 313.48 227.378 314.104 227.762C314.728 228.146 315.216 228.682 315.568 229.37C315.92 230.058 316.096 230.874 316.096 231.818C316.096 232.762 315.92 233.586 315.568 234.29C315.216 234.978 314.728 235.514 314.104 235.898C313.48 236.266 312.752 236.45 311.92 236.45ZM311.92 234.482C312.448 234.482 312.872 234.266 313.192 233.834C313.512 233.386 313.672 232.714 313.672 231.818C313.672 230.938 313.512 230.274 313.192 229.826C312.872 229.378 312.448 229.154 311.92 229.154C311.408 229.154 310.984 229.378 310.648 229.826C310.328 230.258 310.168 230.922 310.168 231.818C310.168 232.714 310.328 233.386 310.648 233.834C310.984 234.266 311.408 234.482 311.92 234.482Z" fill="white"/>
<path d="M200.787 308.258V292.898L202.467 294.578H197.427V291.458H204.675V308.258H200.787ZM214.793 308.546C213.417 308.546 212.185 308.21 211.097 307.538C210.009 306.85 209.153 305.858 208.529 304.562C207.905 303.266 207.593 301.698 207.593 299.858C207.593 298.018 207.905 296.45 208.529 295.154C209.153 293.858 210.009 292.874 211.097 292.202C212.185 291.514 213.417 291.17 214.793 291.17C216.185 291.17 217.417 291.514 218.489 292.202C219.577 292.874 220.433 293.858 221.057 295.154C221.681 296.45 221.993 298.018 221.993 299.858C221.993 301.698 221.681 303.266 221.057 304.562C220.433 305.858 219.577 306.85 218.489 307.538C217.417 308.21 216.185 308.546 214.793 308.546ZM214.793 305.258C215.449 305.258 216.017 305.074 216.497 304.706C216.993 304.338 217.377 303.754 217.649 302.954C217.937 302.154 218.081 301.122 218.081 299.858C218.081 298.594 217.937 297.562 217.649 296.762C217.377 295.962 216.993 295.378 216.497 295.01C216.017 294.642 215.449 294.458 214.793 294.458C214.153 294.458 213.585 294.642 213.089 295.01C212.609 295.378 212.225 295.962 211.937 296.762C211.665 297.562 211.529 298.594 211.529 299.858C211.529 301.122 211.665 302.154 211.937 302.954C212.225 303.754 212.609 304.338 213.089 304.706C213.585 305.074 214.153 305.258 214.793 305.258ZM226.306 308.258L237.778 291.458H240.634L229.162 308.258H226.306ZM227.77 300.53C226.954 300.53 226.234 300.346 225.61 299.978C224.986 299.594 224.49 299.058 224.122 298.37C223.77 297.666 223.594 296.842 223.594 295.898C223.594 294.954 223.77 294.138 224.122 293.45C224.49 292.762 224.986 292.226 225.61 291.842C226.234 291.458 226.954 291.266 227.77 291.266C228.586 291.266 229.306 291.458 229.93 291.842C230.554 292.226 231.042 292.762 231.394 293.45C231.746 294.138 231.922 294.954 231.922 295.898C231.922 296.842 231.746 297.666 231.394 298.37C231.042 299.058 230.554 299.594 229.93 299.978C229.306 300.346 228.586 300.53 227.77 300.53ZM227.77 298.562C228.298 298.562 228.722 298.346 229.042 297.914C229.362 297.466 229.522 296.794 229.522 295.898C229.522 295.002 229.362 294.338 229.042 293.906C228.722 293.458 228.298 293.234 227.77 293.234C227.258 293.234 226.834 293.458 226.498 293.906C226.178 294.338 226.018 295.002 226.018 295.898C226.018 296.778 226.178 297.442 226.498 297.89C226.834 298.338 227.258 298.562 227.77 298.562ZM239.17 308.45C238.37 308.45 237.65 308.266 237.01 307.898C236.386 307.514 235.898 306.978 235.546 306.29C235.194 305.586 235.018 304.762 235.018 303.818C235.018 302.874 235.194 302.058 235.546 301.37C235.898 300.682 236.386 300.146 237.01 299.762C237.65 299.378 238.37 299.186 239.17 299.186C240.002 299.186 240.73 299.378 241.354 299.762C241.978 300.146 242.466 300.682 242.818 301.37C243.17 302.058 243.346 302.874 243.346 303.818C243.346 304.762 243.17 305.586 242.818 306.29C242.466 306.978 241.978 307.514 241.354 307.898C240.73 308.266 240.002 308.45 239.17 308.45ZM239.17 306.482C239.698 306.482 240.122 306.266 240.442 305.834C240.762 305.386 240.922 304.714 240.922 303.818C240.922 302.938 240.762 302.274 240.442 301.826C240.122 301.378 239.698 301.154 239.17 301.154C238.658 301.154 238.234 301.378 237.898 301.826C237.578 302.258 237.418 302.922 237.418 303.818C237.418 304.714 237.578 305.386 237.898 305.834C238.234 306.266 238.658 306.482 239.17 306.482Z" fill="white"/>
<path d="M74.0508 269.258V266.738L80.5308 260.618C81.0428 260.154 81.4188 259.738 81.6588 259.37C81.8988 259.002 82.0588 258.666 82.1388 258.362C82.2348 258.058 82.2828 257.778 82.2828 257.522C82.2828 256.85 82.0508 256.338 81.5868 255.986C81.1388 255.618 80.4748 255.434 79.5948 255.434C78.8908 255.434 78.2348 255.57 77.6268 255.842C77.0348 256.114 76.5308 256.538 76.1148 257.114L73.2828 255.29C73.9228 254.33 74.8188 253.57 75.9708 253.01C77.1228 252.45 78.4508 252.17 79.9548 252.17C81.2028 252.17 82.2908 252.378 83.2188 252.794C84.1628 253.194 84.8908 253.762 85.4028 254.498C85.9308 255.234 86.1948 256.114 86.1948 257.138C86.1948 257.682 86.1228 258.226 85.9788 258.77C85.8508 259.298 85.5788 259.858 85.1628 260.45C84.7628 261.042 84.1708 261.706 83.3868 262.442L78.0108 267.506L77.2668 266.09H86.7468V269.258H74.0508ZM95.551 269.546C94.175 269.546 92.943 269.21 91.855 268.538C90.767 267.85 89.911 266.858 89.287 265.562C88.663 264.266 88.351 262.698 88.351 260.858C88.351 259.018 88.663 257.45 89.287 256.154C89.911 254.858 90.767 253.874 91.855 253.202C92.943 252.514 94.175 252.17 95.551 252.17C96.943 252.17 98.175 252.514 99.247 253.202C100.335 253.874 101.191 254.858 101.815 256.154C102.439 257.45 102.751 259.018 102.751 260.858C102.751 262.698 102.439 264.266 101.815 265.562C101.191 266.858 100.335 267.85 99.247 268.538C98.175 269.21 96.943 269.546 95.551 269.546ZM95.551 266.258C96.207 266.258 96.775 266.074 97.255 265.706C97.751 265.338 98.135 264.754 98.407 263.954C98.695 263.154 98.839 262.122 98.839 260.858C98.839 259.594 98.695 258.562 98.407 257.762C98.135 256.962 97.751 256.378 97.255 256.01C96.775 255.642 96.207 255.458 95.551 255.458C94.911 255.458 94.343 255.642 93.847 256.01C93.367 256.378 92.983 256.962 92.695 257.762C92.423 258.562 92.287 259.594 92.287 260.858C92.287 262.122 92.423 263.154 92.695 263.954C92.983 264.754 93.367 265.338 93.847 265.706C94.343 266.074 94.911 266.258 95.551 266.258ZM107.064 269.258L118.536 252.458H121.392L109.92 269.258H107.064ZM108.528 261.53C107.712 261.53 106.992 261.346 106.368 260.978C105.744 260.594 105.248 260.058 104.88 259.37C104.528 258.666 104.352 257.842 104.352 256.898C104.352 255.954 104.528 255.138 104.88 254.45C105.248 253.762 105.744 253.226 106.368 252.842C106.992 252.458 107.712 252.266 108.528 252.266C109.344 252.266 110.064 252.458 110.688 252.842C111.312 253.226 111.8 253.762 112.152 254.45C112.504 255.138 112.68 255.954 112.68 256.898C112.68 257.842 112.504 258.666 112.152 259.37C111.8 260.058 111.312 260.594 110.688 260.978C110.064 261.346 109.344 261.53 108.528 261.53ZM108.528 259.562C109.056 259.562 109.48 259.346 109.8 258.914C110.12 258.466 110.28 257.794 110.28 256.898C110.28 256.002 110.12 255.338 109.8 254.906C109.48 254.458 109.056 254.234 108.528 254.234C108.016 254.234 107.592 254.458 107.256 254.906C106.936 255.338 106.776 256.002 106.776 256.898C106.776 257.778 106.936 258.442 107.256 258.89C107.592 259.338 108.016 259.562 108.528 259.562ZM119.928 269.45C119.128 269.45 118.408 269.266 117.768 268.898C117.144 268.514 116.656 267.978 116.304 267.29C115.952 266.586 115.776 265.762 115.776 264.818C115.776 263.874 115.952 263.058 116.304 262.37C116.656 261.682 117.144 261.146 117.768 260.762C118.408 260.378 119.128 260.186 119.928 260.186C120.76 260.186 121.488 260.378 122.112 260.762C122.736 261.146 123.224 261.682 123.576 262.37C123.928 263.058 124.104 263.874 124.104 264.818C124.104 265.762 123.928 266.586 123.576 267.29C123.224 267.978 122.736 268.514 122.112 268.898C121.488 269.266 120.76 269.45 119.928 269.45ZM119.928 267.482C120.456 267.482 120.88 267.266 121.2 266.834C121.52 266.386 121.68 265.714 121.68 264.818C121.68 263.938 121.52 263.274 121.2 262.826C120.88 262.378 120.456 262.154 119.928 262.154C119.416 262.154 118.992 262.378 118.656 262.826C118.336 263.258 118.176 263.922 118.176 264.818C118.176 265.714 118.336 266.386 118.656 266.834C118.992 267.266 119.416 267.482 119.928 267.482Z" fill="white"/>
</svg>
