<svg width="21" height="21" viewBox="0 0 21 21" fill="none" xmlns="http://www.w3.org/2000/svg">
<g clip-path="url(#clip0_10704_1435)">
<path d="M18.3697 20.635H1.90031C0.848806 20.635 0 19.7862 0 18.7346V3.53215C0 2.48064 0.848806 1.63184 1.90031 1.63184H18.3697C19.4212 1.63184 20.27 2.48064 20.27 3.53215V18.7346C20.27 19.7862 19.4212 20.635 18.3697 20.635ZM1.90031 2.89871C1.54559 2.89871 1.26688 3.17742 1.26688 3.53215V18.7346C1.26688 19.0894 1.54559 19.3681 1.90031 19.3681H18.3697C18.7244 19.3681 19.0031 19.0894 19.0031 18.7346V3.53215C19.0031 3.17742 18.7244 2.89871 18.3697 2.89871H1.90031Z" fill="white"/>
<path d="M5.70094 5.43273C5.34621 5.43273 5.0675 5.15402 5.0675 4.7993V0.998672C5.0675 0.643947 5.34621 0.365234 5.70094 0.365234C6.05566 0.365234 6.33438 0.643947 6.33438 0.998672V4.7993C6.33438 5.15402 6.05566 5.43273 5.70094 5.43273ZM14.5691 5.43273C14.2143 5.43273 13.9356 5.15402 13.9356 4.7993V0.998672C13.9356 0.643947 14.2143 0.365234 14.5691 0.365234C14.9238 0.365234 15.2025 0.643947 15.2025 0.998672V4.7993C15.2025 5.15402 14.9238 5.43273 14.5691 5.43273ZM19.6366 7.96648H0.633438C0.278713 7.96648 0 7.68777 0 7.33305C0 6.97832 0.278713 6.69961 0.633438 6.69961H19.6366C19.9913 6.69961 20.27 6.97832 20.27 7.33305C20.27 7.68777 19.9913 7.96648 19.6366 7.96648Z" fill="white"/>
</g>
<defs>
<clipPath id="clip0_10704_1435">
<rect width="20.27" height="20.27" fill="white" transform="translate(0 0.365234)"/>
</clipPath>
</defs>
</svg>
