<svg width="22" height="22" viewBox="0 0 22 22" fill="none" xmlns="http://www.w3.org/2000/svg">
<path fill-rule="evenodd" clip-rule="evenodd" d="M14.6673 8.24897C14.6673 9.22143 14.281 10.1541 13.5934 10.8417C12.9057 11.5293 11.9731 11.9156 11.0007 11.9156C10.0282 11.9156 9.09556 11.5293 8.40793 10.8417C7.72029 10.1541 7.33398 9.22143 7.33398 8.24897C7.33398 7.27651 7.72029 6.34388 8.40793 5.65625C9.09556 4.96861 10.0282 4.58231 11.0007 4.58231C11.9731 4.58231 12.9057 4.96861 13.5934 5.65625C14.281 6.34388 14.6673 7.27651 14.6673 8.24897ZM12.834 8.24897C12.834 8.7352 12.6408 9.20152 12.297 9.54533C11.9532 9.88915 11.4869 10.0823 11.0007 10.0823C10.5144 10.0823 10.0481 9.88915 9.70429 9.54533C9.36047 9.20152 9.16732 8.7352 9.16732 8.24897C9.16732 7.76274 9.36047 7.29643 9.70429 6.95261C10.0481 6.60879 10.5144 6.41564 11.0007 6.41564C11.4869 6.41564 11.9532 6.60879 12.297 6.95261C12.6408 7.29643 12.834 7.76274 12.834 8.24897Z" fill="#231F20"/>
<path fill-rule="evenodd" clip-rule="evenodd" d="M11.0003 0.916153C5.43158 0.916153 0.916992 5.43074 0.916992 10.9995C0.916992 16.5682 5.43158 21.0828 11.0003 21.0828C16.5691 21.0828 21.0837 16.5682 21.0837 10.9995C21.0837 5.43074 16.5691 0.916153 11.0003 0.916153ZM2.75033 10.9995C2.75033 12.9153 3.40391 14.679 4.49933 16.0797C5.26862 15.0694 6.26107 14.2507 7.39914 13.6874C8.53721 13.1242 9.79009 12.8317 11.0599 12.8328C12.3133 12.8316 13.5504 13.1165 14.677 13.6659C15.8036 14.2152 16.79 15.0144 17.5609 16.0027C18.3552 14.961 18.8899 13.7451 19.121 12.4557C19.352 11.1663 19.2727 9.84039 18.8896 8.58772C18.5065 7.33505 17.8306 6.19161 16.9179 5.25202C16.0051 4.31243 14.8817 3.60369 13.6407 3.18445C12.3996 2.76521 11.0766 2.64753 9.78103 2.84113C8.48547 3.03473 7.25463 3.53405 6.19036 4.29779C5.12609 5.06152 4.25899 6.0677 3.66079 7.23308C3.06259 8.39846 2.75049 9.68954 2.75033 10.9995ZM11.0003 19.2495C9.10645 19.2523 7.26974 18.6008 5.80099 17.4052C6.39218 16.5588 7.17905 15.8678 8.09467 15.3909C9.01029 14.9141 10.0275 14.6654 11.0599 14.6662C12.0794 14.6653 13.0844 14.9078 13.9913 15.3733C14.8983 15.8388 15.6812 16.514 16.2748 17.3428C14.7947 18.5773 12.9277 19.2522 11.0003 19.2495Z" fill="#231F20"/>
</svg>
