<svg width="22" height="13" viewBox="0 0 22 13" fill="none" xmlns="http://www.w3.org/2000/svg">
<path d="M19.3828 0H2.61764C1.17413 0 0 1.06448 0 2.37294V10.518C0 11.8265 1.17413 12.891 2.61764 12.891H19.3826C20.8257 12.891 22 11.8265 22 10.518V2.37294C22 1.06448 20.8257 0 19.3828 0ZM20.6543 10.518C20.6543 11.0844 20.0835 11.5453 19.3826 11.5453H2.61764C1.91627 11.5453 1.3457 11.0844 1.3457 10.518V2.37294C1.3457 1.80661 1.91627 1.3457 2.61764 1.3457H19.3826C20.0836 1.3457 20.6543 1.80661 20.6543 2.37294V10.518Z" fill="#231F20"/>
<path d="M7.32519 4.70898H5.97949V5.8672H7.32519V4.70898Z" fill="#231F20"/>
<path d="M7.32519 9.3418H5.97949V10.5H7.32519V9.3418Z" fill="#231F20"/>
<path d="M7.32616 2.3916H5.98047V3.54982H7.32616V2.3916Z" fill="#231F20"/>
<path d="M7.32616 7.02441H5.98047V8.18236H7.32616V7.02441Z" fill="#231F20"/>
<path d="M13.444 4.59766C13.444 3.5476 12.5722 2.68652 11.5324 2.68652C10.4823 2.68652 9.62109 3.53726 9.62109 4.59766C9.62109 5.66904 10.4825 6.50898 11.5324 6.50898C12.5722 6.50898 13.444 5.65851 13.444 4.59766ZM10.7028 4.59766C10.7028 4.1356 11.081 3.76824 11.5322 3.76824C11.9835 3.76824 12.3617 4.13586 12.3617 4.59766C12.3617 5.05991 11.9835 5.42726 11.5322 5.42726C11.081 5.42726 10.7028 5.05964 10.7028 4.59766Z" fill="#231F20"/>
<path d="M16.4647 6.44825C15.4146 6.44445 14.55 7.29227 14.5459 8.35285C14.5423 9.42378 15.4006 10.2674 16.4509 10.2714C17.4909 10.2752 18.3652 9.42723 18.3693 8.36682C18.3729 7.31641 17.5045 6.45179 16.4647 6.44825ZM16.4575 9.18943C16.0062 9.18943 15.6283 8.82137 15.6283 8.35957C15.6283 7.89733 16.0065 7.52998 16.4575 7.52998C16.9092 7.52998 17.2871 7.89759 17.2871 8.35957C17.2874 8.82164 16.9092 9.18943 16.4575 9.18943Z" fill="#231F20"/>
<path d="M15.3982 2.38837L11.3409 10.0166L12.529 10.6485L16.5863 3.02031L15.3982 2.38837Z" fill="#231F20"/>
</svg>
