<svg width="23" height="23" viewBox="0 0 23 23" fill="none" xmlns="http://www.w3.org/2000/svg">
<g clip-path="url(#clip0_10407_5101)">
<path d="M18.4565 16.3601V14.5566H17.0484V16.3601H15.335V17.7682H17.0484V19.5717H18.4565V17.7682H20.17V16.3601H18.4565Z" fill="#303030"/>
<path d="M22.1639 14.2579C21.6843 13.5103 21.0274 12.898 20.2534 12.4722V1.64707H15.4542V0.586914H14.0461V1.64707H6.2073V0.586914H4.79914V1.64707H0V19.3577H12.9029C13.1704 19.9284 13.5401 20.4531 13.9895 20.8947C14.9863 21.8741 16.3048 22.4135 17.702 22.4135C20.6233 22.4135 23 20.0367 23 17.1154C23 16.0984 22.7109 15.1103 22.1639 14.2579ZM1.40817 3.05524H4.79918V4.43591H6.20735V3.05524H14.0461V4.43591H15.4543V3.05524H18.8453V5.60464H1.40817V3.05524ZM12.7959 15.1176C12.7902 15.1316 12.7844 15.1457 12.7788 15.1598H10.814V13.2298H12.7959V15.1176ZM10.814 11.8217V9.89172H12.7959V11.8217H10.814ZM2.6176 8.4836V16.568H12.4325C12.4137 16.749 12.4039 16.9317 12.4039 17.1155C12.4039 17.3038 12.4142 17.4953 12.4344 17.6845C12.4395 17.7324 12.4455 17.7802 12.4519 17.828C12.4541 17.844 12.4566 17.8599 12.4589 17.8758C12.4625 17.9004 12.4658 17.925 12.4697 17.9496H1.40817V7.01281H18.8453V11.9409C18.8367 11.939 18.8281 11.9375 18.8195 11.9356C18.7951 11.9304 18.7706 11.9254 18.7461 11.9205C18.7248 11.9163 18.7036 11.912 18.6823 11.908C18.6576 11.9035 18.6329 11.8991 18.6081 11.8948C18.5868 11.8911 18.5655 11.8874 18.5442 11.884C18.5192 11.8801 18.4942 11.8765 18.4692 11.8728C18.448 11.8697 18.4267 11.8666 18.4054 11.8637C18.38 11.8604 18.3545 11.8574 18.3289 11.8544C18.308 11.852 18.2871 11.8493 18.266 11.8471C18.2398 11.8443 18.2134 11.842 18.187 11.8397C18.1667 11.8378 18.1463 11.8358 18.126 11.8342C18.0981 11.832 18.0703 11.8303 18.0423 11.8286C18.0233 11.8274 18.0043 11.8259 17.9852 11.8249C17.9542 11.8233 17.9229 11.8222 17.8918 11.8212C17.8758 11.8206 17.8599 11.8198 17.8438 11.8193C17.7966 11.8181 17.7493 11.8174 17.7018 11.8174C17.6684 11.8174 17.6352 11.818 17.6019 11.8186V8.4836H2.6176ZM7.42401 11.8217V9.89172H9.40588V11.8217H7.42401ZM9.40588 13.2298V15.1598H7.42401V13.2298H9.40588ZM4.02576 11.8217V9.89172H6.01589V11.8217H4.02576ZM6.01585 13.2298V15.1598H4.02576V13.2298H6.01585ZM16.1939 9.89176V11.8217H14.204V9.89176H16.1939ZM17.702 21.0053C16.6763 21.0053 15.7083 20.6093 14.9764 19.8902C14.5578 19.4789 14.2328 18.9698 14.0366 18.4178C13.9345 18.1306 13.8666 17.8335 13.8346 17.5346C13.8197 17.395 13.8121 17.2539 13.8121 17.1154C13.8121 15.9959 14.2953 14.9299 15.1387 14.1898L15.1642 14.1675C15.4844 13.8915 15.8448 13.6709 16.2351 13.5117C16.7012 13.3218 17.1947 13.2255 17.702 13.2255C17.9059 13.2255 18.1073 13.241 18.3055 13.2718C18.6359 13.3232 18.9572 13.4171 19.2659 13.5529L19.2665 13.5532C19.3066 13.5708 19.3464 13.5888 19.3857 13.6077C20.7259 14.2524 21.5918 15.6292 21.5918 17.1154C21.5918 19.2603 19.8468 21.0053 17.702 21.0053Z" fill="#303030"/>
</g>
<defs>
<clipPath id="clip0_10407_5101">
<rect width="23" height="23" rx="5" fill="white"/>
</clipPath>
</defs>
</svg>
