<svg width="21" height="21" viewBox="0 0 21 21" fill="none" xmlns="http://www.w3.org/2000/svg">
<path d="M2.54664 10.3229C2.58883 8.27578 3.42197 6.32455 4.87135 4.87832C5.60133 4.14834 6.45035 3.57334 7.39595 3.17353C8.37525 2.76025 9.41519 2.54912 10.4866 2.54912C11.5602 2.54912 12.6002 2.75801 13.5772 3.17353C14.5228 3.57334 15.3718 4.14834 16.1018 4.87832C16.3264 5.10293 16.5353 5.33877 16.7285 5.58359L15.6054 6.46182C15.5787 6.48251 15.5583 6.51034 15.5467 6.5421C15.535 6.57385 15.5326 6.60825 15.5396 6.64134C15.5467 6.67442 15.5629 6.70484 15.5865 6.72911C15.61 6.75338 15.6399 6.7705 15.6728 6.77852L19.1947 7.63877C19.307 7.66572 19.417 7.58037 19.417 7.46582L19.435 3.83838C19.435 3.68789 19.2621 3.60254 19.1453 3.69688L18.0716 4.53691C16.3107 2.28408 13.5682 0.839844 10.4888 0.839844C5.22174 0.839844 0.938435 5.06475 0.841853 10.3139C0.841254 10.3378 0.845458 10.3617 0.85422 10.384C0.862981 10.4063 0.876122 10.4267 0.892867 10.4438C0.909613 10.461 0.929625 10.4746 0.951724 10.484C0.973822 10.4933 0.997561 10.4981 1.02154 10.498H2.3692C2.46578 10.498 2.54439 10.4194 2.54664 10.3229ZM19.9786 10.498H18.6309C18.5343 10.498 18.4535 10.5767 18.4512 10.6732C18.409 12.7203 17.5759 14.6715 16.1265 16.1178C15.4032 16.8441 14.5458 17.423 13.6019 17.8226C12.6226 18.2358 11.5827 18.447 10.5113 18.447C9.4399 18.447 8.39771 18.2381 7.42066 17.8226C6.47673 17.423 5.61933 16.8441 4.89605 16.1178C4.67144 15.8932 4.46256 15.6573 4.26939 15.4125L5.39019 14.5343C5.41695 14.5136 5.43732 14.4858 5.44896 14.454C5.4606 14.4222 5.46304 14.3878 5.456 14.3548C5.44896 14.3217 5.43273 14.2913 5.40917 14.267C5.3856 14.2427 5.35567 14.2256 5.32281 14.2176L1.80094 13.3573C1.68863 13.3304 1.57857 13.4157 1.57857 13.5303L1.5606 17.1622C1.5606 17.3127 1.73355 17.398 1.85035 17.3037L2.92398 16.4637C4.68941 18.712 7.43189 20.1563 10.5113 20.1563C15.7784 20.1563 20.0617 15.9313 20.1583 10.6822C20.1589 10.6583 20.1547 10.6344 20.1459 10.6121C20.1371 10.5898 20.124 10.5694 20.1072 10.5523C20.0905 10.5351 20.0705 10.5215 20.0484 10.5121C20.0263 10.5028 20.0026 10.498 19.9786 10.498Z" fill="#3B3B3B"/>
<path d="M11.4828 9.54123L10.9614 9.4145V6.52993C11.7414 6.64162 12.2238 7.15281 12.3059 7.77998C12.3162 7.8659 12.386 7.92818 12.4681 7.92818H13.3898C13.4863 7.92818 13.5622 7.84012 13.554 7.73917C13.4288 6.40105 12.3757 5.54191 10.9696 5.39371V4.69136C10.9696 4.59685 10.8957 4.51953 10.8054 4.51953H10.2286C10.1383 4.51953 10.0644 4.59685 10.0644 4.69136V5.40015C8.61105 5.54836 7.47384 6.38817 7.47384 7.95611C7.47384 9.40806 8.49609 10.1083 9.56967 10.3767L10.0767 10.5121V13.5771C9.16939 13.4503 8.66031 12.9434 8.55562 12.2604C8.54331 12.1788 8.47351 12.1187 8.39346 12.1187H7.4451C7.34862 12.1187 7.27267 12.2046 7.28088 12.3055C7.37325 13.4868 8.22924 14.5737 10.0562 14.7133V15.3877C10.0562 15.4822 10.1301 15.5595 10.2204 15.5595H10.8034C10.8937 15.5595 10.9676 15.4822 10.9676 15.3856L10.9635 14.7047C12.5707 14.5565 13.7203 13.6565 13.7203 12.0413C13.7182 10.5507 12.813 9.88489 11.4828 9.54123ZM10.0746 9.19327C9.95969 9.15891 9.86321 9.12669 9.76673 9.08588C9.07291 8.82384 8.75063 8.40071 8.75063 7.85516C8.75063 7.07548 9.31513 6.63088 10.0746 6.52993V9.19327ZM10.9614 13.5835V10.7118C11.025 10.7311 11.0825 10.7462 11.1421 10.7591C12.113 11.0684 12.4394 11.4979 12.4394 12.1573C12.4394 12.9971 11.8359 13.5019 10.9614 13.5835Z" fill="#3B3B3B"/>
</svg>
