<svg width="17" height="17" viewBox="0 0 17 17" fill="none" xmlns="http://www.w3.org/2000/svg">
<path d="M13.2812 7.4375C15.3319 7.4375 17 5.76937 17 3.71875C17 1.66813 15.3319 0 13.2812 0C11.2306 0 9.5625 1.66813 9.5625 3.71875V5.3125H7.4375V3.71875C7.4375 1.66813 5.76937 0 3.71875 0C1.66813 0 0 1.66813 0 3.71875C0 5.76937 1.66813 7.4375 3.71875 7.4375H5.3125V9.5625H3.71875C1.66813 9.5625 0 11.2306 0 13.2812C0 15.3319 1.66813 17 3.71875 17C5.76937 17 7.4375 15.3319 7.4375 13.2812V11.6875H9.5625V13.2812C9.5625 15.3319 11.2306 17 13.2812 17C15.3319 17 17 15.3319 17 13.2812C17 11.2306 15.3319 9.5625 13.2812 9.5625H11.6875V7.4375H13.2812ZM11.6875 3.71875C11.7026 3.30613 11.8771 2.91544 12.1743 2.62886C12.4716 2.34228 12.8684 2.18214 13.2812 2.18214C13.6941 2.18214 14.0909 2.34228 14.3882 2.62886C14.6854 2.91544 14.8599 3.30613 14.875 3.71875C14.875 4.59637 14.1599 5.3125 13.2812 5.3125H11.6875V3.71875ZM5.3125 13.2812C5.3125 14.1589 4.59744 14.875 3.71875 14.875C2.84006 14.875 2.125 14.1589 2.125 13.2812C2.125 12.4015 2.84006 11.6875 3.71875 11.6875H5.3125V13.2812ZM5.3125 5.3125H3.71875C3.40324 5.31271 3.09475 5.21933 2.83232 5.04417C2.56989 4.86901 2.36532 4.61994 2.24448 4.32849C2.12364 4.03703 2.09197 3.71628 2.15347 3.40682C2.21497 3.09735 2.36688 2.81309 2.58999 2.58999C2.81309 2.36688 3.09735 2.21497 3.40682 2.15347C3.71628 2.09197 4.03703 2.12364 4.32849 2.24448C4.61994 2.36532 4.86901 2.56989 5.04417 2.83232C5.21933 3.09475 5.31271 3.40324 5.3125 3.71875V5.3125ZM9.5625 9.5625H7.4375V7.4375H9.5625V9.5625ZM13.2812 11.6875C13.6939 11.7026 14.0846 11.8771 14.3711 12.1743C14.6577 12.4716 14.8179 12.8684 14.8179 13.2812C14.8179 13.6941 14.6577 14.0909 14.3711 14.3882C14.0846 14.6854 13.6939 14.8599 13.2812 14.875C12.4026 14.875 11.6875 14.1589 11.6875 13.2812V11.6875H13.2812Z" fill="#3B3B3B"/>
</svg>
