<svg width="21" height="21" viewBox="0 0 21 21" fill="none" xmlns="http://www.w3.org/2000/svg">
<path d="M9.00007 12L20.0001 1M9.00007 12L12.5001 19C12.5439 19.0957 12.6144 19.1769 12.703 19.2338C12.7917 19.2906 12.8948 19.3209 13.0001 19.3209C13.1054 19.3209 13.2085 19.2906 13.2971 19.2338C13.3858 19.1769 13.4562 19.0957 13.5001 19L20.0001 1M9.00007 12L2.00007 8.5C1.90433 8.45613 1.8232 8.38569 1.76632 8.29705C1.70944 8.20842 1.6792 8.10532 1.6792 8C1.6792 7.89468 1.70944 7.79158 1.76632 7.70295C1.8232 7.61431 1.90433 7.54387 2.00007 7.5L20.0001 1" stroke="#231F20" stroke-width="2" stroke-linecap="round" stroke-linejoin="round"/>
</svg>
